<?xml version="1.0" encoding="utf-8"?>
<!-- Generator: Adobe Illustrator 25.0.1, SVG Export Plug-In . SVG Version: 6.00 Build 0)  -->
<svg version="1.1" id="Layer_1" xmlns="http://www.w3.org/2000/svg" xmlns:xlink="http://www.w3.org/1999/xlink" x="0px" y="0px"
	 viewBox="0 0 200 200" style="enable-background:new 0 0 200 200;" xml:space="preserve">
<style type="text/css">
	.st0{fill:#FFB136;}
	.st1{fill:#0077B7;}
	.st2{fill:#FF6057;}
	.st3{fill:#FFFFFF;}
</style>
<g id="Birdlogo">
	<polygon class="st0" points="33.1,156.9 33.1,200 33.2,200 58,157.2 82.7,200 82.9,200 82.9,156.9 	"/>
	<polygon class="st0" points="145.8,170.6 145.8,199.8 145.9,199.8 162.7,170.7 179.5,199.8 179.6,199.8 179.6,170.6 	"/>
	<path class="st1" d="M81,41.1l13.7-14.8C86.7,14.2,73,6.2,57.5,6.2c-24.6,0-44.6,20-44.6,44.6c0,24.6,20,44.6,44.6,44.6
		c24.5,0,44.3-19.7,44.6-44.1L81,41.1z"/>
	<circle class="st1" cx="58.1" cy="123" r="42.5"/>
	<polygon class="st1" points="58.5,36.7 0,138 117,138 	"/>
	<polygon class="st0" points="85.7,65.8 128,57.8 128,57.6 81.3,41.3 118.8,9 118.8,8.9 76.5,16.9 	"/>
	<path class="st2" d="M162.9,75.9c-10.3,0-19.3,5.4-24.3,13.4l8.9,9.2l-13.3,5.4c0,0.2,0,0.5,0,0.7c0,15.9,12.9,28.8,28.8,28.8
		c15.9,0,28.8-12.9,28.8-28.8C191.7,88.8,178.8,75.9,162.9,75.9z"/>
	<circle class="st2" cx="162.5" cy="151.4" r="27.5"/>
	<polygon class="st2" points="162.2,95.7 200,161.1 124.5,161.1 	"/>
	<polygon class="st0" points="144.7,114.4 117.3,109.3 117.3,109.2 147.5,98.6 123.2,77.8 123.3,77.7 150.6,82.8 	"/>
	<path class="st3" d="M47,26.1c6.7-2.3,13.7-0.3,17.1,4.4c0-1.2-0.2-2.4-0.6-3.5c-2.3-6.9-10.7-10.3-18.8-7.6S32.1,29.9,34.4,36.8
		c0.4,1.2,1,2.2,1.7,3.1C36,34.1,40.3,28.3,47,26.1z"/>
	<path class="st3" d="M169.6,88.8c-4.3-1.5-8.8-0.2-11.1,2.9c0-0.8,0.1-1.5,0.4-2.3c1.5-4.4,6.9-6.6,12.1-4.9
		c5.2,1.7,8.2,6.8,6.7,11.2c-0.2,0.7-0.6,1.4-1.1,2C176.8,93.9,174,90.2,169.6,88.8z"/>
</g>
</svg>
