<?xml version="1.0" encoding="utf-8"?>
<!-- Generator: Adobe Illustrator 24.3.0, SVG Export Plug-In . SVG Version: 6.00 Build 0)  -->
<svg version="1.1" xmlns="http://www.w3.org/2000/svg" xmlns:xlink="http://www.w3.org/1999/xlink" x="0px" y="0px"
	 viewBox="0 0 586.33 510.73" style="enable-background:new 0 0 586.33 510.73;" xml:space="preserve">
<style type="text/css">
	.st0{fill:#0378B8;}
	.st1{fill:#FFB136;}
	.st2{fill:#FFFFFF;}
	.st3{fill:#F1615A;}
</style>
<g id="Layer_1">
	<g>
		<g>
			<path class="st0" d="M350.56,85.66l28.06-38.59c-22.1-26.17-56.49-41.09-93.04-36.73c-57.78,6.89-99.04,59.33-92.14,117.11
				c6.9,57.78,59.33,99.04,117.11,92.14c57.44-6.85,98.53-58.71,92.24-116.09L350.56,85.66z"/>
			<polygon class="st1" points="368.55,142.33 465.71,111.73 465.6,111.39 351.43,86.04 430.47,-0.16 430.36,-0.5 333.2,30.1 			"/>
			<path class="st2" d="M266.64,59.9c15.14-7.16,31.99-4.46,41.45,5.58c-0.36-2.75-1.09-5.47-2.32-8.06
				c-7.34-15.5-28.03-21.1-46.22-12.49c-18.19,8.61-26.99,28.15-19.65,43.65c1.23,2.6,2.86,4.89,4.76,6.91
				C242.9,81.81,251.49,67.06,266.64,59.9"/>
			<polygon class="st1" points="236.26,389.81 236.26,491.67 236.61,491.67 295.08,390.39 353.56,491.67 353.92,491.67 
				353.92,389.81 			"/>
			<path class="st0" d="M194.88,309.64c0,55.55,45.03,100.58,100.58,100.58s100.58-45.03,100.58-100.58s-45.03-100.58-100.58-100.58
				S194.88,254.09,194.88,309.64"/>
		</g>
	</g>
	<g>
		<path class="st3" d="M522.93,301.61c-17.25,0-32.38,9.03-40.96,22.61l14.95,15.55l-22.38,9.09c-0.01,0.39-0.03,0.77-0.03,1.16
			c0,26.74,21.68,48.42,48.42,48.42s48.42-21.68,48.42-48.42C571.35,323.29,549.67,301.61,522.93,301.61"/>
		<polygon class="st1" points="492.26,366.35 446.26,357.68 446.29,357.52 497,339.74 456.25,304.71 456.28,304.55 502.27,313.22 		
			"/>
		<path class="st2" d="M534.27,323.2c-7.3-2.44-14.84-0.29-18.61,4.8c0.01-1.28,0.2-2.55,0.62-3.81c2.5-7.47,11.64-11.15,20.41-8.22
			c8.77,2.94,13.85,11.38,11.34,18.85c-0.42,1.25-1.04,2.39-1.8,3.41C546.29,331.9,541.57,325.64,534.27,323.2"/>
		<polygon class="st1" points="491.49,438.56 465.04,480.01 465.18,480.1 515.27,454.07 512.77,510.47 512.92,510.56 539.37,469.11 
					"/>
		<path class="st3" d="M568.41,428.53c0,25.53-20.69,46.22-46.22,46.22c-25.53,0-46.22-20.69-46.22-46.22
			c0-25.53,20.69-46.22,46.22-46.22C547.72,382.31,568.41,403.01,568.41,428.53"/>
	</g>
</g>
<g id="Layer_2">
	<polygon class="st3" points="522.47,335.68 586,445.73 458.93,445.73 	"/>
	<polygon class="st0" points="296.26,105.63 158,345.1 434.52,345.1 	"/>
	<g>
		<path class="st3" d="M41.05,307.34c14.9-8.7,32.52-8.53,46.77-1.13l-5.07,20.97l23.92-3.43c0.2,0.33,0.42,0.65,0.61,0.99
			c13.48,23.09,5.69,52.74-17.4,66.23c-23.09,13.48-52.74,5.69-66.23-17.4C10.16,350.48,17.95,320.83,41.05,307.34"/>
		<polygon class="st1" points="100.18,347.79 135.53,317.1 135.42,316.98 82.66,327.19 100.2,276.4 100.09,276.27 64.74,306.95 		
			"/>
		<path class="st2" d="M42.13,331.7c5.07-5.79,12.67-7.74,18.49-5.23c-0.65-1.1-1.46-2.1-2.45-2.97
			c-5.93-5.19-15.67-3.76-21.77,3.19c-6.09,6.96-6.22,16.81-0.29,22c0.99,0.87,2.1,1.54,3.27,2.04
			C36.14,345.27,37.06,337.49,42.13,331.7"/>
		<polygon class="st1" points="94.98,430.56 121.43,472.01 121.28,472.1 71.19,446.07 73.69,502.47 73.55,502.56 47.1,461.11 		"/>
		<path class="st3" d="M18.05,420.53c0,25.53,20.69,46.22,46.22,46.22c25.53,0,46.22-20.69,46.22-46.22
			c0-25.53-20.69-46.22-46.22-46.22C38.74,374.31,18.05,395.01,18.05,420.53"/>
	</g>
	<polygon class="st3" points="64,327.68 0.46,437.73 127.53,437.73 	"/>
</g>
</svg>
