<?xml version="1.0" encoding="utf-8"?>
<!-- Generator: Adobe Illustrator 25.1.0, SVG Export Plug-In . SVG Version: 6.00 Build 0)  -->
<svg version="1.1" id="Layer_1" xmlns="http://www.w3.org/2000/svg" xmlns:xlink="http://www.w3.org/1999/xlink" x="0px" y="0px"
	 viewBox="0 0 245.47 203.95" style="enable-background:new 0 0 245.47 203.95;" xml:space="preserve">
<style type="text/css">
	.st0{fill:#FAB3AC;}
	.st1{fill:#FFFFFF;}
	.st2{fill:#E75B53;}
</style>
<g id="familie">
	<g id="volwassenen_2_">
		<polygon class="st0" points="140.49,146.53 140.49,192.81 140.62,192.81 163.25,146.8 185.87,192.81 186.01,192.81 186.01,146.53 
					"/>
		<path class="st0" d="M186.24,45.24l17.73-6.13c-2.03-13.87-11.16-26.31-25.09-31.93C158-1.24,134.25,8.86,125.83,29.74
			s1.68,44.63,22.57,53.05c20.88,8.42,44.63-1.69,53.05-22.57c0.16-0.39,0.29-0.78,0.44-1.17L186.24,45.24z"/>
		<path class="st0" d="M126.76,115.52c0,21.49,16.4,38.91,36.63,38.91c20.23,0,36.63-17.42,36.63-38.91
			c0-21.49-16.4-38.91-36.63-38.91C143.16,76.61,126.76,94.03,126.76,115.52"/>
		<polygon class="st0" points="100.08,123.8 216.68,114.28 166.71,57.17 		"/>
		<polygon class="st0" points="182.45,67.38 221.1,75.09 221.12,74.96 187.12,45.11 229.97,30.59 230,30.45 191.35,22.74 		"/>
		<path class="st1" d="M163.23,20.46c6.47,0.39,11.68,4.44,13.02,9.61c0.39-1,0.65-2.06,0.71-3.17c0.4-6.62-5.58-12.37-13.35-12.84
			c-7.77-0.47-14.39,4.52-14.79,11.15c-0.07,1.11,0.06,2.19,0.33,3.23C151.1,23.47,156.76,20.07,163.23,20.46"/>
	</g>
	<g id="volwassenen_3_">
		<polygon class="st0" points="100.48,150.29 100.48,198.76 100.34,198.76 76.46,150.57 52.58,198.76 52.43,198.76 52.43,150.29 		
			"/>
		<path class="st0" d="M52.19,43.37L33.47,36.9C35.62,22.27,45.25,9.13,59.96,3.2C82-5.69,107.07,4.98,115.96,27.02
			s-1.78,47.11-23.82,56c-22.04,8.89-47.11-1.78-56-23.82c-0.16-0.41-0.31-0.82-0.46-1.23L52.19,43.37z"/>
		<path class="st0" d="M113.17,117.56c0,22.68-16.51,41.07-36.87,41.07c-20.36,0-36.87-18.39-36.87-41.07
			c0-22.68,16.51-41.07,36.87-41.07C96.67,76.49,113.17,94.87,113.17,117.56"/>
		<polygon class="st0" points="140.54,73.83 69.6,150.4 16.8,111.9 		"/>
		<polygon class="st0" points="56.19,66.75 15.4,74.88 15.37,74.74 51.26,43.24 6.03,27.91 6,27.76 46.79,19.63 		"/>
		<path class="st1" d="M76.48,17.22c-6.83,0.41-12.33,4.69-13.74,10.14c-0.41-1.05-0.68-2.17-0.75-3.34
			c-0.42-6.99,5.89-13.06,14.09-13.55c8.2-0.49,15.19,4.77,15.61,11.77c0.07,1.17-0.06,2.31-0.35,3.41
			C89.28,20.4,83.31,16.81,76.48,17.22"/>
	</g>
	<g id="kids_2_">
		<g id="kid_1_">
			<polygon class="st2" points="73.1,180.33 73.1,203.9 73.18,203.9 86.71,180.47 100.24,203.9 100.33,203.9 100.33,180.33 			"/>
			<path class="st2" d="M86.86,104.02c-8.55,0-16.02,4.63-20.05,11.52l8.06,7.01l-11.2,3.97c-0.01,0.24-0.02,0.47-0.02,0.71
				c0,12.82,10.39,23.21,23.21,23.21c12.82,0,23.21-10.39,23.21-23.21C110.07,114.41,99.68,104.02,86.86,104.02z"/>
			<path class="st2" d="M108.67,164.86c0,12.24-9.92,22.15-22.15,22.15s-22.15-9.92-22.15-22.15s9.92-22.15,22.15-22.15
				S108.67,152.62,108.67,164.86"/>
			<polygon class="st2" points="81.93,120.22 119.11,169.4 54.63,175.5 			"/>
			<polygon class="st2" points="72.16,135.05 50.11,130.9 50.13,130.82 74.44,122.3 54.9,105.51 54.92,105.43 76.96,109.59 			"/>
			<path class="st1" d="M92.3,114.37c-3.5-1.17-7.11-0.14-8.92,2.3c0.01-0.61,0.1-1.22,0.3-1.82c1.2-3.58,5.58-5.35,9.78-3.94
				c4.2,1.41,6.64,5.45,5.44,9.03c-0.2,0.6-0.5,1.14-0.86,1.64C98.06,118.54,95.8,115.54,92.3,114.37"/>
		</g>
		<g>
			<polygon class="st2" points="169.57,175.67 169.57,203.9 169.47,203.9 153.26,175.83 137.06,203.9 136.96,203.9 136.96,175.67 
							"/>
			<path class="st2" d="M167.45,106.45l9.65-8.4c-4.82-8.25-13.77-13.8-24.01-13.8c-15.36,0-27.8,12.45-27.8,27.8
				c0,15.35,12.45,27.8,27.8,27.8c15.35,0,27.8-12.45,27.8-27.8c0-0.29-0.01-0.57-0.02-0.85L167.45,106.45z"/>
			<path class="st2" d="M126.97,157.13c0,14.66,11.88,26.54,26.54,26.54c14.66,0,26.54-11.88,26.54-26.54
				c0-14.66-11.88-26.54-26.54-26.54C138.85,130.59,126.97,142.47,126.97,157.13"/>
			<polygon class="st2" points="150.88,103.42 118.12,169.63 190.79,163.08 			"/>
			<polygon class="st2" points="170.7,121.43 197.11,116.45 197.09,116.35 167.97,106.14 191.37,86.03 191.36,85.94 164.94,90.92 
							"/>
			<path class="st1" d="M146.57,96.64c4.19-1.4,8.52-0.17,10.69,2.76c-0.01-0.73-0.12-1.47-0.36-2.18
				c-1.44-4.29-6.68-6.4-11.72-4.72c-5.04,1.69-7.95,6.53-6.51,10.82c0.24,0.72,0.6,1.37,1.03,1.96
				C139.67,101.64,142.38,98.05,146.57,96.64"/>
		</g>
		<g>
			<polygon class="st2" points="169.57,175.67 169.57,203.9 169.47,203.9 153.26,175.83 137.06,203.9 136.96,203.9 136.96,175.67 
							"/>
			<path class="st2" d="M167.45,106.45l9.65-8.4c-4.82-8.25-13.77-13.8-24.01-13.8c-15.36,0-27.8,12.45-27.8,27.8
				c0,15.35,12.45,27.8,27.8,27.8c15.35,0,27.8-12.45,27.8-27.8c0-0.29-0.01-0.57-0.02-0.85L167.45,106.45z"/>
			<path class="st2" d="M126.97,157.13c0,14.66,11.88,26.54,26.54,26.54c14.66,0,26.54-11.88,26.54-26.54
				c0-14.66-11.88-26.54-26.54-26.54C138.85,130.59,126.97,142.47,126.97,157.13"/>
			<polygon class="st2" points="170.7,121.43 197.11,116.45 197.09,116.35 167.97,106.14 191.37,86.03 191.36,85.94 164.94,90.92 
							"/>
			<path class="st1" d="M146.57,96.64c4.19-1.4,8.52-0.17,10.69,2.76c-0.01-0.73-0.12-1.47-0.36-2.18
				c-1.44-4.29-6.68-6.4-11.72-4.72c-5.04,1.69-7.95,6.53-6.51,10.82c0.24,0.72,0.6,1.37,1.03,1.96
				C139.67,101.64,142.38,98.05,146.57,96.64"/>
		</g>
	</g>
</g>
</svg>
