<?xml version="1.0" encoding="utf-8"?>
<!-- Generator: Adobe Illustrator 25.1.0, SVG Export Plug-In . SVG Version: 6.00 Build 0)  -->
<svg version="1.1" id="Layer_1" xmlns="http://www.w3.org/2000/svg" xmlns:xlink="http://www.w3.org/1999/xlink" x="0px" y="0px"
	 viewBox="0 0 151 132" style="enable-background:new 0 0 151 132;" xml:space="preserve">
<style type="text/css">
	.st0{fill:#FCF5F5;stroke:#E05248;stroke-width:3;stroke-miterlimit:10;}
	.st1{fill:#E05248;}
	.st2{fill:#FFFFFF;}
</style>
<g id="galerij">
	<path class="st0" d="M144.27,102.99L31.55,129.81c-3.21,0.76-6.46-1.24-7.23-4.45L3.34,37.19c-0.76-3.21,1.24-6.46,4.45-7.23
		L120.52,3.14c3.21-0.76,6.46,1.24,7.23,4.45l20.98,88.17C149.49,98.97,147.48,102.23,144.27,102.99z"/>
	<g>
		<g>
			<polygon class="st1" points="72.31,63.22 41.72,126.66 128.19,106.08 			"/>
		</g>
	</g>
	<path class="st0" d="M128.03,125.28L13.27,109.33c-3.27-0.45-5.57-3.5-5.12-6.77l12.48-89.77c0.45-3.27,3.5-5.57,6.77-5.12
		l114.77,15.95c3.27,0.45,5.57,3.5,5.12,6.77l-12.48,89.77C134.35,123.43,131.3,125.74,128.03,125.28z"/>
	<g>
		<path class="st1" d="M70.87,81.03l-11.13-5.77l9.44-6.16c-3.21-7.8-10.34-13.74-19.29-14.98c-13.41-1.86-25.8,7.5-27.66,20.91
			c-1.86,13.41,7.5,25.8,20.91,27.67c13.41,1.86,25.8-7.5,27.67-20.91C70.84,81.53,70.85,81.28,70.87,81.03z"/>
		<polygon class="st1" points="47.74,73.67 10.42,108.41 74.17,117.27 		"/>
		<polygon class="st1" points="60.77,88.73 84.45,87.59 84.44,87.51 60.24,75.05 83.13,60.32 83.13,60.24 59.45,61.38 		"/>
		<path class="st2" d="M42.7,64.15c3.83-0.72,7.46,0.89,9,3.71c0.08-0.64,0.08-1.29-0.05-1.95c-0.73-3.92-5.06-6.41-9.66-5.54
			c-4.6,0.86-7.74,4.74-7.01,8.66c0.12,0.66,0.35,1.27,0.66,1.84C36.06,67.68,38.87,64.87,42.7,64.15"/>
	</g>
	<g>
		<path class="st1" d="M100.81,57.42l9.57-6.25l-9.12-4.73c2.21-7.37,8.14-13.4,16.15-15.34c12.01-2.91,24.09,4.47,27,16.48
			c2.91,12.01-4.47,24.09-16.48,27c-12.01,2.91-24.09-4.47-27-16.48C100.88,57.87,100.86,57.65,100.81,57.42z"/>
		<polygon class="st1" points="102.68,86.65 141.56,61.13 135.58,119.52 		"/>
		<polygon class="st1" points="110.68,63.5 89.09,64.6 89.08,64.53 109.92,51.03 87.81,39.74 87.81,39.66 109.4,38.56 		"/>
		<path class="st2" d="M124.85,39.56c-3.54-0.3-6.69,1.48-7.83,4.18c-0.13-0.57-0.19-1.17-0.13-1.78c0.31-3.63,4.01-6.27,8.27-5.91
			c4.26,0.37,7.45,3.6,7.14,7.23c-0.05,0.61-0.21,1.18-0.44,1.73C131.2,42.16,128.4,39.86,124.85,39.56"/>
	</g>
</g>
</svg>
