<?xml version="1.0" encoding="utf-8"?>
<!-- Generator: Adobe Illustrator 25.1.0, SVG Export Plug-In . SVG Version: 6.00 Build 0)  -->
<svg version="1.1" id="Layer_1" xmlns="http://www.w3.org/2000/svg" xmlns:xlink="http://www.w3.org/1999/xlink" x="0px" y="0px"
	 viewBox="0 0 161 140" style="enable-background:new 0 0 161 140;" xml:space="preserve">
<style type="text/css">
	.st0{fill:#0077B7;}
	.st1{fill:#FFFFFF;}
</style>
<g id="kalender_logo">
	<g>
		<path class="st0" d="M156.37,110.37L31.22,140.15c-3.21,0.76-6.46-1.24-7.23-4.45L0.64,37.56c-0.76-3.21,1.24-6.46,4.45-7.23
			L130.24,0.55c3.21-0.76,6.46,1.24,7.23,4.45l23.35,98.14C161.58,106.36,159.58,109.61,156.37,110.37z"/>
		<g id="vierkantjes">
			
				<rect x="15.89" y="33.33" transform="matrix(0.9728 -0.2315 0.2315 0.9728 -9.1732 6.9749)" class="st1" width="18.51" height="18.51"/>
			
				<rect x="39.29" y="27.76" transform="matrix(0.9728 -0.2315 0.2315 0.9728 -7.2488 12.2408)" class="st1" width="18.51" height="18.51"/>
			
				<rect x="21.88" y="58.53" transform="matrix(0.9728 -0.2315 0.2315 0.9728 -14.8442 9.0474)" class="st1" width="18.51" height="18.51"/>
			
				<rect x="45.29" y="52.96" transform="matrix(0.9728 -0.2315 0.2315 0.9728 -12.9198 14.3133)" class="st1" width="18.51" height="18.51"/>
			
				<rect x="62.69" y="22.19" transform="matrix(0.9728 -0.2315 0.2315 0.9728 -5.3244 17.5068)" class="st1" width="18.51" height="18.51"/>
			
				<rect x="86.1" y="16.62" transform="matrix(0.9728 -0.2315 0.2315 0.9728 -3.4 22.7727)" class="st1" width="18.51" height="18.51"/>
			
				<rect x="68.69" y="47.4" transform="matrix(0.9728 -0.2315 0.2315 0.9728 -10.9954 19.5792)" class="st1" width="18.51" height="18.51"/>
			
				<rect x="92.09" y="41.83" transform="matrix(0.9728 -0.2315 0.2315 0.9728 -9.071 24.8451)" class="st1" width="18.51" height="18.51"/>
			
				<rect x="109.5" y="11.05" transform="matrix(0.9728 -0.2315 0.2315 0.9728 -1.4755 28.0386)" class="st1" width="18.51" height="18.51"/>
			
				<rect x="115.5" y="36.26" transform="matrix(0.9728 -0.2315 0.2315 0.9728 -7.1465 30.1111)" class="st1" width="18.51" height="18.51"/>
			
				<rect x="27.88" y="83.74" transform="matrix(0.9728 -0.2315 0.2315 0.9728 -20.5152 11.1198)" class="st1" width="18.51" height="18.51"/>
			
				<rect x="51.28" y="78.17" transform="matrix(0.9728 -0.2315 0.2315 0.9728 -18.5908 16.3857)" class="st1" width="18.51" height="18.51"/>
			
				<rect x="33.88" y="108.94" transform="matrix(0.9728 -0.2315 0.2315 0.9728 -26.1862 13.1923)" class="st1" width="18.51" height="18.51"/>
			
				<rect x="57.28" y="103.37" transform="matrix(0.9728 -0.2315 0.2315 0.9728 -24.2618 18.4582)" class="st1" width="18.51" height="18.51"/>
			
				<rect x="74.69" y="72.6" transform="matrix(0.9728 -0.2315 0.2315 0.9728 -16.6664 21.6517)" class="st1" width="18.51" height="18.51"/>
			
				<rect x="98.09" y="67.03" transform="matrix(0.9728 -0.2315 0.2315 0.9728 -14.742 26.9176)" class="st1" width="18.51" height="18.51"/>
			
				<rect x="80.68" y="97.8" transform="matrix(0.9728 -0.2315 0.2315 0.9728 -22.3374 23.7241)" class="st1" width="18.51" height="18.51"/>
			
				<rect x="104.09" y="92.24" transform="matrix(0.9728 -0.2315 0.2315 0.9728 -20.4129 28.99)" class="st1" width="18.51" height="18.51"/>
			
				<rect x="121.49" y="61.46" transform="matrix(0.9728 -0.2315 0.2315 0.9728 -12.8175 32.1835)" class="st1" width="18.51" height="18.51"/>
		</g>
	</g>
</g>
</svg>
