<?xml version="1.0" encoding="utf-8"?>
<!-- Generator: Adobe Illustrator 25.1.0, SVG Export Plug-In . SVG Version: 6.00 Build 0)  -->
<svg version="1.1" id="Layer_1" xmlns="http://www.w3.org/2000/svg" xmlns:xlink="http://www.w3.org/1999/xlink" x="0px" y="0px"
	 viewBox="0 0 161 140" style="enable-background:new 0 0 161 140;" xml:space="preserve">
<style type="text/css">
	.st0{fill:#E05248;}
	.st1{fill:#FFF5F5;}
</style>
<g id="kalender_logo">
	<g>
		<path class="st0" d="M156.37,110.37L31.22,140.15c-3.21,0.76-6.46-1.24-7.23-4.45L0.64,37.56c-0.76-3.21,1.24-6.46,4.45-7.23
			L130.24,0.55c3.21-0.76,6.46,1.24,7.23,4.45l23.35,98.14C161.58,106.36,159.58,109.61,156.37,110.37z"/>
		<g id="vierkantjes">
			<g>
				
					<rect x="15.89" y="35.33" transform="matrix(0.9728 -0.2315 0.2315 0.9728 -9.6362 7.0292)" class="st1" width="18.51" height="18.51"/>
				
					<rect x="39.29" y="29.76" transform="matrix(0.9728 -0.2315 0.2315 0.9728 -7.7117 12.2952)" class="st1" width="18.51" height="18.51"/>
				
					<rect x="21.88" y="60.53" transform="matrix(0.9728 -0.2315 0.2315 0.9728 -15.3071 9.1017)" class="st1" width="18.51" height="18.51"/>
				
					<rect x="45.29" y="54.96" transform="matrix(0.9728 -0.2315 0.2315 0.9728 -13.3827 14.3676)" class="st1" width="18.51" height="18.51"/>
				
					<rect x="62.69" y="24.19" transform="matrix(0.9728 -0.2315 0.2315 0.9728 -5.7873 17.5611)" class="st1" width="18.51" height="18.51"/>
				
					<rect x="86.1" y="18.62" transform="matrix(0.9728 -0.2315 0.2315 0.9728 -3.8629 22.827)" class="st1" width="18.51" height="18.51"/>
				
					<rect x="68.69" y="49.4" transform="matrix(0.9728 -0.2315 0.2315 0.9728 -11.4583 19.6335)" class="st1" width="18.51" height="18.51"/>
				
					<rect x="92.09" y="43.83" transform="matrix(0.9728 -0.2315 0.2315 0.9728 -9.5339 24.8995)" class="st1" width="18.51" height="18.51"/>
				
					<rect x="109.5" y="13.05" transform="matrix(0.9728 -0.2315 0.2315 0.9728 -1.9385 28.0929)" class="st1" width="18.51" height="18.51"/>
				
					<rect x="115.5" y="38.26" transform="matrix(0.9728 -0.2315 0.2315 0.9728 -7.6095 30.1654)" class="st1" width="18.51" height="18.51"/>
				
					<rect x="27.88" y="85.74" transform="matrix(0.9728 -0.2315 0.2315 0.9728 -20.9781 11.1741)" class="st1" width="18.51" height="18.51"/>
				
					<rect x="51.28" y="80.17" transform="matrix(0.9728 -0.2315 0.2315 0.9728 -19.0537 16.4401)" class="st1" width="18.51" height="18.51"/>
				
					<rect x="33.88" y="110.94" transform="matrix(0.9728 -0.2315 0.2315 0.9728 -26.6491 13.2466)" class="st1" width="18.51" height="18.51"/>
				
					<rect x="57.28" y="105.37" transform="matrix(0.9728 -0.2315 0.2315 0.9728 -24.7247 18.5125)" class="st1" width="18.51" height="18.51"/>
				
					<rect x="74.69" y="74.6" transform="matrix(0.9728 -0.2315 0.2315 0.9728 -17.1293 21.706)" class="st1" width="18.51" height="18.51"/>
				
					<rect x="98.09" y="69.03" transform="matrix(0.9728 -0.2315 0.2315 0.9728 -15.2049 26.9719)" class="st1" width="18.51" height="18.51"/>
				
					<rect x="80.68" y="99.8" transform="matrix(0.9728 -0.2315 0.2315 0.9728 -22.8003 23.7784)" class="st1" width="18.51" height="18.51"/>
				
					<rect x="104.09" y="94.24" transform="matrix(0.9728 -0.2315 0.2315 0.9728 -20.8759 29.0444)" class="st1" width="18.51" height="18.51"/>
				
					<rect x="121.49" y="63.46" transform="matrix(0.9728 -0.2315 0.2315 0.9728 -13.2805 32.2378)" class="st1" width="18.51" height="18.51"/>
			</g>
		</g>
	</g>
</g>
</svg>
