<?xml version="1.0" encoding="utf-8"?>
<!-- Generator: Adobe Illustrator 25.1.0, SVG Export Plug-In . SVG Version: 6.00 Build 0)  -->
<svg version="1.1" id="Layer_1" xmlns="http://www.w3.org/2000/svg" xmlns:xlink="http://www.w3.org/1999/xlink" x="0px" y="0px"
	 viewBox="0 0 151 125" style="enable-background:new 0 0 151 125;" xml:space="preserve">
<style type="text/css">
	.st0{fill:#E05248;}
	.st1{fill:#FFF5F5;}
</style>
<g id="kids_1_">
	<g>
		<g id="kid_8_">
			<g>
				<polygon class="st0" points="23.62,100.34 23.62,124.55 23.7,124.55 37.6,100.48 51.5,124.55 51.58,124.55 51.58,100.34 				"/>
				<path class="st0" d="M37.75,21.95c-8.79,0-16.46,4.76-20.59,11.83l8.28,7.2l-11.5,4.08c-0.01,0.24-0.02,0.48-0.02,0.73
					c0,13.17,10.67,23.84,23.84,23.84S61.6,58.96,61.6,45.79C61.59,32.62,50.92,21.95,37.75,21.95z"/>
				<path class="st0" d="M60.15,84.44c0,12.57-10.19,22.76-22.76,22.76S14.63,97.01,14.63,84.44s10.19-22.76,22.76-22.76
					S60.15,71.87,60.15,84.44"/>
				<polygon class="st0" points="32.68,38.59 70.88,89.11 4.64,95.37 				"/>
				<polygon class="st0" points="22.65,53.83 0,49.56 0.02,49.48 24.98,40.72 4.92,23.47 4.93,23.39 27.58,27.66 				"/>
				<path class="st1" d="M43.33,32.57c-3.59-1.2-7.31-0.14-9.16,2.37c0.01-0.63,0.1-1.26,0.3-1.87c1.23-3.68,5.73-5.49,10.05-4.05
					c4.32,1.45,6.82,5.6,5.59,9.28c-0.21,0.62-0.51,1.17-0.88,1.68C49.26,36.86,46.93,33.78,43.33,32.57"/>
			</g>
		</g>
		<g>
			<g>
				<polygon class="st0" points="122.71,95.55 122.71,124.55 122.61,124.55 105.96,95.71 89.31,124.55 89.21,124.55 89.21,95.55 
									"/>
				<path class="st0" d="M120.53,24.44l9.91-8.63c-4.95-8.48-14.14-14.18-24.67-14.18C90,1.64,77.22,14.43,77.22,30.2
					s12.79,28.56,28.56,28.56s28.56-12.79,28.56-28.56c0-0.29-0.01-0.58-0.02-0.87L120.53,24.44z"/>
				<path class="st0" d="M78.95,76.5c0,15.06,12.21,27.26,27.26,27.26s27.26-12.21,27.26-27.26s-12.21-27.26-27.26-27.26
					S78.95,61.45,78.95,76.5"/>
				<polygon class="st0" points="103.51,21.34 69.86,89.35 144.51,82.62 				"/>
				<polygon class="st0" points="123.87,39.83 151,34.71 150.98,34.62 121.07,24.13 145.11,3.47 145.09,3.37 117.96,8.49 				"/>
				<path class="st0" d="M99.09,14.37c4.31-1.44,8.75-0.17,10.98,2.83c-0.01-0.75-0.12-1.51-0.37-2.24
					c-1.48-4.41-6.87-6.58-12.04-4.85s-8.17,6.71-6.69,11.12c0.25,0.74,0.61,1.41,1.06,2.01C92,19.5,94.78,15.81,99.09,14.37"/>
			</g>
		</g>
		<g>
			<polygon class="st0" points="122.71,95.55 122.71,124.55 122.61,124.55 105.96,95.71 89.31,124.55 89.21,124.55 89.21,95.55 			
				"/>
			<path class="st0" d="M120.53,24.44l9.91-8.63c-4.95-8.48-14.14-14.18-24.67-14.18C90,1.64,77.22,14.43,77.22,30.2
				s12.79,28.56,28.56,28.56s28.56-12.79,28.56-28.56c0-0.29-0.01-0.58-0.02-0.87L120.53,24.44z"/>
			<path class="st0" d="M78.95,76.5c0,15.06,12.21,27.26,27.26,27.26s27.26-12.21,27.26-27.26s-12.21-27.26-27.26-27.26
				S78.95,61.45,78.95,76.5"/>
			<polygon class="st0" points="123.87,39.83 151,34.71 150.98,34.62 121.07,24.13 145.11,3.47 145.09,3.37 117.96,8.49 			"/>
			<path class="st1" d="M99.09,14.37c4.31-1.44,8.75-0.17,10.98,2.83c-0.01-0.75-0.12-1.51-0.37-2.24
				c-1.48-4.41-6.87-6.58-12.04-4.85s-8.17,6.71-6.69,11.12c0.25,0.74,0.61,1.41,1.06,2.01C92,19.5,94.78,15.81,99.09,14.37"/>
		</g>
	</g>
</g>
</svg>
