<?xml version="1.0" encoding="utf-8"?>
<!-- Generator: Adobe Illustrator 25.1.0, SVG Export Plug-In . SVG Version: 6.00 Build 0)  -->
<svg version="1.1" id="Layer_1" xmlns="http://www.w3.org/2000/svg" xmlns:xlink="http://www.w3.org/1999/xlink" x="0px" y="0px"
	 viewBox="0 0 245.47 203.95" style="enable-background:new 0 0 245.47 203.95;" xml:space="preserve">
<style type="text/css">
	.st0{fill:#0077B7;}
	.st1{fill:#FFFFFF;}
</style>
<g id="volwassenen_4_">
	<g id="volwassenen">
		<polygon class="st0" points="28.04,156.45 28.04,203.95 28.18,203.95 51.4,156.72 74.62,203.95 74.76,203.95 74.76,156.45 		"/>
		<path class="st0" d="M75,52.47l18.2-6.29C91.11,31.95,81.75,19.17,67.44,13.4c-21.43-8.64-45.81,1.73-54.45,23.16
			s1.73,45.81,23.16,54.45c21.43,8.64,45.81-1.73,54.45-23.16c0.16-0.4,0.3-0.8,0.45-1.2L75,52.47z"/>
		<path class="st0" d="M13.95,124.61c0,22.06,16.84,39.94,37.6,39.94c20.77,0,37.6-17.88,37.6-39.94c0-22.06-16.84-39.94-37.6-39.94
			C30.78,84.67,13.95,102.56,13.95,124.61"/>
		<polygon class="st0" points="0,133.12 106.25,123.35 54.96,64.73 		"/>
		<polygon class="st0" points="71.11,75.2 110.78,83.12 110.81,82.98 75.91,52.34 119.89,37.44 119.92,37.29 80.25,29.38 		"/>
		<path class="st1" d="M51.38,27.04c6.64,0.4,11.99,4.56,13.36,9.86c0.4-1.03,0.66-2.11,0.73-3.25c0.41-6.8-5.73-12.7-13.7-13.18
			C43.8,19.99,37,25.11,36.59,31.91c-0.07,1.14,0.06,2.25,0.34,3.32C38.93,30.13,44.74,26.64,51.38,27.04"/>
	</g>
	<g id="volwassenen_1_">
		<polygon class="st0" points="209.24,154.2 209.24,203.95 209.1,203.95 184.58,154.49 160.08,203.95 159.92,203.95 159.92,154.2 		
			"/>
		<path class="st0" d="M159.67,44.45l-19.21-6.64c2.2-15.02,12.09-28.51,27.19-34.6c22.62-9.12,48.36,1.83,57.48,24.45
			c9.12,22.62-1.82,48.36-24.45,57.48c-22.62,9.12-48.36-1.83-57.48-24.45c-0.17-0.42-0.32-0.84-0.47-1.26L159.67,44.45z"/>
		<path class="st0" d="M222.27,120.6c0,23.28-16.94,42.16-37.84,42.16c-20.9,0-37.84-18.88-37.84-42.16
			c0-23.28,16.94-42.16,37.84-42.16C205.32,78.44,222.27,97.32,222.27,120.6"/>
		<polygon class="st0" points="245.47,72.05 177.54,154.31 123.35,114.8 		"/>
		<polygon class="st0" points="163.78,68.45 121.91,76.8 121.88,76.65 158.72,44.31 112.29,28.58 112.26,28.43 154.13,20.08 		"/>
		<path class="st1" d="M184.6,17.61c-7.01,0.42-12.65,4.81-14.11,10.41c-0.43-1.08-0.7-2.23-0.77-3.43
			c-0.43-7.18,6.04-13.4,14.46-13.91c8.42-0.51,15.59,4.9,16.03,12.08c0.07,1.2-0.07,2.37-0.36,3.5
			C197.74,20.87,191.61,17.18,184.6,17.61"/>
	</g>
</g>
</svg>
