<?xml version="1.0" encoding="utf-8"?>
<!-- Generator: Adobe Illustrator 25.0.1, SVG Export Plug-In . SVG Version: 6.00 Build 0)  -->
<svg version="1.1" id="Layer_1" xmlns="http://www.w3.org/2000/svg" xmlns:xlink="http://www.w3.org/1999/xlink" x="0px" y="0px"
	 viewBox="0 0 151 132" style="enable-background:new 0 0 151 132;" xml:space="preserve">
<style type="text/css">
	.st0{fill:#FFFFFF;stroke:#000000;stroke-width:3;stroke-miterlimit:10;}
	.st1{fill:#FFFFFF;}
</style>
<g id="galerij">
	<path class="st0" d="M144.3,103L31.5,129.8c-3.2,0.8-6.5-1.2-7.2-4.4l-21-88.2C2.6,34,4.6,30.7,7.8,30L120.5,3.1
		c3.2-0.8,6.5,1.2,7.2,4.4l21,88.2C149.5,99,147.5,102.2,144.3,103z"/>
	<g>
		<g>
			<polygon points="72.3,63.2 41.7,126.7 128.2,106.1 			"/>
		</g>
	</g>
	<path class="st0" d="M128,125.3L13.3,109.3c-3.3-0.4-5.6-3.5-5.1-6.8l12.5-89.8c0.5-3.3,3.5-5.6,6.8-5.1l114.8,15.9
		c3.3,0.5,5.6,3.5,5.1,6.8l-12.5,89.8C134.4,123.4,131.3,125.7,128,125.3z"/>
	<g>
		<path d="M70.9,81l-11.1-5.8l9.4-6.2c-3.2-7.8-10.3-13.7-19.3-15C36.5,52.3,24.1,61.6,22.2,75s7.5,25.8,20.9,27.7
			c13.4,1.9,25.8-7.5,27.7-20.9C70.8,81.5,70.8,81.3,70.9,81z"/>
		<polygon points="47.7,73.7 10.4,108.4 74.2,117.3 		"/>
		<polygon points="60.8,88.7 84.4,87.6 84.4,87.5 60.2,75.1 83.1,60.3 83.1,60.2 59.5,61.4 		"/>
		<path class="st1" d="M42.7,64.2c3.8-0.7,7.5,0.9,9,3.7c0.1-0.6,0.1-1.3,0-1.9c-0.7-3.9-5.1-6.4-9.7-5.5c-4.6,0.9-7.7,4.7-7,8.7
			c0.1,0.7,0.3,1.3,0.7,1.8C36.1,67.7,38.9,64.9,42.7,64.2"/>
	</g>
	<g>
		<path d="M100.8,57.4l9.6-6.2l-9.1-4.7c2.2-7.4,8.1-13.4,16.2-15.3c12-2.9,24.1,4.5,27,16.5s-4.5,24.1-16.5,27s-24.1-4.5-27-16.5
			C100.9,57.9,100.9,57.7,100.8,57.4z"/>
		<polygon points="102.7,86.7 141.6,61.1 135.6,119.5 		"/>
		<polygon points="110.7,63.5 89.1,64.6 89.1,64.5 109.9,51 87.8,39.7 87.8,39.7 109.4,38.6 		"/>
		<path class="st1" d="M124.8,39.6c-3.5-0.3-6.7,1.5-7.8,4.2c-0.1-0.6-0.2-1.2-0.1-1.8c0.3-3.6,4-6.3,8.3-5.9
			c4.3,0.4,7.4,3.6,7.1,7.2c-0.1,0.6-0.2,1.2-0.4,1.7C131.2,42.2,128.4,39.9,124.8,39.6"/>
	</g>
</g>
</svg>
