<?xml version="1.0" encoding="utf-8"?>
<!-- Generator: Adobe Illustrator 25.1.0, SVG Export Plug-In . SVG Version: 6.00 Build 0)  -->
<svg version="1.1" xmlns="http://www.w3.org/2000/svg" xmlns:xlink="http://www.w3.org/1999/xlink" x="0px" y="0px"
	 viewBox="0 0 1920 687" style="enable-background:new 0 0 1920 687;" xml:space="preserve">
<style type="text/css">
	.st0{fill:#FFB136;}
	.st1{fill:#48A4FF;}
	.st2{fill:#FF7B7B;}
	.st3{fill:#FFFFFF;}
</style>
<g id="Layer_1">
	<g>
		<path class="st0" d="M853.86,129.76h94.95v27.91h-63.61v39.58h58.57v27.91h-58.57v64.75h-31.35V129.76z"/>
		<path class="st0" d="M968.72,182.16c6.1-2.75,13.35-4.92,21.74-6.52c8.39-1.6,17.16-2.4,26.31-2.4c7.93,0,14.57,0.95,19.91,2.86
			c5.34,1.91,9.57,4.62,12.7,8.12c3.12,3.51,5.34,7.7,6.63,12.58c1.29,4.88,1.95,10.38,1.95,16.47c0,6.71-0.23,13.46-0.69,20.25
			c-0.46,6.79-0.73,13.46-0.8,20.02c-0.08,6.56,0.11,12.93,0.57,19.1c0.46,6.18,1.6,12.01,3.43,17.5h-24.25l-4.81-15.79h-1.14
			c-3.05,4.73-7.29,8.81-12.7,12.24c-5.42,3.43-12.39,5.15-20.94,5.15c-5.34,0-10.15-0.8-14.41-2.4c-4.27-1.6-7.93-3.89-10.98-6.86
			c-3.05-2.97-5.42-6.48-7.09-10.53c-1.68-4.04-2.52-8.58-2.52-13.61c0-7.01,1.56-12.93,4.69-17.73c3.13-4.8,7.63-8.69,13.5-11.67
			c5.87-2.97,12.89-5.03,21.05-6.18c8.16-1.14,17.27-1.49,27.34-1.03c1.07-8.54,0.46-14.68-1.83-18.42
			c-2.29-3.74-7.4-5.61-15.33-5.61c-5.95,0-12.24,0.61-18.88,1.83c-6.63,1.22-12.09,2.82-16.36,4.81L968.72,182.16z M1006.47,267.27
			c5.95,0,10.67-1.33,14.19-4c3.51-2.67,6.1-5.53,7.78-8.58v-14.87c-4.73-0.46-9.27-0.53-13.61-0.23c-4.35,0.31-8.2,0.99-11.55,2.06
			c-3.36,1.07-6.03,2.6-8.01,4.58c-1.98,1.98-2.97,4.5-2.97,7.55c0,4.27,1.26,7.59,3.78,9.95
			C998.58,266.09,1002.05,267.27,1006.47,267.27z"/>
		<path class="st0" d="M1147.87,289.92v-62.24c0-10.52-0.99-18-2.97-22.42c-1.98-4.42-6.1-6.64-12.36-6.64
			c-5.19,0-9.38,1.41-12.58,4.23c-3.2,2.82-5.65,6.45-7.32,10.87v76.19h-29.75v-114.4H1106l3.43,15.1h0.92
			c3.51-4.88,7.97-9.15,13.38-12.81c5.41-3.66,12.39-5.49,20.94-5.49c7.32,0,13.31,1.49,17.96,4.46c4.65,2.97,8.27,7.97,10.87,14.99
			c3.51-5.95,8.01-10.68,13.5-14.19c5.49-3.51,12.13-5.26,19.91-5.26c6.41,0,11.86,0.77,16.36,2.29c4.5,1.53,8.16,4.16,10.98,7.89
			c2.82,3.74,4.92,8.73,6.29,14.99c1.37,6.26,2.06,14.19,2.06,23.8v68.64h-29.74v-64.29c0-9-0.96-15.75-2.86-20.25
			c-1.91-4.5-6.14-6.75-12.7-6.75c-5.34,0-9.57,1.45-12.7,4.35c-3.13,2.9-5.46,6.86-6.98,11.9v75.05H1147.87z"/>
		<path class="st0" d="M1265.25,143.26c0-4.42,1.64-8.2,4.92-11.33c3.28-3.12,7.82-4.69,13.61-4.69c5.79,0,10.49,1.57,14.07,4.69
			c3.58,3.13,5.38,6.9,5.38,11.33c0,4.43-1.79,8.12-5.38,11.1c-3.59,2.97-8.28,4.46-14.07,4.46c-5.8,0-10.34-1.49-13.61-4.46
			C1266.88,151.38,1265.25,147.69,1265.25,143.26z M1269.59,175.52h29.75v114.4h-29.75V175.52z"/>
		<path class="st0" d="M1359.29,251.49c0,5.34,0.69,9.23,2.06,11.67c1.37,2.44,3.58,3.66,6.64,3.66c1.83,0,3.62-0.15,5.38-0.46
			c1.75-0.3,3.93-0.99,6.52-2.06l3.2,23.34c-2.44,1.22-6.18,2.44-11.21,3.66c-5.03,1.22-10.22,1.83-15.56,1.83
			c-8.69,0-15.33-2.02-19.91-6.06c-4.58-4.04-6.86-10.71-6.86-20.02V129.76h29.75V251.49z"/>
		<path class="st0" d="M1394.06,143.26c0-4.42,1.64-8.2,4.92-11.33c3.28-3.12,7.82-4.69,13.61-4.69c5.79,0,10.49,1.57,14.07,4.69
			c3.58,3.13,5.38,6.9,5.38,11.33c0,4.43-1.79,8.12-5.38,11.1c-3.59,2.97-8.28,4.46-14.07,4.46c-5.8,0-10.34-1.49-13.61-4.46
			C1395.7,151.38,1394.06,147.69,1394.06,143.26z M1398.41,175.52h29.75v114.4h-29.75V175.52z"/>
		<path class="st0" d="M1548.96,280.09c-4.58,3.66-10.79,6.75-18.65,9.27c-7.86,2.52-16.21,3.77-25.05,3.77
			c-18.46,0-31.96-5.38-40.5-16.13c-8.54-10.75-12.81-25.51-12.81-44.27c0-20.14,4.8-35.24,14.42-45.3
			c9.61-10.07,23.11-15.1,40.5-15.1c5.79,0,11.44,0.77,16.93,2.29c5.49,1.53,10.37,4.04,14.64,7.55c4.27,3.51,7.7,8.24,10.3,14.19
			c2.59,5.95,3.89,13.35,3.89,22.19c0,3.2-0.19,6.64-0.57,10.3c-0.38,3.66-0.95,7.48-1.71,11.44h-68.42
			c0.45,9.61,2.92,16.86,7.41,21.74c4.48,4.88,11.74,7.32,21.78,7.32c6.23,0,11.82-0.95,16.76-2.86c4.94-1.91,8.7-3.85,11.29-5.83
			L1548.96,280.09z M1506.5,196.11c-7.74,0-13.47,2.33-17.19,6.98c-3.72,4.65-5.95,10.87-6.71,18.65h42.33
			c0.61-8.24-0.64-14.56-3.75-18.99C1518.07,198.33,1513.18,196.11,1506.5,196.11z"/>
		<path class="st0" d="M978.1,481.43l3.43-31.8h-1.37l-9.84,25.63l-34.09,59.72h-10.07l-35.92-59.95l-10.07-25.4h-1.14l4.58,31.58
			v83.29h-29.74V404.33h28.6l42.79,73.22l7.55,18.3h0.92l6.86-18.76l40.5-72.76h28.37v160.16H978.1V481.43z"/>
		<path class="st0" d="M1030.73,507.29c0-19.37,4.73-34.28,14.19-44.73c9.46-10.45,22.73-15.67,39.81-15.67
			c9.15,0,17.08,1.45,23.8,4.35c6.71,2.9,12.28,6.98,16.7,12.24c4.42,5.26,7.74,11.63,9.95,19.11c2.21,7.48,3.32,15.71,3.32,24.71
			c0,19.37-4.69,34.29-14.07,44.73c-9.38,10.45-22.62,15.67-39.7,15.67c-9.15,0-17.09-1.45-23.8-4.35
			c-6.71-2.9-12.32-6.98-16.82-12.24c-4.5-5.26-7.86-11.63-10.07-19.11C1031.83,524.53,1030.73,516.29,1030.73,507.29z
			 M1061.39,507.29c0,5.03,0.46,9.69,1.37,13.96c0.92,4.27,2.29,8.01,4.12,11.21c1.83,3.2,4.23,5.68,7.21,7.44
			c2.97,1.76,6.52,2.63,10.64,2.63c7.78,0,13.57-2.82,17.39-8.46c3.81-5.64,5.72-14.57,5.72-26.77c0-10.53-1.76-19.03-5.26-25.51
			c-3.51-6.48-9.46-9.72-17.85-9.72c-7.32,0-13.04,2.75-17.16,8.24C1063.44,485.78,1061.39,494.78,1061.39,507.29z"/>
		<path class="st0" d="M1189.74,526.05c0,5.34,0.69,9.23,2.06,11.67c1.37,2.44,3.58,3.66,6.64,3.66c1.83,0,3.62-0.15,5.38-0.46
			c1.75-0.3,3.93-0.99,6.52-2.06l3.2,23.34c-2.44,1.22-6.18,2.44-11.21,3.66c-5.03,1.22-10.22,1.83-15.56,1.83
			c-8.69,0-15.33-2.02-19.91-6.06s-6.86-10.71-6.86-20.02V404.33h29.75V526.05z"/>
		<path class="st0" d="M1317.87,554.65c-4.58,3.66-10.79,6.75-18.65,9.27c-7.86,2.52-16.21,3.78-25.05,3.78
			c-18.46,0-31.96-5.38-40.5-16.13c-8.54-10.75-12.81-25.51-12.81-44.27c0-20.13,4.8-35.24,14.42-45.3
			c9.61-10.07,23.11-15.1,40.5-15.1c5.79,0,11.44,0.77,16.93,2.29c5.49,1.53,10.37,4.04,14.64,7.55c4.27,3.51,7.7,8.24,10.3,14.19
			c2.59,5.95,3.89,13.35,3.89,22.19c0,3.2-0.19,6.64-0.57,10.3c-0.38,3.66-0.95,7.48-1.71,11.44h-68.42
			c0.45,9.61,2.92,16.86,7.41,21.74c4.48,4.88,11.74,7.32,21.78,7.32c6.23,0,11.82-0.95,16.76-2.86c4.94-1.91,8.7-3.85,11.29-5.83
			L1317.87,554.65z M1275.41,470.68c-7.74,0-13.47,2.33-17.19,6.98c-3.72,4.66-5.95,10.87-6.71,18.65h42.33
			c0.61-8.24-0.64-14.57-3.75-18.99C1286.98,472.89,1282.09,470.68,1275.41,470.68z"/>
		<path class="st0" d="M1412.6,564.49v-64.98c0-9.3-1.34-16.02-4-20.13c-2.67-4.12-7.21-6.18-13.61-6.18
			c-5.65,0-10.41,1.64-14.3,4.92c-3.89,3.28-6.67,7.36-8.35,12.24v74.13h-29.75v-114.4h23.57l3.43,15.1h0.92
			c3.51-4.88,8.16-9.15,13.96-12.81c5.8-3.66,13.27-5.49,22.42-5.49c5.64,0,10.68,0.77,15.1,2.29c4.42,1.53,8.16,4.04,11.21,7.55
			c3.05,3.51,5.34,8.28,6.86,14.3c1.52,6.03,2.29,13.46,2.29,22.31v71.16H1412.6z"/>
		<path class="st0" d="M1467.28,404.33h29.75v54.91h0.92c3.2-3.66,7.32-6.56,12.36-8.69c5.03-2.13,10.6-3.2,16.7-3.2
			c13.73,0,24.21,4.69,31.46,14.07c7.24,9.38,10.87,23.68,10.87,42.9c0,20.59-5.07,36.23-15.21,46.91
			c-10.15,10.68-24.06,16.02-41.76,16.02c-9.76,0-18.69-0.8-26.77-2.4c-8.09-1.6-14.19-3.39-18.3-5.38V404.33z M1518.3,472.51
			c-5.49,0-9.95,1.41-13.38,4.23c-3.43,2.82-6.06,6.9-7.89,12.24v49.88c2.44,1.22,5.07,2.06,7.89,2.52
			c2.82,0.46,5.83,0.69,9.04,0.69c8.08,0,14.22-2.94,18.42-8.81c4.19-5.87,6.29-15.21,6.29-28.03
			C1538.67,483.42,1531.88,472.51,1518.3,472.51z"/>
		<path class="st0" d="M1681.44,554.65c-4.58,3.66-10.79,6.75-18.65,9.27c-7.86,2.52-16.21,3.78-25.05,3.78
			c-18.46,0-31.96-5.38-40.5-16.13c-8.54-10.75-12.81-25.51-12.81-44.27c0-20.13,4.8-35.24,14.42-45.3
			c9.61-10.07,23.11-15.1,40.5-15.1c5.79,0,11.44,0.77,16.93,2.29c5.49,1.53,10.37,4.04,14.64,7.55c4.27,3.51,7.7,8.24,10.3,14.19
			c2.59,5.95,3.89,13.35,3.89,22.19c0,3.2-0.19,6.64-0.57,10.3c-0.38,3.66-0.95,7.48-1.71,11.44h-68.42
			c0.45,9.61,2.92,16.86,7.41,21.74c4.48,4.88,11.74,7.32,21.78,7.32c6.23,0,11.82-0.95,16.76-2.86c4.94-1.91,8.7-3.85,11.29-5.83
			L1681.44,554.65z M1638.98,470.68c-7.74,0-13.47,2.33-17.19,6.98c-3.72,4.66-5.95,10.87-6.71,18.65h42.33
			c0.61-8.24-0.64-14.57-3.75-18.99C1650.55,472.89,1645.66,470.68,1638.98,470.68z"/>
		<path class="st0" d="M1796.53,554.65c-4.58,3.66-10.79,6.75-18.65,9.27c-7.86,2.52-16.21,3.78-25.05,3.78
			c-18.46,0-31.96-5.38-40.5-16.13c-8.54-10.75-12.81-25.51-12.81-44.27c0-20.13,4.8-35.24,14.42-45.3
			c9.61-10.07,23.11-15.1,40.5-15.1c5.79,0,11.44,0.77,16.93,2.29c5.49,1.53,10.37,4.04,14.64,7.55c4.27,3.51,7.7,8.24,10.3,14.19
			c2.59,5.95,3.89,13.35,3.89,22.19c0,3.2-0.19,6.64-0.57,10.3c-0.38,3.66-0.95,7.48-1.71,11.44h-68.42
			c0.45,9.61,2.92,16.86,7.41,21.74c4.48,4.88,11.74,7.32,21.78,7.32c6.23,0,11.82-0.95,16.76-2.86c4.94-1.91,8.7-3.85,11.29-5.83
			L1796.53,554.65z M1754.07,470.68c-7.74,0-13.47,2.33-17.19,6.98c-3.72,4.66-5.95,10.87-6.71,18.65h42.33
			c0.61-8.24-0.64-14.57-3.75-18.99C1765.64,472.89,1760.75,470.68,1754.07,470.68z"/>
		<path class="st0" d="M1859,517.13h-8.01v47.36h-29.75V404.33h29.75v94.5l6.86-3.2l26.08-45.53h32.72l-27.46,43.47l-11.67,8.69
			l12.58,8.92l30.89,53.31h-34.09L1859,517.13z"/>
	</g>
</g>
<g id="Layer_4">
</g>
<g id="Layer_3">
</g>
<g id="Layer_2">
	<g id="Birdlogo">
		<polygon class="st0" points="-0.11,0.38 -0.11,680.98 2.24,680.98 392.93,4.28 783.62,680.98 786.03,680.98 786.03,0.38 		"/>
		<polygon class="st0" points="213.34,573.49 213.34,680.93 213.71,680.93 275.38,574.1 337.06,680.93 337.44,680.93 337.44,573.49 
					"/>
		<polygon class="st0" points="494.43,607.56 494.43,680.45 494.68,680.45 536.52,607.98 578.37,680.45 578.63,680.45 
			578.62,607.56 		"/>
		<circle class="st1" cx="275.78" cy="488.93" r="106.09"/>
		<polygon class="st1" points="276.63,273.75 130.8,526.34 422.46,526.34 		"/>
		<circle class="st2" cx="535.9" cy="559.7" r="68.52"/>
		<polygon class="st2" points="535.35,420.72 629.54,583.85 441.17,583.85 		"/>
		<g>
			<path class="st1" d="M341.81,303.79l49.12-10.95c0.78-36.12-16.02-71.92-47.97-93.97c-50.52-34.86-119.73-22.17-154.6,28.35
				c-34.86,50.52-22.17,119.73,28.35,154.6c50.22,34.66,118.9,22.3,153.96-27.47L341.81,303.79z"/>
			<polygon class="st0" points="316.5,361.16 414.71,404.75 414.86,404.41 342.24,304.7 464.9,291.66 465.05,291.31 366.85,247.73 
							"/>
			<path class="st3" d="M293.4,224.85c16.98,4.9,28.42,18.79,28.89,33.34c1.64-2.43,2.95-5.09,3.79-8
				c5.02-17.38-7.45-36.24-27.84-42.13c-20.39-5.88-40.99,3.44-46,20.82c-0.84,2.91-1.15,5.86-1.05,8.79
				C259.34,225.62,276.43,219.95,293.4,224.85z"/>
		</g>
		<g>
			<path class="st2" d="M536.99,371.55c-25.57,0-48,13.38-60.72,33.52l22.17,23.06l-33.18,13.48c-0.01,0.58-0.04,1.15-0.04,1.73
				c0,39.64,32.14,71.78,71.78,71.78c39.64,0,71.78-32.14,71.78-71.78C608.77,403.68,576.63,371.55,536.99,371.55z"/>
			<polygon class="st0" points="491.52,467.52 423.33,454.66 423.37,454.43 498.55,428.07 438.13,376.14 438.18,375.9 
				506.37,388.76 			"/>
			<path class="st3" d="M553.8,403.54c-10.82-3.62-22-0.44-27.59,7.12c0.02-1.89,0.3-3.79,0.92-5.64
				c3.71-11.08,17.25-16.53,30.25-12.18c13,4.35,20.53,16.86,16.82,27.94c-0.62,1.86-1.54,3.54-2.66,5.06
				C571.62,416.44,564.62,407.16,553.8,403.54z"/>
		</g>
	</g>
</g>
</svg>
