<?xml version="1.0" encoding="utf-8"?>
<!-- Generator: Adobe Illustrator 24.3.0, SVG Export Plug-In . SVG Version: 6.00 Build 0)  -->
<svg version="1.1" id="Layer_1" xmlns="http://www.w3.org/2000/svg" xmlns:xlink="http://www.w3.org/1999/xlink" x="0px" y="0px"
	 viewBox="0 0 577.19 201.99" style="enable-background:new 0 0 577.19 201.99;" xml:space="preserve">
<style type="text/css">
	.st0{fill:#010101;}
	.st1{fill:#FCB039;}
	.st2{fill:#0378B8;}
	.st3{fill:#FFFFFF;}
	.st4{fill:#F1615A;}
</style>
<g>
	<path class="st0" d="M256.08,155.96l-8.85-19.47h-1.13l3.38,19.47v43.61h-28.97V86.93h24.94l31.38,44.9l8.53,19.15h1.13
		l-3.38-19.15v-44.9h28.97v112.64h-24.94L256.08,155.96z"/>
	<path class="st0" d="M323.66,86.93h72.09v27.36h-41.52v15.61h37.49v27.36h-37.49v14.96h42.32v27.36h-72.9V86.93z"/>
	<path class="st0" d="M403.32,120.08c0-26.39,18.18-35.56,40.87-35.56c13.03,0,26.55,2.57,35.08,7.72l-9.66,25.75
		c-4.34-3.38-14.8-6.92-24.78-6.92c-6.12,0-10.94,1.13-10.94,6.11c0,14,48.44,9.98,48.44,46.83c0,28.48-18.67,37.98-43.93,37.98
		c-16.09,0-31.54-4.51-37.33-7.56l9.82-25.59c4.51,2.41,15.77,6.6,25.75,6.6c12.07,0,15.13-3.06,15.13-7.56
		C451.76,153.87,403.32,158.38,403.32,120.08z"/>
	<path class="st0" d="M577.92,114.29h-30.9v85.29h-30.58v-85.29h-30.9V86.93h92.37V114.29z"/>
</g>
<g>
	<path class="st0" d="M318.63,55.72l1.24-10.64h-0.44l-3.05,7.94l-7.15,12.67h-3.86l-7.65-12.74l-3.11-7.88h-0.44l1.62,10.58v15.81
		h-11.2V28.41h11.7l9.58,17.29l2.05,5.11h0.44l1.8-5.23l8.96-17.17h11.32v43.07h-11.82V55.72z"/>
	<path class="st0" d="M349.43,39.79c10.45,0,15.62,6.58,15.62,16.3c0,10.34-5.79,16.3-15.62,16.3c-10.45,0-15.61-6.58-15.61-16.3
		C333.81,45.76,339.6,39.79,349.43,39.79z M349.43,63.17c2.8,0,4.11-1.97,4.11-7.08c0-4.98-1.18-7.08-4.11-7.08
		c-2.3,0-4.11,1.72-4.11,7.08C345.32,60.64,346.63,63.17,349.43,63.17z"/>
	<path class="st0" d="M379.6,58.37c0,2.89,0.44,4.18,1.87,4.18c0.87,0,1.37-0.12,2.55-0.62l1.31,8.61
		c-1.31,0.68-4.79,1.85-8.83,1.85c-5.6,0-8.09-2.09-8.09-7.08V28.41h11.2V58.37z"/>
	<path class="st0" d="M413.94,68.58c-2.49,1.97-7.71,3.81-13.06,3.81c-10.51,0-15.18-5.97-15.18-16.3c0-11.07,6.1-16.3,16.11-16.3
		c6.91,0,13.19,3.63,13.19,12.86c0,2.09-0.31,4.43-1,7.08h-17.42c0.5,3.14,2.36,4.06,5.97,4.06c3.86,0,6.59-1.35,7.84-2.09
		L413.94,68.58z M396.96,53.57h7.78c0.06-0.43,0.06-0.8,0.06-1.23c0-2.09-0.87-3.94-3.3-3.94C397.89,48.4,397.15,51.29,396.96,53.57
		z"/>
	<path class="st0" d="M436.47,71.47V54.06c0-3.51-1.06-4.43-3.05-4.43c-1.68,0-3.3,1.23-3.86,3.01v18.83h-11.2V40.71h9.39l0.93,4.31
		h0.25c1.74-2.65,4.48-5.23,9.83-5.23c5.66,0,8.9,2.95,8.9,12v19.69H436.47z"/>
	<path class="st0" d="M452.14,28.41h11.2v14.21h0.25c1.55-1.6,4.23-2.65,7.34-2.65c6.78,0,10.95,5.04,10.95,15.01
		c0,11.32-6.22,17.41-15.8,17.41c-5.91,0-11.2-0.92-13.94-1.78V28.41z M463.34,51.42V62.8c1.06,0.37,1.87,0.37,2.92,0.37
		c3.11,0,4.11-2.34,4.11-7.63c0-5.11-1.43-6.34-3.23-6.34C465.33,49.2,464.09,49.94,463.34,51.42z"/>
	<path class="st0" d="M512.37,68.58c-2.49,1.97-7.71,3.81-13.06,3.81c-10.51,0-15.18-5.97-15.18-16.3c0-11.07,6.1-16.3,16.11-16.3
		c6.91,0,13.19,3.63,13.19,12.86c0,2.09-0.31,4.43-1,7.08h-17.42c0.5,3.14,2.36,4.06,5.97,4.06c3.86,0,6.59-1.35,7.84-2.09
		L512.37,68.58z M495.38,53.57h7.78c0.06-0.43,0.06-0.8,0.06-1.23c0-2.09-0.87-3.94-3.3-3.94C496.32,48.4,495.57,51.29,495.38,53.57
		z"/>
	<path class="st0" d="M543.91,68.58c-2.49,1.97-7.71,3.81-13.06,3.81c-10.51,0-15.18-5.97-15.18-16.3c0-11.07,6.1-16.3,16.11-16.3
		c6.91,0,13.19,3.63,13.19,12.86c0,2.09-0.31,4.43-1,7.08h-17.42c0.5,3.14,2.36,4.06,5.97,4.06c3.86,0,6.59-1.35,7.84-2.09
		L543.91,68.58z M526.93,53.57h7.78c0.06-0.43,0.06-0.8,0.06-1.23c0-2.09-0.87-3.94-3.3-3.94C527.86,48.4,527.11,51.29,526.93,53.57
		z"/>
	<path class="st0" d="M561.08,59.85h-1.55v11.63h-11.2V28.41h11.2v24.55l1.24-0.86l4.54-11.38h11.94l-5.35,11.07l-3.86,2.65
		l3.79,2.28l6.35,14.77h-12.38L561.08,59.85z"/>
</g>
<g>
	<path class="st1" d="M99.96,199.57C44.93,199.8,0.17,166.1,0,124.31s199.13-42.62,199.3-0.82
		C199.48,165.28,155,199.34,99.96,199.57z"/>
	<ellipse class="st0" cx="97.29" cy="121.99" rx="78.46" ry="22.05"/>
	<g id="birds_7_">
		<g>
			<path class="st2" d="M114.13,34.25l8.42-14.88c-8.97-8.4-21.89-12.22-34.69-8.98C67.87,15.44,55.76,35.73,60.8,55.73
				s25.35,32.11,45.34,27.06c19.99-5.05,32.11-25.35,27.06-45.34c-0.02-0.07-0.04-0.14-0.06-0.21L114.13,34.25z"/>
			<path class="st2" d="M60.05,103.24c-0.51,19.68,15.03,36.04,34.7,36.55c19.68,0.51,36.04-15.03,36.55-34.7
				c0.51-19.68-15.03-36.04-34.7-36.55C76.92,68.02,60.56,83.56,60.05,103.24"/>
			<polygon class="st2" points="97.83,31.9 46.66,115.46 144.6,118 			"/>
			<polygon class="st1" points="123.02,53 155.77,37.83 155.72,37.72 114.44,34 138.3,0.12 138.25,0 105.5,15.17 			"/>
			<path class="st3" d="M83.46,28.66c5-3.2,11.04-3.02,14.82,0.08c-0.25-0.95-0.63-1.87-1.18-2.73c-3.28-5.12-10.81-6.14-16.81-2.29
				c-6,3.85-8.21,11.12-4.92,16.23c0.55,0.86,1.23,1.59,1.99,2.21C76.11,37.44,78.46,31.87,83.46,28.66"/>
			<g>
				<path class="st4" d="M136.59,64.28c-7.56-0.2-14.28,3.69-18.05,9.64l6.61,6.39l-9.8,5.07c0.2,11.02,9.05,20.03,20.17,20.32
					c11.44,0.3,20.95-8.73,21.25-20.17C157.06,74.08,148.03,64.57,136.59,64.28z"/>
				<path class="st4" d="M154.64,119.07c-0.28,10.92-9.36,19.54-20.28,19.26s-19.54-9.36-19.26-20.28s9.36-19.54,20.28-19.26
					S154.92,108.15,154.64,119.07"/>
				<polygon class="st4" points="135.75,78.45 161.71,126.22 107.36,124.81 				"/>
				<polygon class="st1" points="122.75,91.63 103.18,87.41 103.19,87.34 125.08,80.3 108.03,64.86 108.05,64.79 127.63,69.01 				
					"/>
				<path class="st3" d="M141.2,73.63c-3.1-1.13-6.34-0.29-8.01,1.85c0.02-0.55,0.11-1.09,0.31-1.62c1.15-3.17,5.1-4.64,8.82-3.29
					c3.72,1.35,5.8,5.02,4.64,8.19c-0.19,0.53-0.47,1.01-0.81,1.44C146.25,77.49,144.3,74.76,141.2,73.63"/>
			</g>
		</g>
	</g>
	<g>
		<g>
			<path class="st4" d="M57.5,62.99c7.67-0.2,14.49,3.74,18.32,9.79l-6.7,6.48l9.95,5.14c-0.2,11.18-9.18,20.32-20.47,20.62
				c-11.61,0.3-21.26-8.86-21.56-20.47C36.73,72.94,45.89,63.29,57.5,62.99z"/>
			<path class="st4" d="M39.18,118.59c0.29,11.08,9.5,19.83,20.58,19.54c11.08-0.29,19.83-9.5,19.54-20.58
				c-0.29-11.08-9.5-19.83-20.58-19.54C47.64,98.29,38.9,107.51,39.18,118.59"/>
			<polygon class="st4" points="58.35,77.37 32.01,125.85 87.16,124.42 			"/>
			<path class="st3" d="M52.78,73.76c3.35-1.22,6.88-0.31,8.68,2c-0.02-0.59-0.12-1.18-0.33-1.76c-1.25-3.43-5.53-5.03-9.56-3.56
				c-4.03,1.47-6.28,5.44-5.03,8.87c0.21,0.58,0.51,1.09,0.87,1.56C47.31,77.94,49.42,74.98,52.78,73.76"/>
		</g>
		<polygon class="st1" points="71.54,90.74 91.4,86.46 91.39,86.39 69.18,79.25 86.47,63.58 86.46,63.51 66.59,67.8 		"/>
	</g>
</g>
</svg>
