<?xml version="1.0" encoding="utf-8"?>
<!-- Generator: Adobe Illustrator 25.0.1, SVG Export Plug-In . SVG Version: 6.00 Build 0)  -->
<svg version="1.1" id="Layer_1" xmlns="http://www.w3.org/2000/svg" xmlns:xlink="http://www.w3.org/1999/xlink" x="0px" y="0px"
	 viewBox="0 0 200 200" style="enable-background:new 0 0 200 200;" xml:space="preserve">
<style type="text/css">
	.st0{fill:#FFFFFF;}
</style>
<g>
	<polygon points="196.8,74.9 185.1,91.1 92.2,37 20.1,115.4 3.2,101.5 88,8.5 	"/>
	<rect x="32.4" y="34.4" transform="matrix(0.9893 -0.1459 0.1459 0.9893 -7.1644 7.0088)" width="23.6" height="36"/>
	<polygon points="91.3,135.3 122,130.7 129.1,179 183.2,171 171.7,93 93.9,48.2 32.3,113.6 43.8,191.5 98.4,183.5 	"/>
	
		<rect x="85" y="85.2" transform="matrix(0.9893 -0.1459 0.1459 0.9893 -12.4555 14.3884)" class="st0" width="13.8" height="13.8"/>
	
		<rect x="87.5" y="102.3" transform="matrix(0.9893 -0.1459 0.1459 0.9893 -14.9175 14.9387)" class="st0" width="13.8" height="13.8"/>
	
		<rect x="102" y="82.7" transform="matrix(0.9893 -0.1459 0.1459 0.9893 -11.9069 16.8493)" class="st0" width="13.8" height="13.8"/>
	
		<rect x="104.5" y="99.8" transform="matrix(0.9893 -0.1459 0.1459 0.9893 -14.3675 17.3993)" class="st0" width="13.8" height="13.8"/>
</g>
</svg>
