<?xml version="1.0" encoding="utf-8"?>
<!-- Generator: Adobe Illustrator 25.0.1, SVG Export Plug-In . SVG Version: 6.00 Build 0)  -->
<svg version="1.1" id="Layer_1" xmlns="http://www.w3.org/2000/svg" xmlns:xlink="http://www.w3.org/1999/xlink" x="0px" y="0px"
	 viewBox="0 0 161 141" style="enable-background:new 0 0 161 141;" xml:space="preserve">
<style type="text/css">
	.st0{fill:#FFFFFF;stroke:#000000;stroke-width:2;stroke-miterlimit:10;}
	.st1{enable-background:new    ;}
	.st2{fill:none;stroke:#000000;stroke-width:3;stroke-miterlimit:10;}
</style>
<g id="krant">
	<path d="M156.2,110.6L31.1,140.4c-3.2,0.8-6.5-1.2-7.2-4.4L0.5,37.8c-0.8-3.2,1.2-6.5,4.4-7.2L130.1,0.8c3.2-0.8,6.5,1.2,7.2,4.4
		l23.4,98.1C161.5,106.6,159.5,109.8,156.2,110.6z"/>
	<path class="st0" d="M135.7,127H7c-3.3,0-6-2.7-6-6V20.1c0-3.3,2.7-6,6-6h128.6c3.3,0,6,2.7,6,6V121C141.7,124.3,139,127,135.7,127
		z"/>
	<path id="foto_krant" d="M56.1,65.9H20c-3.3,0-6-2.7-6-6v-25c0-3.3,2.7-6,6-6h36.1c3.3,0,6,2.7,6,6v25
		C62.1,63.2,59.4,65.9,56.1,65.9z"/>
	<g>
		<g class="st1">
			<path d="M78.7,47.1l-1.5-3.4H77l0.6,3.4v7.5h-5V35.2h4.3l5.4,7.7l1.5,3.3h0.2l-0.6-3.3v-7.7h5v19.4h-4.3L78.7,47.1z"/>
			<path d="M96.6,43.9l0.3,3.7h0.2l0.3-3.7l2.8-8.6h3.9l2.6,8.7l0.3,3.7h0.2l0.3-3.7l1.4-8.6h5.5l-5.3,19.4h-3.9l-3-8.6l-0.4-3.1
				h-0.2l-0.4,3.1l-2.9,8.5h-4.1l-5.1-19.4H95L96.6,43.9z"/>
			<path d="M114.8,40.9c0-4.6,3.1-6.1,7-6.1c2.2,0,4.6,0.4,6.1,1.3l-1.7,4.4c-0.8-0.6-2.6-1.2-4.3-1.2c-1.1,0-1.9,0.2-1.9,1.1
				c0,2.4,8.4,1.7,8.4,8.1c0,4.9-3.2,6.5-7.6,6.5c-2.8,0-5.4-0.8-6.4-1.3l1.7-4.4c0.8,0.4,2.7,1.1,4.4,1.1c2.1,0,2.6-0.5,2.6-1.3
				C123.2,46.7,114.8,47.5,114.8,40.9z"/>
		</g>
	</g>
	<g id="lijntjes">
		<g>
			<line class="st2" x1="19.5" y1="84.4" x2="115.8" y2="84.4"/>
			<line class="st2" x1="19.5" y1="96.5" x2="115.8" y2="96.5"/>
			<line class="st2" x1="19.5" y1="109.4" x2="115.8" y2="109.4"/>
		</g>
	</g>
</g>
</svg>
