<?xml version="1.0" encoding="utf-8"?>
<!-- Generator: Adobe Illustrator 24.3.0, SVG Export Plug-In . SVG Version: 6.00 Build 0)  -->
<svg version="1.1" xmlns="http://www.w3.org/2000/svg" xmlns:xlink="http://www.w3.org/1999/xlink" x="0px" y="0px"
	 viewBox="0 0 679.15 540.58" style="enable-background:new 0 0 679.15 540.58;" xml:space="preserve">
<style type="text/css">
	.st0{fill:#82CFCD;}
	.st1{fill:#82CFCD;stroke:#FFFFFF;stroke-width:5;stroke-miterlimit:10;}
	.st2{fill:#F37A7C;}
	.st3{fill:#FFFFFF;}
	.st4{fill:#FCB039;}
	.st5{fill:#629DD4;}
	.st6{fill:#F1635B;}
</style>
<g id="Layer_2">
	<rect x="294.36" y="258.69" class="st0" width="372.35" height="261.53"/>
	<polygon class="st1" points="480.53,150.89 294.36,262.69 666.7,262.69 	"/>
	<g>
		<polygon class="st2" points="472.51,259.83 380.26,419.6 564.76,419.6 		"/>
		<path class="st2" d="M470.91,211.67c25.05,0,47.02,13.11,59.47,32.83l-21.71,22.58l32.5,13.2c0.01,0.56,0.04,1.12,0.04,1.69
			c0,38.83-31.47,70.3-70.3,70.3c-38.83,0-70.3-31.48-70.3-70.3C400.61,243.15,432.08,211.67,470.91,211.67"/>
		<path class="st3" d="M454.45,243.01c10.6-3.55,21.55-0.43,27.02,6.98c-0.02-1.85-0.29-3.71-0.9-5.53
			c-3.63-10.85-16.9-16.19-29.63-11.93c-12.73,4.26-20.1,16.52-16.47,27.37c0.61,1.82,1.51,3.46,2.61,4.95
			C436.99,255.64,443.85,246.56,454.45,243.01"/>
		<polygon class="st4" points="512.59,442.82 512.59,514.22 512.35,514.22 471.36,443.23 430.38,514.22 430.13,514.22 
			430.13,442.82 		"/>
		<path class="st2" d="M404.87,395.95c0,37.06,30.04,67.11,67.11,67.11c37.06,0,67.11-30.04,67.11-67.11
			c0-37.06-30.04-67.11-67.11-67.11C434.91,328.84,404.87,358.89,404.87,395.95"/>
		<polygon class="st4" points="515.44,305.67 582.23,293.08 582.19,292.85 508.55,267.03 567.73,216.17 567.69,215.94 500.9,228.53 
					"/>
	</g>
	<polygon class="st1" points="475.68,389.46 666.7,520.22 666.7,258.69 	"/>
	<polygon class="st1" points="481.25,389.46 290.23,520.22 290.23,258.69 	"/>
	<polygon class="st1" points="480.53,394.46 294.36,521.52 666.7,521.52 	"/>
</g>
<g id="Layer_1">
	<g>
		<g>
			<path class="st5" d="M256.52,117.3l48.46-26.72c-10.33-38.36-39.11-70.96-79.65-84.37C161.25-14.98,92.12,19.79,70.92,83.87
				c-21.2,64.08,13.57,133.22,77.65,154.41c63.7,21.07,132.37-13.17,154.01-76.53L256.52,117.3z"/>
			<polygon class="st4" points="247.52,185.67 364.63,201.35 364.68,200.95 257.25,118.13 382.68,66.5 382.74,66.08 265.63,50.41 
							"/>
			<path class="st3" d="M181.05,48.94c19.43-0.07,35.8,11.06,40.79,26.26c0.98-3.07,1.54-6.28,1.53-9.61
				c-0.07-19.89-19.05-35.95-42.39-35.86c-23.34,0.09-42.2,16.28-42.12,36.18c0.01,3.33,0.6,6.54,1.6,9.6
				C145.34,60.27,161.62,49.02,181.05,48.94"/>
			<polygon class="st4" points="107.46,420.14 105.46,538.27 105.87,538.28 175.67,421.97 241.49,540.58 241.91,540.58 
				243.91,422.45 			"/>
			<path class="st5" d="M61.05,326.36c-1.09,64.42,50.25,117.53,114.67,118.62c64.42,1.09,117.53-50.25,118.62-114.67
				s-50.25-117.53-114.67-118.62S62.14,261.94,61.05,326.36"/>
		</g>
	</g>
	<polygon class="st5" points="108.18,370.08 13.19,159.49 338.92,358.72 	"/>
	<g>
		<path class="st6" d="M100.09,270.48c-5.73,0.02-10.86-1.92-15.73-4.71c-9.16-5.24-16.99-12.16-24.3-19.68
			c-22.26-22.89-39.34-49.18-51.38-78.74c-3.54-8.68-6.2-17.63-7.93-26.89c-2.14-11.43,0.33-21.48,7.73-30.45
			c5.54-6.72,11.77-12.62,19.33-16.99c2.35-1.36,4.93-2.4,7.51-3.28c3.7-1.26,7.17-0.46,9.63,2.58c2.54,3.14,4.97,6.43,6.9,9.96
			c5.54,10.16,9.88,20.84,12.58,32.13c0.4,1.66,0.67,3.37,0.83,5.07c0.46,4.68-1.29,8.06-5.62,9.96c-2.85,1.25-5.95,1.93-8.97,2.78
			c-2.09,0.59-4.21,1.05-6.32,1.52c-1.38,0.31-1.97,1.06-1.54,2.45c1.33,4.36,2.41,8.82,4.07,13.05
			c6.72,17.07,16.93,31.81,30.25,44.39c2.02,1.91,4.35,3.5,6.54,5.23c0.94,0.74,1.77,0.62,2.49-0.33c1.62-2.14,3.17-4.34,4.87-6.41
			c1.81-2.2,3.57-4.49,5.69-6.35c3.37-2.95,7.31-3.32,11.09-0.85c3.47,2.28,6.86,4.76,9.98,7.5c7.75,6.8,14.8,14.29,20.72,22.76
			c1.5,2.14,2.77,4.47,3.91,6.82c1.82,3.76,1.46,7.48-1.49,10.48c-2.58,2.63-5.37,5.16-8.44,7.18c-8.45,5.58-17.73,9.14-27.81,10.52
			c-0.45,0.06-0.91,0.12-1.36,0.15C102.26,270.4,101.17,270.44,100.09,270.48z"/>
	</g>
</g>
</svg>
