<?xml version="1.0" encoding="utf-8"?>
<!-- Generator: Adobe Illustrator 25.1.0, SVG Export Plug-In . SVG Version: 6.00 Build 0)  -->
<svg version="1.1" id="Layer_1" xmlns="http://www.w3.org/2000/svg" xmlns:xlink="http://www.w3.org/1999/xlink" x="0px" y="0px"
	 viewBox="0 0 531 460" style="enable-background:new 0 0 531 460;" xml:space="preserve">
<style type="text/css">
	.st0{fill:#FFB136;}
	.st1{fill:#E05248;}
	.st2{fill:#0077B7;}
	.st3{fill:#FF6057;}
	.st4{fill:#FFFFFF;}
</style>
<g id="Birdlogo">
	<polygon class="st0" points="144.28,387.26 144.28,459.89 144.53,459.89 186.22,387.68 227.92,459.89 228.17,459.89 228.17,387.26 
			"/>
	<polygon class="st0" points="334.29,410.3 334.29,459.57 334.46,459.57 362.75,410.58 391.03,459.57 391.2,459.57 391.2,410.3 	"/>
	<polygon class="st1" points="0,-0.13 0,459.92 1.59,459.92 265.68,2.5 529.77,459.92 531.4,459.92 531.4,-0.13 	"/>
	<path class="st2" d="M225,192l23.12-24.95c-13.43-20.39-36.52-33.86-62.77-33.86c-41.49,0-75.13,33.64-75.13,75.13
		c0,41.49,33.63,75.13,75.13,75.13c41.24,0,74.71-33.24,75.11-74.39L225,192z"/>
	<circle class="st2" cx="186.49" cy="330.11" r="71.71"/>
	<polygon class="st2" points="187.07,184.65 88.49,355.39 285.64,355.39 	"/>
	<polygon class="st0" points="232.95,233.64 304.32,220.18 304.27,219.93 225.58,192.34 288.82,138 288.77,137.74 217.4,151.2 	"/>
	<path class="st3" d="M363.06,250.76c-17.29,0-32.45,9.05-41.04,22.66L337,289l-22.43,9.11c-0.01,0.39-0.03,0.78-0.03,1.17
		c0,26.8,21.72,48.52,48.52,48.52c26.8,0,48.52-21.72,48.52-48.52C411.58,272.48,389.86,250.76,363.06,250.76z"/>
	<circle class="st3" cx="362.32" cy="377.94" r="46.31"/>
	<polygon class="st3" points="361.95,284 425.62,394.27 298.29,394.27 	"/>
	<polygon class="st0" points="332.32,315.63 286.23,306.94 286.26,306.79 337.08,288.97 296.24,253.87 296.27,253.7 342.36,262.39 	
		"/>
	<path class="st4" d="M167.76,166.67c11.33-3.79,23.03-0.46,28.88,7.45c-0.02-1.98-0.31-3.96-0.96-5.9
		c-3.88-11.6-18.06-17.3-31.66-12.75c-13.6,4.56-21.48,17.65-17.6,29.24c0.65,1.94,1.61,3.7,2.79,5.29
		C149.1,180.18,156.44,170.47,167.76,166.67z"/>
	<path class="st4" d="M374.42,272.39c-7.31-2.45-14.87-0.29-18.65,4.81c0.01-1.28,0.2-2.56,0.62-3.81
		c2.51-7.49,11.66-11.17,20.45-8.23c8.79,2.94,13.88,11.4,11.37,18.89c-0.42,1.25-1.04,2.39-1.8,3.42
		C386.47,281.11,381.74,274.84,374.42,272.39z"/>
</g>
</svg>
