<?xml version="1.0" encoding="utf-8"?>
<!-- Generator: Adobe Illustrator 24.3.0, SVG Export Plug-In . SVG Version: 6.00 Build 0)  -->
<svg version="1.1" xmlns="http://www.w3.org/2000/svg" xmlns:xlink="http://www.w3.org/1999/xlink" x="0px" y="0px"
	 viewBox="0 0 1445 612" style="enable-background:new 0 0 1445 612;" xml:space="preserve">
<style type="text/css">
	.st0{fill:#92D3FF;}
	.st1{fill:none;}
	.st2{fill:#F2635B;}
	.st3{fill:#FFB136;}
	.st4{fill:#4DA500;}
	.st5{fill:#FFFFFF;}
	.st6{opacity:0.5;fill:#FFFFFF;}
	.st7{fill:#7EFC70;}
	.st8{fill:#969696;}
	.st9{fill:#707070;}
	.st10{fill:#D1D1D1;}
	.st11{fill:#3A3C42;}
	.st12{fill:#6D91B5;}
	.st13{fill:#456A89;}
	.st14{fill:#AAAAAA;}
	.st15{display:none;fill:#AAAAAA;}
	.st16{fill:#7C7C7C;}
	.st17{fill:#C7C1B3;}
	.st18{fill:#565656;}
	.st19{fill:none;stroke:#C7C1B3;stroke-miterlimit:10;}
	.st20{fill:#727272;}
	.st21{fill:#004F00;}
	.st22{fill:#353535;}
	.st23{fill:none;stroke:#727272;stroke-miterlimit:10;stroke-dasharray:2.0972,6.2917;}
	.st24{fill:#99D1FF;}
	.st25{fill:#FFD8BD;}
	.st26{fill:#E4B17A;}
	.st27{fill:#3E4860;}
	.st28{fill:#B3D6FF;stroke:#A08160;stroke-width:2;stroke-miterlimit:10;}
	.st29{fill:none;stroke:#A08160;stroke-width:2;stroke-miterlimit:10;}
	.st30{fill:none;stroke:#FFD8BD;stroke-miterlimit:10;}
	.st31{fill:#605548;stroke:#FFD8BD;stroke-miterlimit:10;}
	.st32{fill:#FF5586;}
	.st33{fill:#BA4200;}
	.st34{fill:#CECECE;}
	.st35{fill:#775747;}
	.st36{fill:#677991;stroke:#FFF6DC;stroke-miterlimit:10;}
	.st37{fill:#4C3D38;}
	.st38{fill:#4BE092;}
	.st39{fill:#634200;}
	.st40{fill:#967E50;}
	.st41{fill:#27FF88;}
	.st42{fill:#BA9861;}
	.st43{fill:#605548;}
	.st44{fill:#0077B7;}
	.st45{fill:#FF6057;}
	.st46{fill:#870000;}
	.st47{fill:#AA7100;}
	.st48{fill:#AF8B4A;}
	.st49{fill:#919191;}
	.st50{fill:#4200C1;}
</style>
<g id="Layer_38">
	<ellipse class="st0" cx="707.34" cy="306.96" rx="599.4" ry="300.96"/>
</g>
<g id="Layer_37">
	<g>
		<path id="SVGID_x5F_1_x5F_" class="st1" d="M241.18,194.07C366,42,1040,35,1176.65,194.07"/>
		<text>		<textPath  xlink:href="#SVGID_x5F_1_x5F_" startOffset="29.5044%">
<tspan  class="st2" style="font-family:'PTSans-Bold'; font-size:60px;">Familie Molenbeek</tspan>		</textPath>
</text>
	</g>
	<polygon class="st2" points="522.93,119.63 522.93,440.07 524.03,440.07 707.98,121.46 891.93,440.07 893.07,440.07 893.07,119.63 
			"/>
</g>
<g id="Layer_36">
	<g id="birds_6_">
		<polygon class="st3" points="506.35,179.59 491.69,180.21 491.69,180.26 506.64,188.25 492.43,197.48 492.43,197.54 
			507.09,196.91 		"/>
		<g>
			<path class="st4" d="M552.94,184.86l5.32-4.59c-2.4-4.42-6.97-7.61-12.44-8.08c-8.55-0.73-16.05,5.46-16.76,13.81
				c-0.71,8.35,5.64,15.71,14.19,16.44c8.55,0.73,16.05-5.46,16.76-13.81c0-0.03,0-0.06,0.01-0.09L552.94,184.86z"/>
			<path class="st4" d="M514.98,172.26c-7.92,1.14-13.4,8.63-12.24,16.73c1.16,8.11,8.53,13.75,16.45,12.62
				c7.92-1.14,13.4-8.63,12.23-16.73C530.27,176.77,522.9,171.12,514.98,172.26"/>
			<polygon class="st4" points="552.35,189.16 519.21,160.15 516.58,214.86 			"/>
			<polygon class="st3" points="553.91,193.24 568.84,191.78 568.84,191.73 553.1,184.8 567.06,174.97 567.05,174.92 552.12,176.37 
							"/>
			<path class="st5" d="M541.63,178.62c2.4-0.56,4.75,0.31,5.82,2.01c0.03-0.4,0-0.8-0.1-1.2c-0.6-2.4-3.42-3.8-6.3-3.12
				c-2.88,0.68-4.73,3.18-4.13,5.58c0.1,0.4,0.27,0.77,0.48,1.11C537.55,181.01,539.23,179.19,541.63,178.62"/>
		</g>
	</g>
</g>
<g id="Layer_35">
	<path class="st6" d="M486.74,250.72c0-22.07-30.99-39.97-69.21-39.97c-6.6,0-12.98,0.55-19.03,1.54
		c-10.86-8.22-27.12-13.93-45.73-15.38c-12.55-7.35-29.99-11.92-49.29-11.92c-35.8,0-65.25,15.7-68.84,35.82
		c-24.02,6.57-40.63,20.7-40.63,37.07c0,22.64,31.79,41,71,41c14.67,0,28.31-2.57,39.63-6.98C317.6,301.69,338.02,308,361,308
		c23.94,0,45.1-6.85,57.96-17.33C456.52,290.23,486.74,272.52,486.74,250.72z"/>
</g>
<g id="Layer_34">
	<path class="st6" d="M976,283.1c0-29.25-51.44-52.96-114.9-52.96c-10.96,0-21.56,0.72-31.6,2.04
		c-18.04-10.9-45.03-18.47-75.92-20.38c-20.84-9.75-49.8-15.79-81.83-15.79c-59.44,0-108.33,20.8-114.29,47.47
		C517.59,252.18,490,270.9,490,292.59c0,30.01,52.77,54.33,117.87,54.33c24.36,0,47-3.41,65.79-9.24
		C695.2,350.64,729.1,359,767.25,359c39.75,0,74.87-9.08,96.22-22.97C925.83,335.45,976,311.98,976,283.1z"/>
</g>
<g id="Layer_33">
</g>
<g id="Layer_32">
	<path class="st6" d="M1178.74,288.72c0-22.07-30.99-39.97-69.21-39.97c-6.6,0-12.98,0.55-19.03,1.54
		c-10.86-8.22-27.12-13.93-45.73-15.38c-12.55-7.35-29.99-11.92-49.29-11.92c-35.8,0-65.25,15.7-68.84,35.82
		c-24.02,6.57-40.63,20.7-40.63,37.07c0,22.64,31.79,41,71,41c14.67,0,28.31-2.57,39.63-6.98c12.98,9.78,33.39,16.09,56.37,16.09
		c23.94,0,45.1-6.85,57.96-17.33C1148.52,328.23,1178.74,310.52,1178.74,288.72z"/>
</g>
<g id="Layer_31">
</g>
<g id="Layer_30">
</g>
<g id="Layer_29">
	<ellipse class="st7" cx="722.7" cy="508.5" rx="722.64" ry="103.5"/>
</g>
<g id="Layer_28">
	<ellipse class="st8" cx="704" cy="469.5" rx="622" ry="67.5"/>
</g>
<g id="Layer_39">
	<g id="Layer_42">
		<ellipse class="st9" cx="926.5" cy="443" rx="101.5" ry="29"/>
	</g>
</g>
<g id="Layer_27">
	<g id="Flat_Weststation">
		<rect x="894.66" y="150.59" class="st10" width="51.84" height="50.19"/>
		<rect x="844.24" y="170.98" class="st11" width="121.35" height="266.13"/>
		<rect x="878.83" y="155.82" class="st11" width="24.38" height="40.26"/>
		<polygon class="st11" points="1008.33,415.98 965.53,437.11 965.53,242.09 1008.33,242.09 		"/>
		<rect x="848.05" y="206.02" class="st11" width="115.36" height="253.18"/>
		<polygon class="st11" points="1004.04,439.1 963.35,459.2 963.35,273.67 1004.04,273.67 		"/>
		<polygon class="st10" points="890.85,395.25 842.81,398.94 842.81,137 890.85,137 		"/>
		<polygon class="st10" points="960,398.94 910.83,394.76 910.83,166.8 960,162.62 		"/>
		<polygon class="st10" points="1011.66,384.18 959.82,398.94 959.82,162.62 1011.66,177.39 		"/>
		<g id="windows">
			<g id="upper_windows">
				<g>
					<polygon class="st12" points="926.05,187.67 910.23,189.28 910.23,177.78 926.05,175.95 					"/>
					<polygon class="st12" points="926.05,211.1 910.23,212.29 910.23,200.79 926.05,199.39 					"/>
					<polygon class="st12" points="926.05,234.54 910.23,235.29 910.23,223.79 926.05,222.82 					"/>
					<polygon class="st12" points="926.05,257.98 910.23,258.3 910.23,246.8 926.05,246.26 					"/>
					<polygon class="st12" points="926.05,281.41 910.23,281.3 910.23,269.8 926.05,269.69 					"/>
					<polygon class="st12" points="926.05,304.85 910.23,304.31 910.23,292.81 926.05,293.13 					"/>
					<polygon class="st12" points="926.05,328.28 910.23,327.31 910.23,315.81 926.05,316.56 					"/>
					<polygon class="st12" points="926.05,351.72 910.23,350.32 910.23,338.82 926.05,340 					"/>
					<polygon class="st12" points="926.05,375.15 910.23,373.32 910.23,361.82 926.05,363.44 					"/>
				</g>
				<g>
					<polygon class="st12" points="877.06,163.48 891.02,164.64 891.02,156.36 877.06,155.04 					"/>
					<polygon class="st12" points="877.06,180.36 891.02,181.22 891.02,172.93 877.06,171.92 					"/>
					<polygon class="st12" points="877.06,197.25 891.02,197.79 891.02,189.51 877.06,188.81 					"/>
					<polygon class="st12" points="877.06,214.13 891.02,214.37 891.02,206.08 877.06,205.69 					"/>
					<polygon class="st12" points="877.06,231.02 891.02,230.94 891.02,222.65 877.06,222.58 					"/>
					<polygon class="st12" points="877.06,247.9 891.02,247.52 891.02,239.23 877.06,239.46 					"/>
					<polygon class="st12" points="877.06,264.79 891.02,264.09 891.02,255.8 877.06,256.35 					"/>
					<polygon class="st12" points="877.06,281.67 891.02,280.66 891.02,272.38 877.06,273.23 					"/>
					<polygon class="st12" points="877.06,298.56 891.02,297.24 891.02,288.95 877.06,290.11 					"/>
					<g>
						<polygon class="st12" points="877.06,314.72 890.87,313.29 890.85,304.92 877.06,306.36 						"/>
						<polygon class="st12" points="877.06,331.49 890.9,330.08 890.89,321.67 877.06,323.09 						"/>
						<polygon class="st12" points="877.06,348.35 890.94,346.96 890.92,338.51 877.06,339.91 						"/>
						<polygon class="st12" points="877.06,365.3 890.98,363.93 890.96,355.43 877.06,356.82 						"/>
						<polygon class="st12" points="877.06,382.34 891.01,380.98 891,372.44 877.06,373.81 						"/>
					</g>
				</g>
				<g>
					<polygon class="st12" points="857.08,161.77 845.67,161.82 845.67,153.26 857.08,153.2 					"/>
					<polygon class="st12" points="857.08,178.9 845.67,178.94 845.67,170.38 857.08,170.33 					"/>
					<polygon class="st12" points="857.08,196.03 845.67,196.06 845.67,187.5 857.08,187.47 					"/>
					<rect x="845.67" y="204.61" class="st12" width="11.42" height="8.56"/>
					<rect x="845.67" y="221.73" class="st12" width="11.42" height="8.56"/>
					
						<rect x="847.09" y="237.43" transform="matrix(1.602033e-03 -1 1 1.602033e-03 606.8707 1094.1207)" class="st12" width="8.56" height="11.42"/>
					<polygon class="st12" points="857.08,264.56 845.67,264.53 845.67,255.97 857.08,256 					"/>
					<polygon class="st12" points="857.08,281.69 845.67,281.65 845.67,273.09 857.08,273.13 					"/>
					<polygon class="st12" points="857.08,298.83 845.67,298.76 845.67,290.21 857.08,290.26 					"/>
				</g>
				<g>
					<polygon class="st12" points="857.08,316 845.67,316.06 845.67,307.5 857.08,307.44 					"/>
					<polygon class="st12" points="857.08,333.14 845.67,333.18 845.67,324.62 857.08,324.57 					"/>
					<polygon class="st12" points="857.08,350.27 845.67,350.29 845.67,341.74 857.08,341.7 					"/>
					<rect x="845.67" y="358.84" class="st12" width="11.42" height="8.56"/>
					<rect x="845.67" y="375.97" class="st12" width="11.42" height="8.56"/>
				</g>
				<g>
					<rect x="862.31" y="178.04" class="st12" width="6.66" height="12.38"/>
					<rect x="862.31" y="202.8" class="st12" width="6.66" height="12.38"/>
					<rect x="862.31" y="227.56" class="st12" width="6.66" height="12.38"/>
					<rect x="862.31" y="252.32" class="st12" width="6.66" height="12.38"/>
					<rect x="862.31" y="277.07" class="st12" width="6.66" height="12.38"/>
					<rect x="862.31" y="301.83" class="st12" width="6.66" height="12.38"/>
					<rect x="862.31" y="326.59" class="st12" width="6.66" height="12.38"/>
					<rect x="862.31" y="351.35" class="st12" width="6.66" height="12.38"/>
					<rect x="862.31" y="376.11" class="st12" width="6.66" height="12.38"/>
				</g>
				<g>
					<polygon class="st12" points="941.74,186.63 935.08,187.17 935.08,174.79 941.74,174.18 					"/>
					<polygon class="st12" points="924.99,168.51 915.69,168.89 915.69,160.28 924.99,159.85 					"/>
					<polygon class="st12" points="941.74,211.53 935.08,211.93 935.08,199.55 941.74,199.08 					"/>
					<polygon class="st12" points="941.74,236.43 935.08,236.68 935.08,224.31 941.74,223.98 					"/>
					<polygon class="st12" points="941.74,261.33 935.08,261.44 935.08,249.06 941.74,248.88 					"/>
					<polygon class="st12" points="941.74,286.24 935.08,286.2 935.08,273.82 941.74,273.79 					"/>
					<polygon class="st12" points="941.74,311.14 935.08,310.96 935.08,298.58 941.74,298.69 					"/>
					<polygon class="st12" points="941.74,336.04 935.08,335.72 935.08,323.34 941.74,323.59 					"/>
					<polygon class="st12" points="941.74,360.94 935.08,360.47 935.08,348.1 941.74,348.49 					"/>
					<polygon class="st12" points="941.74,385.84 935.08,385.23 935.08,372.85 941.74,373.39 					"/>
				</g>
				<g>
					<polygon class="st12" points="953.16,185.65 946.5,186.2 946.5,173.69 953.16,173.08 					"/>
					<polygon class="st12" points="953.16,210.81 946.5,211.21 946.5,198.7 953.16,198.23 					"/>
					<polygon class="st12" points="953.16,235.97 946.5,236.22 946.5,223.72 953.16,223.39 					"/>
					<polygon class="st12" points="953.16,261.13 946.5,261.24 946.5,248.73 953.16,248.55 					"/>
					<polygon class="st12" points="953.16,286.29 946.5,286.25 946.5,273.74 953.16,273.71 					"/>
					<polygon class="st12" points="953.16,311.44 946.5,311.26 946.5,298.76 953.16,298.86 					"/>
					<polygon class="st12" points="953.16,336.6 946.5,336.28 946.5,323.77 953.16,324.02 					"/>
					<polygon class="st12" points="953.16,361.76 946.5,361.29 946.5,348.78 953.16,349.18 					"/>
					<polygon class="st12" points="953.16,386.92 946.5,386.3 946.5,373.79 953.16,374.34 					"/>
					<g>
						<polygon class="st12" points="975.14,188.01 981.68,189.46 981.68,177.41 975.14,175.76 						"/>
						<polygon class="st12" points="975.14,212.49 981.68,213.56 981.68,201.51 975.14,200.25 						"/>
						<polygon class="st12" points="975.14,236.98 981.68,237.66 981.68,225.61 975.14,224.74 						"/>
						<polygon class="st12" points="975.14,261.47 981.68,261.76 981.68,249.71 975.14,249.22 						"/>
						<polygon class="st12" points="975.14,285.95 981.68,285.86 981.68,273.81 975.14,273.71 						"/>
						<polygon class="st12" points="975.14,310.44 981.68,309.96 981.68,297.91 975.14,298.2 						"/>
						<polygon class="st12" points="975.14,334.93 981.68,334.05 981.68,322.01 975.14,322.68 						"/>
						<polygon class="st12" points="975.14,359.41 981.68,358.15 981.68,346.1 975.14,347.17 						"/>
						<polygon class="st12" points="975.14,383.9 981.68,382.25 981.68,370.2 975.14,371.66 						"/>
						<polygon class="st12" points="963.61,185.39 970.38,186.9 970.38,174.51 963.61,172.8 						"/>
						<polygon class="st12" points="963.61,210.57 970.38,211.68 970.38,199.29 963.61,197.98 						"/>
						<polygon class="st12" points="963.61,235.75 970.38,236.46 970.38,224.07 963.61,223.16 						"/>
						<polygon class="st12" points="963.61,260.93 970.38,261.24 970.38,248.85 963.61,248.34 						"/>
						<polygon class="st12" points="963.61,286.11 970.38,286.01 970.38,273.62 963.61,273.52 						"/>
						<polygon class="st12" points="963.61,311.29 970.38,310.79 970.38,298.4 963.61,298.7 						"/>
						<polygon class="st12" points="963.61,336.48 970.38,335.57 970.38,323.18 963.61,323.89 						"/>
						<polygon class="st12" points="963.61,361.66 970.38,360.35 970.38,347.96 963.61,349.07 						"/>
						<polygon class="st12" points="963.61,386.84 970.38,385.12 970.38,372.73 963.61,374.25 						"/>
					</g>
					<g>
						<polygon class="st12" points="998.4,193.24 1004.6,194.61 1004.6,183.24 998.4,181.69 						"/>
						<polygon class="st12" points="998.4,216.33 1004.6,217.33 1004.6,205.97 998.4,204.78 						"/>
						<polygon class="st12" points="998.4,239.42 1004.6,240.06 1004.6,228.7 998.4,227.87 						"/>
						<polygon class="st12" points="998.4,262.51 1004.6,262.79 1004.6,251.42 998.4,250.97 						"/>
						<polygon class="st12" points="998.4,285.61 1004.6,285.51 1004.6,274.15 998.4,274.06 						"/>
						<polygon class="st12" points="998.4,308.7 1004.6,308.24 1004.6,296.88 998.4,297.15 						"/>
						<polygon class="st12" points="998.4,331.79 1004.6,330.97 1004.6,319.6 998.4,320.24 						"/>
						<polygon class="st12" points="998.4,354.88 1004.6,353.69 1004.6,342.33 998.4,343.34 						"/>
						<polygon class="st12" points="998.4,377.98 1004.6,376.42 1004.6,365.06 998.4,366.43 						"/>
						<polygon class="st12" points="987.49,190.77 993.9,192.19 993.9,180.51 987.49,178.89 						"/>
						<polygon class="st12" points="987.49,214.51 993.9,215.56 993.9,203.88 987.49,202.64 						"/>
						<polygon class="st12" points="987.49,238.26 993.9,238.93 993.9,227.24 987.49,226.39 						"/>
						<polygon class="st12" points="987.49,262.01 993.9,262.29 993.9,250.61 987.49,250.13 						"/>
						<polygon class="st12" points="987.49,285.76 993.9,285.66 993.9,273.98 987.49,273.88 						"/>
						<polygon class="st12" points="987.49,309.5 993.9,309.03 993.9,297.34 987.49,297.63 						"/>
						<polygon class="st12" points="987.49,333.25 993.9,332.39 993.9,320.71 987.49,321.38 						"/>
						<polygon class="st12" points="987.49,357 993.9,355.76 993.9,344.08 987.49,345.12 						"/>
						<polygon class="st12" points="987.49,380.74 993.9,379.13 993.9,367.44 987.49,368.87 						"/>
					</g>
				</g>
			</g>
			<g id="lower_windows">
				<rect x="862.42" y="401.76" class="st13" width="6.66" height="12.38"/>
				<rect x="874.31" y="401.76" class="st13" width="6.66" height="12.38"/>
				<rect x="885.72" y="401.76" class="st13" width="6.66" height="12.38"/>
				<rect x="851.48" y="401.76" class="st13" width="6.66" height="12.38"/>
				<rect x="908.88" y="401.76" class="st13" width="6.66" height="12.38"/>
				<rect x="920.77" y="401.76" class="st13" width="6.66" height="12.38"/>
				<rect x="942.86" y="401.76" class="st13" width="6.66" height="12.38"/>
				<rect x="932.19" y="401.76" class="st13" width="6.66" height="12.38"/>
				<rect x="897.94" y="401.76" class="st13" width="6.66" height="12.38"/>
				<rect x="862.42" y="420.04" class="st13" width="6.66" height="12.38"/>
				<rect x="874.31" y="420.04" class="st13" width="6.66" height="12.38"/>
				<rect x="885.72" y="420.04" class="st13" width="6.66" height="12.38"/>
				<rect x="851.48" y="420.04" class="st13" width="6.66" height="12.38"/>
				<rect x="908.88" y="420.04" class="st13" width="6.66" height="12.38"/>
				<rect x="920.77" y="420.04" class="st13" width="6.66" height="12.38"/>
				<rect x="942.86" y="420.04" class="st13" width="6.66" height="12.38"/>
				<rect x="932.19" y="420.04" class="st13" width="6.66" height="12.38"/>
				<rect x="897.94" y="420.04" class="st13" width="6.66" height="12.38"/>
				<g>
					<polygon class="st13" points="976.39,409.24 971.4,410.87 971.25,399.31 976.26,397.9 					"/>
					<polygon class="st13" points="984.85,406.49 980.18,408.01 980.07,396.82 984.76,395.5 					"/>
					<polygon class="st13" points="992.47,404.01 988.08,405.44 988.01,394.59 992.42,393.34 					"/>
					<polygon class="st13" points="968.09,411.94 962.77,413.67 962.59,401.76 967.93,400.25 					"/>
					<polygon class="st13" points="1006.6,399.41 1002.71,400.67 1002.69,390.44 1006.6,389.34 					"/>
					<polygon class="st13" points="1000.13,401.51 996.02,402.85 995.98,392.34 1000.11,391.17 					"/>
					<polygon class="st13" points="976.57,425.83 971.61,427.76 971.47,416.34 976.44,414.62 					"/>
					<polygon class="st13" points="984.97,422.56 980.33,424.36 980.23,413.31 984.89,411.7 					"/>
					<polygon class="st13" points="992.55,419.61 988.18,421.31 988.11,410.58 992.49,409.06 					"/>
					<polygon class="st13" points="968.32,429.04 963.05,431.09 962.86,419.32 968.16,417.49 					"/>
					<polygon class="st13" points="1006.6,414.14 1002.73,415.64 1002.71,405.52 1006.6,404.18 					"/>
					<polygon class="st13" points="1000.17,416.64 996.08,418.23 996.04,407.84 1000.15,406.41 					"/>
				</g>
			</g>
		</g>
		<polygon class="st14" points="860.85,168.23 841.8,168.23 841.8,164.97 859.63,164.97 		"/>
		<polygon class="st14" points="860.85,185.75 841.8,185.75 841.8,182.49 859.63,182.49 		"/>
		<polygon class="st14" points="860.85,201.74 841.8,201.74 841.8,198.49 859.63,198.49 		"/>
		<polygon class="st14" points="860.85,219.26 841.8,219.26 841.8,216.01 859.63,216.01 		"/>
		<polygon class="st14" points="860.85,236.02 841.8,236.02 841.8,232.77 859.63,232.77 		"/>
		<polygon class="st14" points="860.85,253.54 841.8,253.54 841.8,250.29 859.63,250.29 		"/>
		<polygon class="st14" points="860.85,269.54 841.8,269.54 841.8,266.28 859.63,266.28 		"/>
		<polygon class="st14" points="860.85,287.05 841.8,287.05 841.8,283.8 859.63,283.8 		"/>
		<polygon class="st14" points="860.85,305.34 841.8,305.34 841.8,302.08 859.63,302.08 		"/>
		<polygon class="st14" points="860.85,322.85 841.8,322.85 841.8,319.6 859.63,319.6 		"/>
		<polygon class="st14" points="860.85,338.85 841.8,338.85 841.8,335.6 859.63,335.6 		"/>
		<polygon class="st14" points="860.85,356.37 841.8,356.37 841.8,353.11 859.63,353.11 		"/>
		<polygon class="st14" points="860.85,373.13 841.8,373.13 841.8,369.87 859.63,369.87 		"/>
		<polygon class="st14" points="860.85,390.65 841.8,390.65 841.8,387.39 859.63,387.39 		"/>
		<polygon class="st15" points="1005.1,358.33 998.31,359.28 999.88,356 1006.6,354.91 		"/>
		<polygon class="st15" points="970.95,389.22 964.32,391.01 965.48,387.55 972.02,385.65 		"/>
		<polygon class="st15" points="1005.42,222.88 998.64,221.53 1001.11,218.15 1007.85,219.32 		"/>
	</g>
</g>
<g id="Layer_39_copy">
	<g id="Layer_43">
		<ellipse class="st16" cx="481.5" cy="449.5" rx="95.5" ry="29.5"/>
	</g>
</g>
<g id="Layer_26">
	<g id="kerk">
		<rect x="395.4" y="230.31" class="st17" width="30.05" height="223.69"/>
		<rect x="399.41" y="224.96" class="st17" width="20.7" height="25.37"/>
		<rect x="425.45" y="345.16" class="st17" width="104.84" height="108.84"/>
		<rect x="530.28" y="399.25" class="st17" width="47.41" height="54.75"/>
		<rect x="452.16" y="329.02" class="st17" width="47.41" height="41.51"/>
		<polygon class="st17" points="476.53,319.78 455.37,329.6 497.69,329.6 		"/>
		<polygon class="st17" points="409.76,214.42 399.41,225.63 420.11,225.63 		"/>
		<rect x="407.17" y="289.36" class="st18" width="5.26" height="50.83"/>
		<rect x="462.84" y="337.15" class="st18" width="27.38" height="72.12"/>
		
			<rect x="461.84" y="337.48" transform="matrix(-1.836970e-16 1 -1 -1.836970e-16 844.3906 -106.6648)" class="st18" width="27.38" height="62.77"/>
		<line class="st19" x1="471.19" y1="335.14" x2="471.19" y2="413.27"/>
		<line class="st19" x1="461.84" y1="335.14" x2="461.84" y2="413.27"/>
		<line class="st19" x1="490.55" y1="337.15" x2="490.55" y2="415.27"/>
		<line class="st19" x1="498.56" y1="337.15" x2="498.56" y2="415.27"/>
		<line class="st19" x1="452.49" y1="336.48" x2="452.49" y2="414.6"/>
		<line class="st19" x1="481.87" y1="334.47" x2="481.87" y2="412.6"/>
		<line class="st19" x1="440.81" y1="354.84" x2="518.93" y2="354.84"/>
		<line class="st19" x1="441.47" y1="346.16" x2="519.6" y2="346.16"/>
		<line class="st19" x1="440.81" y1="363.52" x2="518.93" y2="363.52"/>
		<line class="st19" x1="440.81" y1="373.54" x2="518.93" y2="373.54"/>
		<line class="st19" x1="440.81" y1="382.89" x2="518.93" y2="382.89"/>
		<line class="st19" x1="440.81" y1="392.23" x2="518.93" y2="392.23"/>
		<line class="st19" x1="440.81" y1="400.91" x2="518.93" y2="400.91"/>
		<line class="st19" x1="405.71" y1="294.33" x2="414.47" y2="294.33"/>
		<line class="st19" x1="406" y1="300.17" x2="414.76" y2="300.17"/>
		<line class="st19" x1="406" y1="306.01" x2="414.76" y2="306.01"/>
		<line class="st19" x1="406" y1="311.85" x2="414.76" y2="311.85"/>
		<line class="st19" x1="406" y1="317.7" x2="414.76" y2="317.7"/>
		<line class="st19" x1="406" y1="323.54" x2="414.76" y2="323.54"/>
		<line class="st19" x1="406" y1="329.38" x2="414.76" y2="329.38"/>
		<line class="st19" x1="405.41" y1="334.64" x2="414.18" y2="334.64"/>
		<rect x="405.4" y="354.51" class="st18" width="8.7" height="28.05"/>
		<line class="st19" x1="402.99" y1="362.73" x2="417.49" y2="362.73"/>
		<line class="st19" x1="403.47" y1="372.4" x2="417.98" y2="372.4"/>
		<rect x="394.06" y="233.65" class="st17" width="32.72" height="26.71"/>
		<rect x="395.4" y="446.65" class="st20" width="182.29" height="7.35"/>
		<rect x="530.28" y="405.25" class="st20" width="47.41" height="1.34"/>
		<rect x="519.6" y="351.17" class="st20" width="10.68" height="1.34"/>
		<rect x="425.45" y="351.17" class="st20" width="10.68" height="1.34"/>
		<rect x="404.75" y="347.16" class="st20" width="10.68" height="1.34"/>
		<rect x="404.75" y="206.27" class="st20" width="10.68" height="1.34"/>
		
			<rect x="403.41" y="208.27" transform="matrix(6.123234e-17 -1 1 6.123234e-17 200.4825 619.0278)" class="st20" width="12.69" height="2"/>
		<rect x="408.75" y="248.34" class="st20" width="10.68" height="1.34"/>
		
			<rect x="401.41" y="243.66" transform="matrix(0.4532 0.8914 -0.8914 0.4532 440.1834 -228.9834)" class="st20" width="10.68" height="1.34"/>
		<rect x="395.4" y="404.59" class="st20" width="47.41" height="1.34"/>
		<rect x="462.17" y="331.14" class="st20" width="27.38" height="1.34"/>
		
			<rect x="433.79" y="422.28" transform="matrix(6.123234e-17 -1 1 6.123234e-17 34.5487 880.4487)" class="st20" width="47.41" height="1.34"/>
		
			<rect x="381.04" y="427.62" transform="matrix(6.123234e-17 -1 1 6.123234e-17 -23.5449 833.039)" class="st20" width="47.41" height="1.34"/>
		
			<rect x="549.98" y="428.96" transform="matrix(6.123234e-17 -1 1 6.123234e-17 144.0583 1003.3132)" class="st20" width="47.41" height="1.34"/>
		
			<rect x="473.19" y="423.62" transform="matrix(6.123234e-17 -1 1 6.123234e-17 72.61 921.1809)" class="st20" width="47.41" height="1.34"/>
		<rect x="420.11" y="429.29" class="st21" width="14.97" height="24.71"/>
		<rect x="515.59" y="429.29" class="st21" width="14.97" height="24.71"/>
		<rect x="464.12" y="422.62" class="st21" width="25.5" height="31.38"/>
		<g>
			<polygon class="st22" points="404.03,286.24 399.93,285.83 399.99,264.31 404.05,262.95 			"/>
			<line class="st19" x1="398.95" y1="270.62" x2="405.82" y2="269.17"/>
			<line class="st19" x1="398.96" y1="267.34" x2="405.82" y2="265.43"/>
			<line class="st19" x1="398.94" y1="273.9" x2="405.82" y2="272.92"/>
			<line class="st19" x1="399.13" y1="277.01" x2="406.08" y2="276.46"/>
			<line class="st19" x1="399.12" y1="280.32" x2="406.08" y2="280.25"/>
			<line class="st19" x1="399.11" y1="283.65" x2="406.08" y2="284.05"/>
		</g>
		<g>
			<polygon class="st22" points="416.35,286.91 420.45,286.5 420.39,264.97 416.32,263.62 			"/>
			<line class="st19" x1="421.43" y1="271.29" x2="414.56" y2="269.84"/>
			<line class="st19" x1="421.42" y1="268.01" x2="414.56" y2="266.1"/>
			<line class="st19" x1="421.44" y1="274.57" x2="414.56" y2="273.58"/>
			<line class="st19" x1="421.25" y1="277.67" x2="414.3" y2="277.12"/>
			<line class="st19" x1="421.26" y1="280.99" x2="414.3" y2="280.91"/>
			<line class="st19" x1="421.27" y1="284.32" x2="414.3" y2="284.72"/>
		</g>
		<g>
			
				<ellipse transform="matrix(0.9087 -0.4174 0.4174 0.9087 -65.848 193.6182)" class="st23" cx="409.8" cy="247.38" rx="12.02" ry="12.02"/>
		</g>
		
			<rect x="460.5" y="437.64" transform="matrix(6.123234e-17 -1 1 6.123234e-17 37.8874 914.5035)" class="st20" width="31.38" height="1.34"/>
	</g>
</g>
<g id="Layer_39_copy_4">
</g>
<g id="Layer_25">
	<ellipse id="water_karreveld" class="st24" cx="1181" cy="470.5" rx="189" ry="28.5"/>
</g>
<g id="Layer_24">
	<g id="Karrenveld">
		<ellipse class="st25" cx="1047" cy="465" rx="19" ry="4"/>
		<polygon class="st25" points="1290,485.94 1061,468 1061,452.7 1290,468 		"/>
		<rect x="1028" y="447" class="st25" width="33" height="18"/>
		<polygon class="st26" points="1158.35,371.5 1158.35,365.39 1154.48,364.47 1154.48,358.16 1150.96,357.16 1150.96,350.68 
			1148.51,349.86 1148.51,343.26 1142.64,341 1142.64,347.89 1139.86,346.96 1139.86,353.98 1135.49,352.72 1135.49,359.96 
			1130.03,358.67 1130.03,366.17 1124.15,365.07 1124.15,456 1162,441.45 1162,372.19 		"/>
		<ellipse class="st27" cx="1047" cy="312.41" rx="19" ry="20.59"/>
		<ellipse class="st27" cx="1047" cy="314" rx="21" ry="3"/>
		<ellipse class="st27" cx="1047" cy="312" rx="21" ry="3"/>
		<rect x="1028" y="315" class="st26" width="38" height="136"/>
		<g>
			<polygon class="st26" points="1290,469 1124.07,457.67 1124.07,375.33 1290,364 			"/>
			<polygon class="st26" points="1126.34,457.82 1059,453.22 1059,410.77 1126.34,410.05 			"/>
			<polygon class="st27" points="1124,410 1059,411 1080,391 1124,389 			"/>
			<path class="st27" d="M1093.5,395.93l-10.73,0.22c-3.02,0.06-4.54-3.61-2.37-5.71l3.25-3.14c0.84-0.81,2.04-1.12,3.16-0.82
				l8.12,2.16c2.35,0.63,3.25,3.5,1.68,5.35l-0.64,0.75C1095.35,395.48,1094.46,395.91,1093.5,395.93z"/>
			<polygon class="st27" points="1290,366 1124,377 1147,351 1315,336 			"/>
		</g>
		<g>
			<g id="wndow2">
				<polygon class="st28" points="1251.12,408 1234.88,408 1234.88,377.4 1251.12,376.55 				"/>
				<line class="st29" x1="1242.89" y1="408" x2="1242.89" y2="377.25"/>
				<line class="st29" x1="1234.88" y1="385.84" x2="1251.12" y2="385.23"/>
			</g>
			<g id="wndow2_6_">
				<polygon class="st28" points="1281,408 1263.14,408 1263.14,375.93 1281,375 				"/>
				<line class="st29" x1="1271.94" y1="408" x2="1271.94" y2="375.75"/>
				<line class="st29" x1="1263.14" y1="384.78" x2="1281" y2="384.1"/>
			</g>
			<g id="wndow2_1_">
				<polygon class="st28" points="1225.3,408 1210.41,408 1210.41,378.67 1225.3,377.9 				"/>
				<line class="st29" x1="1217.76" y1="408" x2="1217.76" y2="378.55"/>
				<line class="st29" x1="1210.41" y1="386.76" x2="1225.3" y2="386.2"/>
			</g>
			<g id="wndow2_2_">
				<polygon class="st28" points="1200.34,408 1186.68,408 1186.68,379.91 1200.34,379.2 				"/>
				<line class="st29" x1="1193.43" y1="408" x2="1193.43" y2="379.8"/>
				<line class="st29" x1="1186.68" y1="387.66" x2="1200.34" y2="387.14"/>
			</g>
			<g id="wndow2_3_">
				<polygon class="st28" points="1179.18,408 1166.54,408 1166.54,380.96 1179.18,380.3 				"/>
				<line class="st29" x1="1172.78" y1="408" x2="1172.78" y2="380.87"/>
				<line class="st29" x1="1166.54" y1="388.42" x2="1179.18" y2="387.94"/>
			</g>
			<g id="wndow2_4_">
				<polygon class="st28" points="1159.04,408 1147.32,408 1147.32,381.95 1159.04,381.35 				"/>
				<line class="st29" x1="1153.11" y1="408" x2="1153.11" y2="381.88"/>
				<line class="st29" x1="1147.32" y1="389.14" x2="1159.04" y2="388.7"/>
			</g>
			<g id="wndow2_5_">
				<polygon class="st28" points="1139.86,408 1129,408 1129,382.91 1139.86,382.34 				"/>
				<line class="st29" x1="1134.37" y1="408" x2="1134.37" y2="382.85"/>
				<line class="st29" x1="1129" y1="389.83" x2="1139.86" y2="389.42"/>
			</g>
		</g>
		<g>
			<g id="wndow2_13_">
				<polygon class="st28" points="1251.54,453.46 1235.76,452.67 1235.85,419.88 1251.6,420.01 				"/>
				<line class="st29" x1="1243.57" y1="453.06" x2="1243.65" y2="420.23"/>
				<line class="st29" x1="1235.83" y1="428.91" x2="1251.59" y2="429.22"/>
			</g>
			<g id="wndow2_12_">
				<polygon class="st28" points="1280,454.89 1263.08,454.04 1263.12,420.1 1280,420.24 				"/>
				<line class="st29" x1="1271.45" y1="454.46" x2="1271.47" y2="420.47"/>
				<line class="st29" x1="1263.11" y1="429.45" x2="1280" y2="429.78"/>
			</g>
			<g id="wndow2_11_">
				<polygon class="st28" points="1226.34,452.19 1211.54,451.45 1211.68,419.69 1226.45,419.81 				"/>
				<line class="st29" x1="1218.87" y1="451.82" x2="1218.99" y2="420.02"/>
				<line class="st29" x1="1211.64" y1="428.44" x2="1226.42" y2="428.73"/>
			</g>
			<g id="wndow2_10_">
				<polygon class="st28" points="1201.42,450.94 1187.55,450.25 1187.73,419.49 1201.58,419.6 				"/>
				<line class="st29" x1="1194.42" y1="450.59" x2="1194.59" y2="419.81"/>
				<line class="st29" x1="1187.68" y1="427.96" x2="1201.53" y2="428.24"/>
			</g>
			<g id="wndow2_9_">
				<polygon class="st28" points="1179.85,449.86 1166.76,449.2 1166.98,419.32 1180.04,419.43 				"/>
				<line class="st29" x1="1173.24" y1="449.53" x2="1173.45" y2="419.63"/>
				<line class="st29" x1="1166.92" y1="427.55" x2="1179.99" y2="427.81"/>
			</g>
			<g id="wndow2_8_">
				<polygon class="st28" points="1158.93,448.81 1146.58,448.19 1146.83,419.16 1159.16,419.26 				"/>
				<line class="st29" x1="1152.7" y1="448.5" x2="1152.94" y2="419.46"/>
				<line class="st29" x1="1146.76" y1="427.16" x2="1159.09" y2="427.4"/>
			</g>
			<g id="wndow2_7_">
				<polygon class="st28" points="1138.65,447.79 1127,447.21 1127.28,419 1138.91,419.09 				"/>
				<line class="st29" x1="1132.77" y1="447.5" x2="1133.04" y2="419.29"/>
				<line class="st29" x1="1127.2" y1="426.77" x2="1138.84" y2="427"/>
			</g>
		</g>
		<g>
			<g id="wndow2_17_">
				<polygon class="st28" points="1120.46,428 1110.73,427.81 1110.86,419.25 1120.58,419.28 				"/>
				<line class="st29" x1="1115.55" y1="427.9" x2="1115.67" y2="419.34"/>
				<line class="st29" x1="1110.83" y1="421.61" x2="1120.54" y2="421.68"/>
			</g>
			<g id="wndow2_16_">
				<polygon class="st28" points="1105.33,427.7 1096.16,427.52 1096.31,419.2 1105.47,419.23 				"/>
				<line class="st29" x1="1100.7" y1="427.61" x2="1100.85" y2="419.29"/>
				<line class="st29" x1="1096.27" y1="421.49" x2="1105.43" y2="421.57"/>
			</g>
			<g id="wndow2_15_">
				<polygon class="st28" points="1090.66,427.41 1082,427.23 1082.17,419.16 1090.82,419.19 				"/>
				<line class="st29" x1="1086.29" y1="427.32" x2="1086.46" y2="419.24"/>
				<line class="st29" x1="1082.13" y1="421.38" x2="1090.78" y2="421.45"/>
			</g>
			<g id="wndow2_14_">
				<polygon class="st28" points="1074.8,440.76 1066,440.31 1066.21,419 1075,419.07 				"/>
				<line class="st29" x1="1070.36" y1="440.53" x2="1070.57" y2="419.22"/>
				<line class="st29" x1="1066.15" y1="424.87" x2="1074.95" y2="425.05"/>
			</g>
		</g>
		<ellipse class="st26" cx="1047" cy="451" rx="19" ry="4"/>
		<line class="st30" x1="1059" y1="412" x2="1059" y2="450"/>
		<line class="st30" x1="1289.5" y1="371" x2="1289.5" y2="457.5"/>
		<path class="st31" d="M1045.5,358.5L1045.5,358.5c-3.3,0-6-2.7-6-6v-8c0-3.3,2.7-6,6-6l0,0c3.3,0,6,2.7,6,6v8
			C1051.5,355.8,1048.8,358.5,1045.5,358.5z"/>
		<path class="st31" d="M1045.5,391.5L1045.5,391.5c-3.3,0-6-2.7-6-6v-8c0-3.3,2.7-6,6-6l0,0c3.3,0,6,2.7,6,6v8
			C1051.5,388.8,1048.8,391.5,1045.5,391.5z"/>
		<path class="st31" d="M1045.5,424.5L1045.5,424.5c-3.3,0-6-2.7-6-6v-8c0-3.3,2.7-6,6-6l0,0c3.3,0,6,2.7,6,6v8
			C1051.5,421.8,1048.8,424.5,1045.5,424.5z"/>
		<ellipse class="st26" cx="1047" cy="315.5" rx="19" ry="4.5"/>
		<rect x="1066" y="312" class="st27" width="2" height="2"/>
		<rect x="1026" y="312" class="st27" width="2" height="2"/>
		<ellipse class="st27" cx="1047" cy="285.69" rx="6" ry="1.67"/>
		<polygon class="st27" points="1047,274 1041,285.46 1053,285.46 		"/>
		<rect x="1049" y="285.13" class="st27" width="2" height="10.02"/>
		<rect x="1043" y="285.13" class="st27" width="2" height="10.02"/>
		<polygon class="st26" points="1329.76,363.93 1329.76,356.33 1325.26,355.18 1325.26,347.34 1321.17,346.09 1321.17,338.04 
			1318.32,337.01 1318.32,328.81 1311.49,326 1311.49,334.56 1308.26,333.41 1308.26,342.14 1303.18,340.58 1303.18,349.58 
			1296.83,347.97 1296.83,357.3 1290,355.93 1290,469 1334,450.9 1334,364.78 		"/>
		<polygon class="st26" points="1206.92,345.23 1206.51,345.09 1206.51,338.32 1200.64,336 1200.64,343.07 1197.86,342.11 
			1197.86,349.32 1193.49,348.03 1193.49,355.46 1188.03,354.13 1188.03,361.83 1182.15,360.7 1182.15,373.16 		"/>
		<polygon class="st25" points="1334,464.42 1290,486 1290,469 1334,450.9 		"/>
		<g>
			<polygon class="st26" points="1164.01,359.99 1164.01,356.33 1161.09,356.64 1161.09,353.75 1155.43,354.41 1155.43,357.24 
				1152.68,357.53 1152.68,361.03 1150,361.28 1150,373.06 1167,372.28 1167,359.71 			"/>
			<polygon class="st28" points="1162.35,371.77 1154.18,372.17 1154.18,361.6 1162.35,360.87 			"/>
			<line class="st29" x1="1158.2" y1="371.97" x2="1158.2" y2="361.33"/>
		</g>
		<g>
			<polygon class="st26" points="1219.56,355.48 1219.56,351.68 1216.52,352 1216.52,349 1210.64,349.69 1210.64,352.63 
				1207.79,352.93 1207.79,356.57 1205,356.82 1205,369.06 1222.66,368.25 1222.66,355.19 			"/>
			<polygon class="st28" points="1217.83,367.72 1209.34,368.13 1209.34,357.15 1217.83,356.39 			"/>
			<line class="st29" x1="1213.52" y1="367.93" x2="1213.52" y2="356.88"/>
		</g>
		<g>
			<polygon class="st26" points="1261.01,352.13 1261.01,347.95 1257.67,348.3 1257.67,345 1251.2,345.75 1251.2,348.99 
				1248.07,349.32 1248.07,353.32 1245,353.6 1245,367.06 1264.42,366.17 1264.42,351.81 			"/>
			<polygon class="st28" points="1259.11,365.58 1249.77,366.04 1249.77,353.97 1259.11,353.13 			"/>
			<line class="st29" x1="1254.37" y1="365.81" x2="1254.37" y2="353.66"/>
		</g>
		<line class="st29" x1="1126" y1="461" x2="1281" y2="472"/>
		<line class="st29" x1="1292" y1="472" x2="1331" y2="456"/>
	</g>
</g>
<g id="Layer_23">
	<g id="birds_1_">
		<polygon class="st3" points="978.34,468.88 978.34,480 978.38,480 984.91,468.95 991.44,480 991.48,480 991.48,468.88 		"/>
		<g>
			<path class="st32" d="M990.96,439.11l3.72-3.81c-2.09-3.19-5.75-5.3-9.91-5.3c-6.5,0-11.77,5.15-11.77,11.5
				c0,6.35,5.27,11.5,11.77,11.5s11.77-5.15,11.77-11.5c0-0.02,0-0.05,0-0.07L990.96,439.11z"/>
			<path class="st32" d="M973.72,460.14c0,6.06,5.03,10.98,11.23,10.98c6.2,0,11.23-4.91,11.23-10.98c0-6.06-5.03-10.97-11.23-10.97
				C978.75,449.16,973.72,454.08,973.72,460.14"/>
			<polygon class="st32" points="985.04,437.88 969.6,464.01 1000.48,464.01 			"/>
			<polygon class="st3" points="992.23,445.37 1003.4,443.31 1003.4,443.28 991.07,439.05 1000.98,430.74 1000.97,430.7 
				989.79,432.76 			"/>
			<path class="st5" d="M982.02,435.12c1.77-0.58,3.61-0.07,4.52,1.14c0-0.3-0.05-0.61-0.15-0.9c-0.61-1.77-2.83-2.65-4.96-1.95
				c-2.13,0.7-3.37,2.7-2.76,4.48c0.1,0.3,0.25,0.57,0.44,0.81C979.09,437.19,980.24,435.71,982.02,435.12"/>
		</g>
	</g>
</g>
<g id="Layer_22">
	<g id="birds_4_">
		<polygon class="st3" points="911.87,538.33 911.87,553 911.82,553 903.2,538.41 894.58,553 894.52,553 894.52,538.33 		"/>
		<g>
			<path d="M895.21,499.02l-4.91-5.03c2.76-4.2,7.58-6.99,13.08-6.99c8.58,0,15.53,6.79,15.53,15.18s-6.95,15.18-15.53,15.18
				s-15.53-6.79-15.53-15.18c0-0.03,0-0.06,0-0.09L895.21,499.02z"/>
			<path d="M917.97,526.78c0,8-6.64,14.49-14.83,14.49c-8.19,0-14.83-6.49-14.83-14.49c0-8,6.64-14.49,14.83-14.49
				C911.33,512.29,917.97,518.78,917.97,526.78"/>
			<polygon points="903.02,497.4 923.4,531.89 882.64,531.89 			"/>
			<polygon class="st3" points="893.54,507.29 878.78,504.57 878.79,504.52 895.06,498.95 881.99,487.97 882,487.92 896.75,490.64 
							"/>
			<path class="st5" d="M907.01,493.76c-2.34-0.77-4.76-0.09-5.97,1.51c0-0.4,0.06-0.8,0.2-1.19c0.8-2.34,3.73-3.5,6.55-2.58
				c2.81,0.92,4.44,3.57,3.64,5.91c-0.13,0.39-0.33,0.75-0.58,1.07C910.87,496.49,909.36,494.53,907.01,493.76"/>
		</g>
	</g>
</g>
<g id="Layer_21">
	<g id="birds_5_">
		<polygon class="st3" points="443.32,515.33 443.32,530 443.37,530 451.99,515.41 460.61,530 460.66,530 460.66,515.33 		"/>
		<g>
			<path class="st33" d="M459.98,476.02l4.91-5.03c-2.76-4.2-7.58-6.99-13.08-6.99c-8.58,0-15.53,6.79-15.53,15.18
				s6.95,15.18,15.53,15.18c8.58,0,15.53-6.79,15.53-15.18c0-0.03,0-0.06,0-0.09L459.98,476.02z"/>
			<path class="st33" d="M437.22,503.78c0,8,6.64,14.49,14.83,14.49c8.19,0,14.83-6.49,14.83-14.49c0-8-6.64-14.49-14.83-14.49
				C443.86,489.29,437.22,495.78,437.22,503.78"/>
			<polygon class="st33" points="452.16,474.4 431.78,508.89 472.54,508.89 			"/>
			<polygon class="st3" points="461.65,484.29 476.4,481.57 476.39,481.52 460.13,475.95 473.2,464.97 473.19,464.92 458.43,467.64 
							"/>
			<path class="st5" d="M448.17,470.76c2.34-0.77,4.76-0.09,5.97,1.51c0-0.4-0.06-0.8-0.2-1.19c-0.8-2.34-3.73-3.5-6.55-2.58
				c-2.81,0.92-4.44,3.57-3.64,5.91c0.13,0.39,0.33,0.75,0.58,1.07C444.31,473.49,445.83,471.53,448.17,470.76"/>
		</g>
	</g>
</g>
<g id="Layer_39_copy_2">
	<g id="Layer_44">
		<ellipse class="st16" cx="250" cy="471.5" rx="153" ry="38.5"/>
	</g>
</g>
<g id="Layer_20">
	<g id="Mima">
		<polygon points="216.84,333.53 160.48,338.25 158.48,336.77 216.28,332.23 		"/>
		<polygon class="st34" points="216.28,332.23 158.48,336.77 158.48,335.48 216.28,330.29 		"/>
		<polygon points="246.66,338.2 216.19,333.66 216.19,331.07 246.66,336.25 		"/>
		<polygon class="st34" points="246.66,336.9 216.19,332.36 216.19,330.42 247.96,334.96 		"/>
		<g>
			<polygon class="st35" points="275.84,475 95.59,460.59 95.59,381.78 275.84,367.37 			"/>
			<rect x="275.84" y="407.57" class="st35" width="112.16" height="67.43"/>
			<polygon class="st35" points="216.84,395.25 160.68,390.71 160.68,337.55 216.84,333.01 			"/>
			<polygon class="st35" points="216.44,395.25 246.66,390.71 246.66,337.55 216.44,333.01 			"/>
			<polygon class="st35" points="275.44,429.62 286.86,425.08 286.86,371.91 275.44,367.37 			"/>
			<polygon class="st5" points="212.62,392.66 164.97,392.66 164.97,348.92 211.97,345.33 			"/>
			<polygon class="st5" points="271.3,407.57 100.78,410.16 101,384.37 271.3,372.27 			"/>
			<rect x="298.53" y="435.45" class="st36" width="25.93" height="16.21"/>
			<rect x="340.02" y="435.45" class="st36" width="25.93" height="16.21"/>
			<polygon class="st37" points="147.36,464.63 98.84,460.69 98.84,419.24 147.36,419.24 			"/>
			<polygon class="st35" points="144.22,464.28 100.78,460.55 100.78,421.19 144.22,421.19 			"/>
			<polygon class="st37" points="205.03,469.16 152.51,464.86 152.51,419.55 205.03,419.55 			"/>
			<polygon class="st35" points="201.92,468.35 154.59,464.32 154.59,421.84 201.92,421.84 			"/>
			<polygon class="st37" points="267.71,474.35 209.67,469.6 209.67,419.55 267.71,419.55 			"/>
			<polygon class="st35" points="264.32,473.05 211.77,468.61 211.77,421.84 264.32,421.84 			"/>
			<g>
				<path d="M173.25,391.43c0.11-0.15,0.23-0.29,0.33-0.46c1.47-2.5,4.23-3.85,7.11-3.46c1.59,0.21,2.47,1.18,2.57,2.8
					c0.01,0.19,0.06,0.37,0.11,0.73c0.26-0.28,0.41-0.43,0.55-0.6c1.25-1.43,2.64-2.69,4.6-2.98c0.8-0.12,1.66-0.08,2.45,0.07
					c1.7,0.33,2.75,1.75,2.4,3.49c-0.3,1.49-0.94,2.9-1.43,4.35c-0.21,0.61-0.47,1.21-0.66,1.83c-0.19,0.61-0.19,1.24,0.34,1.69
					c0.57,0.49,1.25,0.55,1.95,0.32c1.01-0.33,1.22-0.77,1.11-1.81c-0.33-3.1,0.88-6.44,4.39-8.26c1.2-0.62,2.48-1.09,3.71-1.66
					c1.5-0.7,2.55-1.81,2.79-3.48c0.08-0.58-0.04-1.28-0.31-1.8c-0.49-0.97-1.63-1.03-2.27-0.14c-0.38,0.53-0.6,1.19-0.8,1.81
					c-0.3,0.93-0.62,1.83-1.36,2.51c-0.81,0.74-1.75,0.97-2.79,0.65c-0.93-0.29-1.48-0.93-1.58-1.92c-0.22-2.05,0.98-3.93,2.96-4.58
					c1.89-0.62,3.8-0.57,5.69,0.04c1.64,0.53,2.66,1.75,3.07,3.33c0.47,1.82,0.79,3.69,0.99,5.56c0.2,1.79,0.08,3.62,0.26,5.42
					c0.14,1.44,0.45,2.87,0.79,4.27c0.21,0.85,0.72,1.57,1.49,2.06c0.16,0.11,0.31,0.23,0.6,0.46c-0.37,0.1-0.55,0.19-0.73,0.19
					c-1.12,0.01-2.18-0.19-3.17-0.76c-0.74-0.42-1.23-1.03-1.48-1.83c-0.03-0.09-0.03-0.2-0.09-0.28c-0.11-0.17-0.25-0.33-0.38-0.5
					c-0.16,0.13-0.36,0.23-0.47,0.39c-0.79,1.18-1.82,2.08-3.11,2.64c-2.27,0.99-4.47,1.04-6.47-0.66c-0.21-0.18-0.39-0.39-0.57-0.6
					c-0.16-0.19-0.31-0.4-0.49-0.64c-0.25,0.23-0.47,0.44-0.71,0.64c-1.13,0.95-2.37,1.7-3.86,1.91c-2.89,0.42-5.05-1.63-4.81-4.55
					c0.14-1.75,0.86-3.3,1.6-4.84c0.41-0.85,0.86-1.68,1.25-2.54c0.22-0.49,0.51-1.08,0-1.53c-0.54-0.48-1.15-0.15-1.55,0.22
					c-0.69,0.63-1.39,1.31-1.85,2.11c-1.26,2.2-2.41,4.47-3.58,6.71c-0.62,1.18-1.22,2.38-1.82,3.57c-0.21,0.42-0.51,0.63-0.99,0.59
					c-0.39-0.03-0.78-0.06-1.18-0.07c-0.82-0.03-0.97-0.26-0.62-1.03c0.39-0.84,0.79-1.67,1.18-2.51c1.01-2.2,2.03-4.39,3.02-6.6
					c0.23-0.51,0.41-1.07,0.47-1.63c0.08-0.72-0.42-1.08-1.14-0.93c-0.68,0.14-1.17,0.59-1.52,1.14c-0.82,1.34-1.65,2.68-2.37,4.07
					c-1.09,2.11-2.1,4.27-3.14,6.41c-0.09,0.18-0.17,0.35-0.24,0.54c-0.35,0.93-0.43,0.96-1.41,0.95c-1.1-0.01-2.2,0.02-3.29,0.06
					c-0.66,0.02-0.83-0.16-0.57-0.78c1.07-2.6,2.17-5.19,3.21-7.8c0.48-1.19,0.83-2.41,0.66-3.73c-0.1-0.78-0.49-1.35-1.18-1.64
					c-0.57-0.24-1.2-0.41-1.81-0.44c-0.32-0.02-0.76,0.25-0.95,0.52c-0.1,0.16,0.13,0.66,0.34,0.89c0.94,1.04,1.15,2.22,0.69,3.51
					c-0.41,1.15-1.35,1.71-2.42,1.54c-1.05-0.17-1.74-1.03-1.8-2.24c-0.15-3.11,2.81-5.45,5.79-4.58c1.31,0.38,2.14,1.54,2.23,3.09
					c0.01,0.25,0.04,0.49,0.07,0.73C173.13,391.4,173.19,391.42,173.25,391.43z M205.2,390.18c-0.05-0.17-0.16-0.51-0.27-0.85
					c-0.35,0.13-0.78,0.17-1.03,0.41c-1.12,1.07-2.26,2.13-3.25,3.31c-0.91,1.09-1.45,2.4-1.25,3.88c0.23,1.65,1.84,2.31,3.09,1.2
					c0.65-0.58,1.16-1.38,1.54-2.18C204.88,394.2,204.94,392.26,205.2,390.18z"/>
				<path d="M186.58,375.66c-0.19,0.29-0.37,0.58-0.57,0.86c-1.66,2.32-3.32,4.64-5,6.94c-0.65,0.9-0.69,0.87-1.27-0.08
					c-1.07-1.79-2.18-3.55-3.25-5.34c-0.54-0.91-1.02-1.86-1.54-2.79c-0.1-0.19-0.23-0.36-0.35-0.54c-0.05,0.02-0.11,0.03-0.16,0.05
					c-0.01,0.22-0.03,0.44-0.03,0.66c0.03,2.97,0.06,5.94,0.1,8.91c0.01,0.41-0.17,0.58-0.56,0.58c-1.59,0.01-3.19,0.02-4.78,0.03
					c-0.41,0-0.62-0.17-0.63-0.6c-0.02-0.83-0.05-1.65-0.07-2.48c-0.15-7.45-0.29-14.91-0.43-22.37c-0.01-0.43-0.19-1.06,0.33-1.19
					c0.3-0.08,0.82,0.3,1.1,0.6c3.53,3.67,7.04,7.36,10.56,11.04c0.37,0.38,0.71,0.79,1.1,1.15c0.28,0.27,0.57,0.39,0.9-0.01
					c2.09-2.54,4.2-5.05,6.29-7.59c1.28-1.55,2.53-3.11,3.81-4.66c0.15-0.18,0.38-0.28,0.57-0.42c0.06,0.22,0.18,0.43,0.18,0.65
					c0.02,4.64,0.04,9.28,0.01,13.93c-0.02,3.38-0.11,6.77-0.18,10.15c-0.01,0.41-0.04,0.83-0.05,1.24c-0.01,0.34-0.17,0.5-0.51,0.5
					c-1.75,0-3.5,0.01-5.25-0.02c-0.11,0-0.33-0.27-0.32-0.41c0.05-2.05,0.13-4.09,0.18-6.13c0.02-0.87,0-1.75,0-2.62
					C186.71,375.69,186.64,375.68,186.58,375.66z"/>
				<path d="M204.84,364.64c-0.37,1.89-0.74,3.77-1.09,5.66c-0.12,0.64-0.27,1.28-0.27,1.92c0,0.43,0.16,0.9,0.38,1.27
					c0.41,0.7,1.05,0.79,1.77,0.41c0.3-0.16,0.66-0.2,1-0.29c-0.01,0.36,0.04,0.73-0.05,1.07c-0.39,1.49-1.5,2.24-2.87,2.7
					c-2.29,0.77-4.83,0.22-6.21-1.36c-1.03-1.18-1.24-2.62-1.14-4.1c0.1-1.45,0.34-2.89,0.56-4.32c0.2-1.36,0.5-2.7,0.66-4.07
					c0.07-0.59-0.03-1.22-0.17-1.8c-0.19-0.8-0.65-1.06-1.49-1.04c-0.21,0-0.43-0.08-0.64-0.13c0.1-0.22,0.14-0.51,0.31-0.65
					c1.97-1.62,4.81-1.99,6.82-0.69c1.3,0.84,1.81,2.19,2.1,3.62c0.12,0.57,0.13,1.17,0.19,1.75
					C204.76,364.61,204.8,364.62,204.84,364.64z"/>
			</g>
			<polygon points="161.73,377.1 95.35,381.82 93,380.34 161.08,375.8 			"/>
			<polygon class="st34" points="161.08,375.8 93,380.34 93,379.04 161.08,373.86 			"/>
			<polygon points="275.84,368.67 215.72,373.39 213.59,371.91 275.25,367.37 			"/>
			<polygon class="st34" points="275.25,367.37 213.59,371.91 213.59,370.62 275.25,365.43 			"/>
			<polygon points="275.19,368.67 287.08,373.39 287.51,371.91 275.3,367.37 			"/>
			<polygon class="st34" points="275.3,367.37 287.51,371.91 287.51,370.62 275.3,365.43 			"/>
			<rect x="275.84" y="406.92" width="112.16" height="1.3"/>
			<rect x="275.84" y="406.27" class="st34" width="112.16" height="1.3"/>
			<g>
				<polygon class="st37" points="170.18,346.8 164.97,347.2 164.97,343.07 170.18,342.61 				"/>
				<path class="st37" d="M170.18,342.61c0,1.45-1.18,2.71-2.63,2.83c-1.44,0.12-2.59-0.95-2.59-2.38s1.16-2.69,2.59-2.83
					C169,340.11,170.18,341.17,170.18,342.61z"/>
				<polygon class="st37" points="176.63,346.31 171.24,346.72 171.24,342.52 176.63,342.05 				"/>
				<path class="st37" d="M176.63,342.05c0,1.47-1.22,2.76-2.71,2.88c-1.48,0.12-2.68-0.96-2.68-2.41s1.19-2.74,2.68-2.88
					C175.41,339.51,176.63,340.58,176.63,342.05z"/>
				<polygon class="st37" points="183.29,345.81 177.73,346.23 177.73,341.96 183.29,341.48 				"/>
				<path class="st37" d="M183.29,341.48c0,1.49-1.26,2.81-2.8,2.93c-1.53,0.12-2.76-0.97-2.76-2.45c0-1.47,1.23-2.78,2.76-2.93
					C182.03,338.89,183.29,339.98,183.29,341.48z"/>
				<polygon class="st37" points="190.18,345.28 184.42,345.72 184.42,341.38 190.18,340.88 				"/>
				<path class="st37" d="M190.18,340.88c0,1.52-1.3,2.86-2.9,2.98c-1.58,0.13-2.86-0.99-2.86-2.48s1.27-2.83,2.86-2.98
					C188.88,338.25,190.18,339.36,190.18,340.88z"/>
				<polygon class="st37" points="197.3,344.74 191.35,345.19 191.35,340.78 197.3,340.26 				"/>
				<path class="st37" d="M197.3,340.26c0,1.55-1.35,2.91-3,3.04c-1.64,0.13-2.95-1-2.95-2.52c0-1.52,1.32-2.88,2.95-3.04
					C195.95,337.59,197.3,338.71,197.3,340.26z"/>
				<polygon class="st37" points="204.67,344.18 198.51,344.65 198.51,340.16 204.67,339.62 				"/>
				<path class="st37" d="M204.67,339.62c0,1.57-1.39,2.96-3.1,3.1c-1.69,0.14-3.06-1.01-3.06-2.56s1.36-2.93,3.06-3.09
					C203.27,336.9,204.67,338.05,204.67,339.62z"/>
				<polygon class="st37" points="212.3,343.59 205.92,344.08 205.92,339.51 212.3,338.96 				"/>
				<path class="st37" d="M212.3,338.96c0,1.6-1.44,3.01-3.21,3.16c-1.75,0.14-3.16-1.02-3.16-2.6s1.41-2.99,3.16-3.15
					C210.85,336.2,212.3,337.36,212.3,338.96z"/>
			</g>
		</g>
	</g>
</g>
<g id="Layer_39_copy_3">
	<g id="Layer_45">
		<ellipse class="st9" cx="707.5" cy="473.5" rx="143.5" ry="52.5"/>
	</g>
</g>
<g id="Layer_19">
	<g id="tree_1_">
		<ellipse class="st38" cx="926.45" cy="412.51" rx="20.01" ry="37.02"/>
		<path class="st39" d="M926.45,497.07L926.45,497.07c-2.4,0-4.36-1.96-4.36-4.36v-60.19c0-2.4,1.96-4.36,4.36-4.36l0,0
			c2.4,0,4.36,1.96,4.36,4.36v60.19C930.82,495.11,928.85,497.07,926.45,497.07z"/>
	</g>
</g>
<g id="Layer_18">
	<g id="tree_2_">
		<ellipse class="st38" cx="865.91" cy="454.43" rx="20.01" ry="37.02"/>
		<path class="st39" d="M865.91,539L865.91,539c-2.4,0-4.36-1.96-4.36-4.36v-60.19c0-2.4,1.96-4.36,4.36-4.36l0,0
			c2.4,0,4.36,1.96,4.36,4.36v60.19C870.27,537.04,868.31,539,865.91,539z"/>
	</g>
</g>
<g id="Layer_17">
	<g id="tree_10_">
		<ellipse class="st38" cx="503.45" cy="491.51" rx="20.01" ry="37.02"/>
		<path class="st39" d="M503.45,576.07L503.45,576.07c-2.4,0-4.36-1.96-4.36-4.36v-60.19c0-2.4,1.96-4.36,4.36-4.36h0
			c2.4,0,4.36,1.96,4.36,4.36v60.19C507.82,574.11,505.85,576.07,503.45,576.07z"/>
	</g>
</g>
<g id="Layer_16">
	<g id="tree_8_">
		<ellipse class="st38" cx="431.58" cy="436.03" rx="20.01" ry="37.02"/>
		<path class="st39" d="M431.58,520.59L431.58,520.59c-2.4,0-4.36-1.96-4.36-4.36v-60.19c0-2.4,1.96-4.36,4.36-4.36h0
			c2.4,0,4.36,1.96,4.36,4.36v60.19C435.95,518.63,433.98,520.59,431.58,520.59z"/>
	</g>
</g>
<g id="Layer_15">
	<g id="tree_6_">
		<ellipse class="st38" cx="561.99" cy="417.14" rx="20.01" ry="37.02"/>
		<path class="st39" d="M561.99,501.71L561.99,501.71c-2.4,0-4.36-1.96-4.36-4.36v-60.19c0-2.4,1.96-4.36,4.36-4.36l0,0
			c2.4,0,4.36,1.96,4.36,4.36v60.19C566.35,499.75,564.39,501.71,561.99,501.71z"/>
	</g>
</g>
<g id="Layer_14">
	<g id="Gemeentehuis">
		<polygon class="st40" points="712.72,294.92 713.09,294.92 707.56,289 702.11,294.84 702.03,294.84 702.03,312.92 712.72,312.92 
					"/>
		<path class="st41" d="M707.49,300.82c-17.83,0-32.28,13.49-32.28,30.14h64.57C739.77,314.31,725.32,300.82,707.49,300.82z"/>
		<path class="st42" d="M755.03,372.66c-3.4-1.11-8.74-1.97-15.26-2.55v-1.49c1.76-0.87,2.73-1.82,2.73-2.81
			c0-1-0.97-1.95-2.73-2.81v-26.9c1.76-0.87,2.73-1.82,2.73-2.81c0-4-15.63-7.25-34.9-7.25s-34.9,3.25-34.9,7.25
			c0,1,0.97,1.95,2.73,2.81v26.9c-1.76,0.87-2.73,1.82-2.73,2.81c0,1,0.97,1.95,2.73,2.81v2.82c-5.74,0.75-10.84,1.67-14.88,2.79
			c-21.51,5.95-78.1,21.16-78.1,21.16l-0.49,61.58l95.22,43.36c18.58,9.39,42.58,9.39,69.44-3.43
			c14.19-6.77,86.16-39.92,86.16-39.92l-0.09-62.37C833.22,394.76,772.6,378.43,755.03,372.66z M681.06,361.1
			c-0.62,0.15-1.21,0.31-1.76,0.47v-22.38h1.76V361.1z M686.59,360.02c-0.76,0.12-1.51,0.24-2.22,0.38v-21.71
			c0.71,0.13,1.46,0.26,2.22,0.38V360.02z M701.7,358.66c-1,0.04-1.97,0.08-2.94,0.13v-18.51c0.97,0.05,1.94,0.1,2.94,0.13V358.66z
			 M716.76,358.81c-0.95-0.05-1.91-0.1-2.89-0.14v-18.27c0.98-0.04,1.94-0.08,2.89-0.14V358.81z M732.41,360.71
			c-1.07-0.23-2.22-0.43-3.42-0.63V339c1.2-0.19,2.35-0.4,3.42-0.63V360.71z M737.04,361.91c-0.55-0.18-1.14-0.35-1.76-0.52v-22.2
			h1.76V361.91z"/>
		<polygon class="st28" points="629.85,422.82 616.37,422.82 616.37,391.48 629.85,388.01 		"/>
		<polygon class="st28" points="652.07,423.19 633.82,423.19 633.82,387.19 652.07,382.46 		"/>
		<polygon class="st28" points="685.96,420.28 666.64,420.28 666.22,381.48 685.96,377.17 		"/>
		<polygon class="st28" points="633.82,469.47 652.07,476.22 652.07,432.45 633.82,431.01 		"/>
		<polygon class="st28" points="616.37,462.76 629.85,467.77 629.85,430.59 616.37,429.48 		"/>
		<polygon class="st28" points="613.19,461.7 602.88,457.89 602.88,428.37 613.19,429.17 		"/>
		<polygon class="st28" points="591.37,453.55 600.5,456.9 600.5,428.37 591.37,427.65 		"/>
		<polygon class="st28" points="591.37,397.64 600.5,395.3 600.5,422.45 591.37,422.28 		"/>
		<polygon class="st28" points="602.88,395.05 613.19,392.44 613.19,422.82 602.88,422.61 		"/>
		<line class="st29" x1="642.55" y1="385.05" x2="642.94" y2="423.19"/>
		<line class="st29" x1="633.82" y1="396.9" x2="652.07" y2="393.94"/>
		<line class="st29" x1="675.67" y1="379.32" x2="676.09" y2="419.69"/>
		<line class="st29" x1="739.91" y1="379.32" x2="740.33" y2="419.69"/>
		<line class="st29" x1="666.43" y1="391.87" x2="685.75" y2="388.73"/>
		<line class="st29" x1="616.37" y1="399.86" x2="629.46" y2="397.64"/>
		<line class="st29" x1="602.48" y1="402.08" x2="612.8" y2="400.23"/>
		<line class="st29" x1="591.37" y1="403.94" x2="600.5" y2="402.45"/>
		<line class="st29" x1="622.71" y1="389.87" x2="622.71" y2="422.82"/>
		<line class="st29" x1="608.04" y1="393.57" x2="608.04" y2="422.08"/>
		<line class="st29" x1="595.74" y1="396.53" x2="595.74" y2="422.06"/>
		<line class="st29" x1="595.74" y1="428.37" x2="595.74" y2="455.03"/>
		<line class="st29" x1="607.64" y1="429.11" x2="607.64" y2="459.47"/>
		<line class="st29" x1="622.71" y1="429.85" x2="622.71" y2="465.28"/>
		<line class="st29" x1="642.55" y1="432.07" x2="642.55" y2="472.9"/>
		<line class="st29" x1="603.28" y1="437.26" x2="613.19" y2="439.48"/>
		<line class="st29" x1="616.56" y1="440.04" x2="629.65" y2="442.59"/>
		<line class="st29" x1="634.02" y1="443.37" x2="652.26" y2="446.92"/>
		<line class="st29" x1="600.3" y1="436.7" x2="591.57" y2="435.02"/>
		<path class="st43" d="M687.85,444.69c0,7.73-5.36,13.4-11.57,12.71c-5.82-0.65-10.26-6.71-10.26-13.57
			c0-6.86,4.45-12.57,10.26-12.76C682.49,430.86,687.85,436.95,687.85,444.69z"/>
		<polygon class="st43" points="687.85,490.63 666.01,481.88 666.01,442.42 687.85,446.15 		"/>
		<polygon class="st28" points="786.47,422.79 799.95,422.79 799.95,391.45 786.47,387.98 		"/>
		<polygon class="st28" points="764.25,423.16 782.5,423.16 782.5,387.15 764.25,382.43 		"/>
		<polygon class="st28" points="730.36,420.25 749.68,420.25 750.1,381.45 730.36,377.14 		"/>
		<polygon class="st28" points="782.5,469.44 764.25,476.19 764.25,432.41 782.5,430.98 		"/>
		<polygon class="st28" points="799.95,462.72 786.47,467.74 786.47,430.55 799.95,429.45 		"/>
		<polygon class="st28" points="803.13,461.66 813.44,457.86 813.44,428.34 803.13,429.13 		"/>
		<polygon class="st28" points="824.94,453.52 815.82,456.87 815.82,428.34 824.94,427.62 		"/>
		<polygon class="st28" points="824.94,397.61 815.82,395.27 815.82,422.42 824.94,422.25 		"/>
		<polygon class="st28" points="813.44,395.02 803.13,392.41 803.13,422.79 813.44,422.58 		"/>
		<line class="st29" x1="773.77" y1="385.02" x2="773.38" y2="423.16"/>
		<line class="st29" x1="739.77" y1="379.53" x2="739.49" y2="419.69"/>
		<line class="st29" x1="782.5" y1="396.87" x2="764.25" y2="393.91"/>
		<line class="st29" x1="749.89" y1="391.83" x2="730.57" y2="388.7"/>
		<line class="st29" x1="799.95" y1="399.83" x2="786.86" y2="397.61"/>
		<line class="st29" x1="813.84" y1="402.05" x2="803.52" y2="400.2"/>
		<line class="st29" x1="824.94" y1="403.9" x2="815.82" y2="402.42"/>
		<line class="st29" x1="793.61" y1="389.83" x2="793.61" y2="422.79"/>
		<line class="st29" x1="808.28" y1="393.54" x2="808.28" y2="422.05"/>
		<line class="st29" x1="820.58" y1="396.5" x2="820.58" y2="422.03"/>
		<line class="st29" x1="820.58" y1="428.34" x2="820.58" y2="455"/>
		<line class="st29" x1="808.68" y1="429.08" x2="808.68" y2="459.44"/>
		<line class="st29" x1="793.61" y1="429.82" x2="793.61" y2="465.25"/>
		<line class="st29" x1="773.77" y1="432.04" x2="773.77" y2="472.87"/>
		<line class="st29" x1="813.04" y1="437.23" x2="803.13" y2="439.45"/>
		<line class="st29" x1="799.76" y1="440" x2="786.67" y2="442.56"/>
		<line class="st29" x1="782.3" y1="443.34" x2="764.06" y2="446.89"/>
		<line class="st29" x1="816.02" y1="436.67" x2="824.75" y2="434.98"/>
		<path class="st43" d="M728.47,444.65c0,7.73,5.36,13.4,11.57,12.71c5.82-0.65,10.26-6.71,10.26-13.57
			c0-6.86-4.45-12.57-10.26-12.76C733.83,430.83,728.47,436.92,728.47,444.65z"/>
		<polygon class="st43" points="728.47,490.6 750.31,481.84 750.31,442.39 728.47,446.12 		"/>
		<ellipse class="st43" cx="708.21" cy="441.45" rx="11.97" ry="9.21"/>
		<ellipse class="st43" cx="708.21" cy="493.11" rx="11.97" ry="1.44"/>
		<rect x="696.24" y="441.64" class="st43" width="23.93" height="51.34"/>
		<rect x="696.45" y="375.21" class="st28" width="23.51" height="45.46"/>
		<line class="st29" x1="708.21" y1="420.67" x2="708.21" y2="375.6"/>
		<line class="st29" x1="696.45" y1="387.75" x2="719.97" y2="387.75"/>
	</g>
</g>
<g id="Layer_13">
	<g id="birds">
		<polygon class="st3" points="651.52,548.75 651.52,575.98 651.61,575.98 667.24,548.91 682.87,575.98 682.97,575.98 
			682.97,548.75 		"/>
		<polygon class="st3" points="722.76,557.39 722.76,575.86 722.82,575.86 733.43,557.49 744.03,575.86 744.1,575.86 744.1,557.39 
					"/>
		<g>
			<path class="st44" d="M681.73,475.8l8.91-9.33c-5.01-7.8-13.75-12.98-23.72-12.98c-15.56,0-28.17,12.61-28.17,28.17
				s12.61,28.17,28.17,28.17s28.17-12.61,28.17-28.17c0-0.06,0-0.11,0-0.17L681.73,475.8z"/>
			<path class="st44" d="M640.46,527.32c0,14.85,12.04,26.89,26.89,26.89c14.85,0,26.89-12.04,26.89-26.89
				c0-14.85-12.04-26.89-26.89-26.89C652.5,500.44,640.46,512.48,640.46,527.32"/>
			<polygon class="st44" points="667.56,472.79 630.6,536.8 704.52,536.8 			"/>
			<polygon class="st3" points="684.76,491.15 711.52,486.11 711.5,486.02 682,475.67 705.71,455.3 705.69,455.2 678.93,460.25 			
				"/>
			<path class="st45" d="M733.54,497.57c-6.64,0-12.45,3.56-15.63,8.88l5.94,5.46l-8.49,4.67c0.43,9.67,8.4,17.38,18.17,17.38
				c10.05,0,18.19-8.14,18.19-18.19C751.74,505.72,743.59,497.57,733.54,497.57z"/>
			<path class="st45" d="M750.63,545.26c0,9.59-7.77,17.36-17.36,17.36c-9.59,0-17.36-7.77-17.36-17.36s7.77-17.36,17.36-17.36
				C742.86,527.89,750.63,535.67,750.63,545.26"/>
			<polygon class="st45" points="733.13,510.04 757,551.38 709.26,551.38 			"/>
			<polygon class="st3" points="722.02,521.9 704.74,518.64 704.75,518.58 723.8,511.9 708.49,498.74 708.5,498.68 725.78,501.94 
							"/>
			<path class="st5" d="M660.32,466.05c4.25-1.42,8.63-0.17,10.83,2.79c-0.01-0.74-0.12-1.49-0.36-2.21
				c-1.46-4.35-6.77-6.49-11.87-4.78c-5.1,1.71-8.06,6.62-6.6,10.96c0.24,0.73,0.6,1.39,1.05,1.98
				C653.33,471.11,656.07,467.47,660.32,466.05"/>
			<path class="st5" d="M737.8,505.68c-2.74-0.92-5.58-0.11-6.99,1.81c0-0.48,0.08-0.96,0.23-1.43c0.94-2.81,4.37-4.19,7.67-3.09
				c3.29,1.1,5.2,4.27,4.26,7.08c-0.16,0.47-0.39,0.9-0.67,1.28C742.32,508.95,740.55,506.6,737.8,505.68"/>
		</g>
	</g>
</g>
<g id="Layer_12">
	<g id="tree">
		<ellipse class="st38" cx="967.64" cy="480.73" rx="20.01" ry="37.02"/>
		<path class="st39" d="M967.64,565.3L967.64,565.3c-2.4,0-4.36-1.96-4.36-4.36v-60.19c0-2.4,1.96-4.36,4.36-4.36l0,0
			c2.4,0,4.36,1.96,4.36,4.36v60.19C972.01,563.33,970.04,565.3,967.64,565.3z"/>
	</g>
</g>
<g id="Layer_11">
	<g id="tree_3_">
		<ellipse class="st38" cx="1111.58" cy="445.03" rx="20.01" ry="37.02"/>
		<path class="st39" d="M1111.58,529.59L1111.58,529.59c-2.4,0-4.36-1.96-4.36-4.36v-60.19c0-2.4,1.96-4.36,4.36-4.36l0,0
			c2.4,0,4.36,1.96,4.36,4.36v60.19C1115.95,527.63,1113.98,529.59,1111.58,529.59z"/>
	</g>
</g>
<g id="Layer_10">
	<g id="tree_4_">
		<ellipse class="st38" cx="1192.1" cy="441.02" rx="20.01" ry="37.02"/>
		<path class="st39" d="M1192.1,525.58L1192.1,525.58c-2.4,0-4.36-1.96-4.36-4.36v-60.19c0-2.4,1.96-4.36,4.36-4.36l0,0
			c2.4,0,4.36,1.96,4.36,4.36v60.19C1196.46,523.62,1194.5,525.58,1192.1,525.58z"/>
	</g>
</g>
<g id="Layer_9">
	<g id="tree_5_">
		<ellipse class="st38" cx="1275.99" cy="469.14" rx="20.01" ry="37.02"/>
		<path class="st39" d="M1275.99,553.71L1275.99,553.71c-2.4,0-4.36-1.96-4.36-4.36v-60.19c0-2.4,1.96-4.36,4.36-4.36l0,0
			c2.4,0,4.36,1.96,4.36,4.36v60.19C1280.35,551.75,1278.39,553.71,1275.99,553.71z"/>
	</g>
</g>
<g id="Layer_8">
	<path id="rivier" class="st24" d="M76.25,462.38c6.77-1.33,242.84,33.7,243.06,33.73c36.7,5.89,73.11,30.03,108.48,56.51
		C451,570,582.05,587.71,589.74,610.23C590,611,391.24,604,351.37,597.25c-39.87-6.75-29.12-54.5-90.5-67.13
		c-61.37-12.62-250.23-38.97-243.7-43.69C33,475,68,464,76.25,462.38z"/>
</g>
<g id="Layer_7">
	<g id="tree_9_">
		<ellipse class="st38" cx="115.91" cy="459.43" rx="20.01" ry="37.02"/>
		<path class="st39" d="M115.91,544L115.91,544c-2.4,0-4.36-1.96-4.36-4.36v-60.19c0-2.4,1.96-4.36,4.36-4.36h0
			c2.4,0,4.36,1.96,4.36,4.36v60.19C120.27,542.04,118.31,544,115.91,544z"/>
	</g>
</g>
<g id="Layer_6">
	<g id="tree_11_">
		<ellipse class="st38" cx="276.64" cy="482.73" rx="20.01" ry="37.02"/>
		<path class="st39" d="M276.64,567.3L276.64,567.3c-2.4,0-4.36-1.96-4.36-4.36v-60.19c0-2.4,1.96-4.36,4.36-4.36h0
			c2.4,0,4.36,1.96,4.36,4.36v60.19C281,565.33,279.04,567.3,276.64,567.3z"/>
	</g>
</g>
<g id="Layer_5">
	<g id="birds_3_">
		<polygon class="st3" points="199.9,593.88 221.6,610.33 221.66,610.25 209.52,581.44 240.54,585.33 240.59,585.25 218.89,568.81 
					"/>
		<g>
			<path class="st46" d="M216.04,518.75l11.05-6.65c-2.77-8.85-9.84-16.15-19.45-18.78c-15.01-4.1-30.5,4.73-34.6,19.74
				c-4.1,15.01,4.73,30.5,19.74,34.6c15.01,4.1,30.5-4.73,34.6-19.74c0.01-0.05,0.03-0.11,0.04-0.16L216.04,518.75z"/>
			<path class="st46" d="M173.46,568.32c0,14.85,12.04,26.89,26.89,26.89c14.85,0,26.89-12.04,26.89-26.89
				c0-14.85-12.04-26.89-26.89-26.89C185.5,541.44,173.46,553.48,173.46,568.32"/>
			<polygon class="st46" points="194.07,513.98 163.04,570.06 236.52,561.99 			"/>
			<polygon class="st3" points="214.92,534.36 242.06,536.55 242.06,536.46 216.34,518.7 244.58,505.3 244.59,505.2 217.45,503.01 
							"/>
			<path class="st5" d="M197.97,503.69c4.47-0.25,8.37,2.11,9.71,5.55c0.19-0.72,0.28-1.46,0.24-2.23
				c-0.26-4.58-4.82-8.04-10.19-7.74c-5.37,0.3-9.52,4.26-9.26,8.84c0.04,0.77,0.22,1.5,0.49,2.19
				C189.88,506.73,193.49,503.94,197.97,503.69"/>
		</g>
	</g>
</g>
<g id="Layer_4">
	<g id="gitaar">
		<ellipse class="st47" cx="206" cy="577.5" rx="19" ry="17.5"/>
		<ellipse class="st47" cx="220" cy="567.5" rx="14.66" ry="13.5"/>
		<g>
			<g>
				<path class="st48" d="M207.51,578.59c5.55-3.4,11.09-6.79,16.64-10.19c8.76-5.36,17.52-10.73,26.28-16.09
					c2.03-1.24,4.06-2.48,6.09-3.73c3.29-2.01,0.28-7.2-3.03-5.18c-5.55,3.4-11.09,6.79-16.64,10.19
					c-8.76,5.36-17.52,10.73-26.28,16.09c-2.03,1.24-4.06,2.48-6.09,3.73C201.2,575.42,204.21,580.61,207.51,578.59L207.51,578.59z"
					/>
			</g>
		</g>
		<circle cx="208" cy="575" r="9"/>
	</g>
</g>
<g id="Layer_3">
	<g id="paarse_vogel">
		<path class="st49" d="M1072.93,582.24l-43.96,3.74c-2.47,0.21-4.66-1.64-4.86-4.1l0,0c-0.21-2.47,1.64-4.66,4.1-4.87l43.96-3.74
			c2.47-0.21,4.66,1.64,4.87,4.1l0,0C1077.24,579.84,1075.4,582.03,1072.93,582.24z"/>
		<g id="birds_2_">
			<polygon class="st3" points="1062.05,558.55 1062.94,578.55 1062.87,578.56 1050.5,559.18 1039.91,579.57 1039.83,579.58 
				1038.95,559.58 			"/>
			<g>
				<path class="st50" d="M1039.03,508.99l-8.12-4.89c2.04-6.51,7.24-11.87,14.3-13.8c11.03-3.02,22.42,3.48,25.44,14.51
					c3.02,11.03-3.48,22.42-14.51,25.44s-22.42-3.48-25.44-14.51c-0.01-0.04-0.02-0.08-0.03-0.12L1039.03,508.99z"/>
				<path class="st50" d="M1070.34,545.44c0,10.92-8.85,19.77-19.77,19.77c-10.92,0-19.77-8.85-19.77-19.77
					c0-10.92,8.85-19.77,19.77-19.77C1061.49,525.68,1070.34,534.53,1070.34,545.44"/>
				<polygon class="st3" points="1039.86,520.47 1019.9,522.08 1019.9,522.01 1038.81,508.95 1018.05,499.1 1018.04,499.03 
					1038,497.42 				"/>
				<path class="st5" d="M1052.32,497.92c-3.29-0.18-6.16,1.55-7.14,4.08c-0.14-0.53-0.21-1.08-0.17-1.64
					c0.19-3.37,3.54-5.91,7.49-5.69c3.95,0.22,7,3.13,6.81,6.5c-0.03,0.56-0.16,1.1-0.36,1.61
					C1058.27,500.16,1055.61,498.11,1052.32,497.92"/>
				<polygon class="st50" points="1046.67,511.43 1068.96,552.6 1015.98,546.79 				"/>
			</g>
		</g>
		<circle class="st18" cx="1035" cy="586" r="3"/>
		<circle class="st18" cx="1069" cy="583" r="3"/>
		<path class="st49" d="M1025.5,583L1025.5,583c-0.82,0-1.5-0.67-1.5-1.5v-30c0-0.83,0.68-1.5,1.5-1.5l0,0c0.82,0,1.5,0.67,1.5,1.5
			v30C1027,582.33,1026.32,583,1025.5,583z"/>
		<path class="st49" d="M1034.55,552.51l-18.75-3.07c-1.09-0.18-1.83-1.21-1.65-2.3l0,0c0.18-1.09,1.21-1.83,2.3-1.65l18.75,3.07
			c1.09,0.18,1.83,1.21,1.65,2.3l0,0C1036.67,551.94,1035.64,552.69,1034.55,552.51z"/>
	</g>
</g>
</svg>
