<?xml version="1.0" encoding="utf-8"?>
<!-- Generator: Adobe Illustrator 24.3.0, SVG Export Plug-In . SVG Version: 6.00 Build 0)  -->
<svg version="1.1" id="Layer_1" xmlns="http://www.w3.org/2000/svg" xmlns:xlink="http://www.w3.org/1999/xlink" x="0px" y="0px"
	 viewBox="0 0 1396 460" style="enable-background:new 0 0 1396 460;" xml:space="preserve">
<style type="text/css">
	.st0{fill:#FFB136;}
	.st1{fill:#E05248;}
	.st2{fill:#0077B7;}
	.st3{fill:#FF6057;}
	.st4{fill:#FFFFFF;}
</style>
<g id="Birdlogo">
	<polygon class="st0" points="144.28,387.26 144.28,459.89 144.53,459.89 186.22,387.68 227.92,459.89 228.17,459.89 228.17,387.26 
			"/>
	<polygon class="st0" points="334.29,410.3 334.29,459.57 334.46,459.57 362.75,410.58 391.03,459.57 391.2,459.57 391.2,410.3 	"/>
	<polygon class="st1" points="0,-0.13 0,459.92 1.59,459.92 265.68,2.5 529.77,459.92 531.4,459.92 531.4,-0.13 	"/>
	<path class="st2" d="M225,192l23.12-24.95c-13.43-20.39-36.52-33.86-62.77-33.86c-41.49,0-75.13,33.64-75.13,75.13
		c0,41.49,33.63,75.13,75.13,75.13c41.24,0,74.71-33.24,75.11-74.39L225,192z"/>
	<circle class="st2" cx="186.49" cy="330.11" r="71.71"/>
	<polygon class="st2" points="187.07,184.65 88.49,355.39 285.64,355.39 	"/>
	<polygon class="st0" points="232.95,233.64 304.32,220.18 304.27,219.93 225.58,192.34 288.82,138 288.77,137.74 217.4,151.2 	"/>
	<path class="st3" d="M363.06,250.76c-17.29,0-32.45,9.05-41.04,22.66L337,289l-22.43,9.11c-0.01,0.39-0.03,0.78-0.03,1.17
		c0,26.8,21.72,48.52,48.52,48.52c26.8,0,48.52-21.72,48.52-48.52C411.58,272.48,389.86,250.76,363.06,250.76z"/>
	<circle class="st3" cx="362.32" cy="377.94" r="46.31"/>
	<polygon class="st3" points="361.95,284 425.62,394.27 298.29,394.27 	"/>
	<polygon class="st0" points="332.32,315.63 286.23,306.94 286.26,306.79 337.08,288.97 296.24,253.87 296.27,253.7 342.36,262.39 	
		"/>
	<path class="st4" d="M167.76,166.67c11.33-3.79,23.03-0.46,28.88,7.45c-0.02-1.98-0.31-3.96-0.96-5.9
		c-3.88-11.6-18.06-17.3-31.66-12.75c-13.6,4.56-21.48,17.65-17.6,29.24c0.65,1.94,1.61,3.7,2.79,5.29
		C149.1,180.18,156.44,170.47,167.76,166.67z"/>
	<path class="st4" d="M374.42,272.39c-7.31-2.45-14.87-0.29-18.65,4.81c0.01-1.28,0.2-2.56,0.62-3.81
		c2.51-7.49,11.66-11.17,20.45-8.23c8.79,2.94,13.88,11.4,11.37,18.89c-0.42,1.25-1.04,2.39-1.8,3.42
		C386.47,281.11,381.74,274.84,374.42,272.39z"/>
</g>
<g>
	<g>
		<path class="st1" d="M583.86,129.19h72.26v21.24h-48.41v30.13h44.58v21.24h-44.58v49.28h-23.86V129.19z"/>
		<path class="st1" d="M671.27,169.06c4.64-2.09,10.16-3.74,16.54-4.96c6.38-1.22,13.06-1.83,20.03-1.83
			c6.04,0,11.08,0.73,15.15,2.18c4.06,1.45,7.28,3.51,9.67,6.18c2.38,2.67,4.06,5.86,5.05,9.58c0.98,3.72,1.48,7.9,1.48,12.54
			c0,5.11-0.17,10.25-0.52,15.41c-0.35,5.17-0.55,10.25-0.61,15.24c-0.06,4.99,0.09,9.84,0.44,14.54s1.22,9.14,2.61,13.32h-18.46
			l-3.66-12.02h-0.87c-2.32,3.6-5.55,6.7-9.67,9.32c-4.12,2.61-9.43,3.92-15.93,3.92c-4.07,0-7.72-0.61-10.97-1.83
			c-3.25-1.22-6.04-2.96-8.36-5.22c-2.32-2.26-4.12-4.93-5.4-8.01c-1.28-3.07-1.92-6.53-1.92-10.36c0-5.34,1.19-9.84,3.57-13.5
			c2.38-3.66,5.8-6.62,10.27-8.88c4.47-2.26,9.81-3.83,16.02-4.7c6.21-0.87,13.15-1.13,20.81-0.78c0.81-6.5,0.35-11.17-1.39-14.02
			c-1.74-2.84-5.63-4.27-11.67-4.27c-4.53,0-9.32,0.47-14.37,1.39c-5.05,0.93-9.2,2.15-12.45,3.66L671.27,169.06z M700,233.84
			c4.53,0,8.13-1.01,10.8-3.05c2.67-2.03,4.64-4.21,5.92-6.53v-11.32c-3.6-0.35-7.05-0.41-10.36-0.17
			c-3.31,0.23-6.24,0.76-8.79,1.57c-2.55,0.81-4.59,1.98-6.09,3.48c-1.51,1.51-2.26,3.43-2.26,5.75c0,3.25,0.96,5.78,2.87,7.57
			C693.99,232.94,696.63,233.84,700,233.84z"/>
		<path class="st1" d="M807.61,251.08v-47.36c0-8.01-0.76-13.7-2.26-17.06c-1.51-3.37-4.64-5.05-9.4-5.05
			c-3.95,0-7.14,1.07-9.58,3.22c-2.44,2.15-4.3,4.91-5.57,8.27v57.99h-22.64v-87.07h17.59l2.61,11.49h0.7
			c2.67-3.71,6.06-6.97,10.19-9.75c4.12-2.79,9.43-4.18,15.93-4.18c5.57,0,10.13,1.13,13.67,3.4c3.54,2.26,6.3,6.07,8.27,11.41
			c2.67-4.53,6.09-8.12,10.27-10.8c4.18-2.67,9.23-4,15.15-4c4.88,0,9.03,0.58,12.45,1.74c3.42,1.16,6.21,3.16,8.36,6.01
			c2.15,2.85,3.74,6.65,4.79,11.41c1.04,4.76,1.57,10.8,1.57,18.11v52.24h-22.64v-48.93c0-6.85-0.73-11.99-2.18-15.41
			c-1.45-3.42-4.67-5.14-9.67-5.14c-4.06,0-7.29,1.1-9.66,3.31c-2.38,2.21-4.15,5.22-5.31,9.06v57.12H807.61z"/>
		<path class="st1" d="M896.94,139.46c0-3.37,1.25-6.24,3.74-8.62c2.5-2.38,5.95-3.57,10.36-3.57c4.41,0,7.98,1.19,10.71,3.57
			c2.73,2.38,4.09,5.25,4.09,8.62c0,3.37-1.37,6.18-4.09,8.45c-2.73,2.26-6.3,3.4-10.71,3.4c-4.41,0-7.87-1.13-10.36-3.4
			C898.19,145.64,896.94,142.83,896.94,139.46z M900.25,164.01h22.64v87.07h-22.64V164.01z"/>
		<path class="st1" d="M968.51,221.82c0,4.06,0.52,7.03,1.57,8.88c1.04,1.86,2.73,2.79,5.05,2.79c1.39,0,2.76-0.11,4.09-0.35
			c1.33-0.23,2.99-0.75,4.96-1.57l2.44,17.76c-1.86,0.93-4.7,1.86-8.53,2.79c-3.83,0.93-7.78,1.39-11.84,1.39
			c-6.62,0-11.67-1.54-15.15-4.61c-3.48-3.07-5.22-8.15-5.22-15.24V129.19h22.64V221.82z"/>
		<path class="st1" d="M994.97,139.46c0-3.37,1.25-6.24,3.74-8.62c2.5-2.38,5.95-3.57,10.36-3.57c4.41,0,7.98,1.19,10.71,3.57
			c2.73,2.38,4.09,5.25,4.09,8.62c0,3.37-1.37,6.18-4.09,8.45c-2.73,2.26-6.3,3.4-10.71,3.4c-4.41,0-7.87-1.13-10.36-3.4
			C996.22,145.64,994.97,142.83,994.97,139.46z M998.28,164.01h22.64v87.07h-22.64V164.01z"/>
		<path class="st1" d="M1112.86,243.59c-3.48,2.79-8.21,5.14-14.19,7.05c-5.98,1.92-12.34,2.87-19.07,2.87
			c-14.05,0-24.32-4.09-30.82-12.28c-6.5-8.18-9.75-19.42-9.75-33.69c0-15.32,3.66-26.82,10.97-34.48s17.59-11.49,30.82-11.49
			c4.41,0,8.71,0.58,12.89,1.74c4.18,1.16,7.89,3.08,11.14,5.75c3.25,2.67,5.86,6.27,7.84,10.8c1.97,4.53,2.96,10.16,2.96,16.89
			c0,2.44-0.15,5.05-0.44,7.84c-0.29,2.79-0.72,5.69-1.3,8.71h-52.07c0.35,7.31,2.23,12.83,5.64,16.54
			c3.41,3.72,8.94,5.57,16.57,5.57c4.74,0,9-0.72,12.75-2.18c3.76-1.45,6.62-2.93,8.59-4.44L1112.86,243.59z M1080.55,179.68
			c-5.89,0-10.25,1.77-13.08,5.31c-2.83,3.54-4.53,8.27-5.11,14.19h32.21c0.46-6.27-0.49-11.08-2.86-14.45
			C1089.35,181.37,1085.63,179.68,1080.55,179.68z"/>
		<path class="st1" d="M678.41,396.83l2.61-24.2h-1.04l-7.49,19.5l-25.95,45.45h-7.66l-27.34-45.62l-7.66-19.33h-0.87l3.48,24.03
			v63.38h-22.64V338.14h21.77l32.56,55.72l5.75,13.93h0.7l5.22-14.28l30.82-55.37h21.59v121.89h-23.86V396.83z"/>
		<path class="st1" d="M718.46,416.5c0-14.74,3.6-26.09,10.8-34.04c7.2-7.95,17.3-11.93,30.3-11.93c6.96,0,13,1.1,18.11,3.31
			c5.11,2.21,9.34,5.31,12.71,9.32c3.37,4.01,5.89,8.85,7.57,14.54c1.68,5.69,2.53,11.96,2.53,18.81c0,14.74-3.57,26.09-10.71,34.04
			c-7.14,7.95-17.21,11.93-30.21,11.93c-6.97,0-13-1.1-18.11-3.31c-5.11-2.2-9.38-5.31-12.8-9.32c-3.42-4-5.98-8.85-7.66-14.54
			C719.3,429.62,718.46,423.35,718.46,416.5z M741.79,416.5c0,3.83,0.35,7.37,1.04,10.62c0.7,3.25,1.74,6.09,3.13,8.53
			c1.39,2.44,3.22,4.33,5.49,5.66c2.26,1.34,4.96,2,8.1,2c5.92,0,10.33-2.15,13.23-6.44c2.9-4.29,4.35-11.08,4.35-20.37
			c0-8.01-1.34-14.48-4-19.42c-2.67-4.93-7.2-7.4-13.58-7.4c-5.57,0-9.93,2.09-13.06,6.27C743.36,400.13,741.79,406.99,741.79,416.5
			z"/>
		<path class="st1" d="M839.48,430.78c0,4.06,0.52,7.02,1.57,8.88c1.04,1.86,2.73,2.79,5.05,2.79c1.39,0,2.76-0.11,4.09-0.35
			c1.33-0.23,2.99-0.75,4.96-1.57l2.44,17.76c-1.86,0.93-4.7,1.86-8.53,2.79c-3.83,0.93-7.78,1.39-11.84,1.39
			c-6.62,0-11.67-1.54-15.15-4.61c-3.48-3.07-5.22-8.15-5.22-15.24V338.14h22.64V430.78z"/>
		<path class="st1" d="M936.99,452.55c-3.48,2.79-8.21,5.14-14.19,7.05c-5.98,1.92-12.34,2.87-19.07,2.87
			c-14.05,0-24.32-4.09-30.82-12.28c-6.5-8.18-9.75-19.42-9.75-33.69c0-15.32,3.66-26.82,10.97-34.48
			c7.31-7.66,17.59-11.49,30.82-11.49c4.41,0,8.71,0.58,12.89,1.74c4.18,1.16,7.89,3.08,11.14,5.75c3.25,2.67,5.86,6.27,7.84,10.8
			c1.97,4.53,2.96,10.16,2.96,16.89c0,2.44-0.15,5.05-0.44,7.84c-0.29,2.79-0.72,5.69-1.3,8.71h-52.07
			c0.35,7.31,2.23,12.83,5.64,16.54c3.41,3.72,8.94,5.57,16.57,5.57c4.74,0,9-0.72,12.75-2.18c3.76-1.45,6.62-2.93,8.59-4.44
			L936.99,452.55z M904.68,388.64c-5.89,0-10.25,1.77-13.08,5.31c-2.83,3.54-4.53,8.27-5.11,14.19h32.21
			c0.46-6.27-0.49-11.08-2.86-14.45C913.48,390.33,909.76,388.64,904.68,388.64z"/>
		<path class="st1" d="M1009.08,460.04v-49.45c0-7.08-1.02-12.19-3.05-15.32c-2.03-3.13-5.49-4.7-10.36-4.7
			c-4.3,0-7.92,1.25-10.88,3.74c-2.96,2.5-5.08,5.6-6.36,9.32v56.42h-22.64v-87.07h17.94l2.61,11.49h0.7
			c2.67-3.71,6.21-6.96,10.62-9.75c4.41-2.79,10.1-4.18,17.06-4.18c4.29,0,8.13,0.58,11.49,1.74c3.37,1.16,6.21,3.08,8.53,5.75
			c2.32,2.67,4.06,6.3,5.22,10.88c1.16,4.59,1.74,10.25,1.74,16.98v54.16H1009.08z"/>
		<path class="st1" d="M1050.7,338.14h22.64v41.79h0.7c2.44-2.79,5.57-4.99,9.4-6.62c3.83-1.62,8.07-2.44,12.71-2.44
			c10.45,0,18.43,3.57,23.94,10.71c5.51,7.14,8.27,18.02,8.27,32.65c0,15.67-3.86,27.57-11.58,35.7
			c-7.72,8.13-18.31,12.19-31.78,12.19c-7.43,0-14.22-0.61-20.37-1.83c-6.16-1.22-10.8-2.58-13.93-4.09V338.14z M1089.53,390.04
			c-4.18,0-7.57,1.07-10.19,3.22c-2.61,2.15-4.61,5.25-6.01,9.32v37.96c1.86,0.93,3.86,1.57,6.01,1.92
			c2.15,0.35,4.44,0.52,6.88,0.52c6.15,0,10.82-2.23,14.02-6.7c3.19-4.47,4.79-11.58,4.79-21.33
			C1105.03,398.34,1099.86,390.04,1089.53,390.04z"/>
		<path class="st1" d="M1213.68,452.55c-3.48,2.79-8.21,5.14-14.19,7.05c-5.98,1.92-12.34,2.87-19.07,2.87
			c-14.05,0-24.32-4.09-30.82-12.28c-6.5-8.18-9.75-19.42-9.75-33.69c0-15.32,3.66-26.82,10.97-34.48
			c7.31-7.66,17.59-11.49,30.82-11.49c4.41,0,8.71,0.58,12.89,1.74c4.18,1.16,7.89,3.08,11.14,5.75c3.25,2.67,5.86,6.27,7.84,10.8
			c1.97,4.53,2.96,10.16,2.96,16.89c0,2.44-0.15,5.05-0.44,7.84c-0.29,2.79-0.72,5.69-1.3,8.71h-52.07
			c0.35,7.31,2.23,12.83,5.64,16.54c3.41,3.72,8.94,5.57,16.57,5.57c4.74,0,9-0.72,12.75-2.18c3.76-1.45,6.62-2.93,8.59-4.44
			L1213.68,452.55z M1181.37,388.64c-5.89,0-10.25,1.77-13.08,5.31c-2.83,3.54-4.53,8.27-5.11,14.19h32.21
			c0.46-6.27-0.49-11.08-2.86-14.45C1190.17,390.33,1186.45,388.64,1181.37,388.64z"/>
		<path class="st1" d="M1301.27,452.55c-3.48,2.79-8.21,5.14-14.19,7.05c-5.98,1.92-12.34,2.87-19.07,2.87
			c-14.05,0-24.32-4.09-30.82-12.28c-6.5-8.18-9.75-19.42-9.75-33.69c0-15.32,3.66-26.82,10.97-34.48
			c7.31-7.66,17.59-11.49,30.82-11.49c4.41,0,8.71,0.58,12.89,1.74c4.18,1.16,7.89,3.08,11.14,5.75c3.25,2.67,5.86,6.27,7.84,10.8
			c1.97,4.53,2.96,10.16,2.96,16.89c0,2.44-0.15,5.05-0.44,7.84c-0.29,2.79-0.72,5.69-1.3,8.71h-52.07
			c0.35,7.31,2.23,12.83,5.64,16.54c3.41,3.72,8.94,5.57,16.57,5.57c4.74,0,9-0.72,12.75-2.18c3.76-1.45,6.62-2.93,8.59-4.44
			L1301.27,452.55z M1268.96,388.64c-5.89,0-10.25,1.77-13.08,5.31c-2.83,3.54-4.53,8.27-5.11,14.19h32.21
			c0.46-6.27-0.49-11.08-2.86-14.45C1277.76,390.33,1274.04,388.64,1268.96,388.64z"/>
		<path class="st1" d="M1348.81,423.99h-6.09v36.04h-22.64V338.14h22.64v71.92l5.22-2.44l19.85-34.65h24.9l-20.9,33.08l-8.88,6.62
			l9.58,6.79l23.51,40.57h-25.95L1348.81,423.99z"/>
	</g>
</g>
</svg>
