<?xml version="1.0" encoding="utf-8"?>
<!-- Generator: Adobe Illustrator 25.1.0, SVG Export Plug-In . SVG Version: 6.00 Build 0)  -->
<svg version="1.1" id="Layer_1" xmlns="http://www.w3.org/2000/svg" xmlns:xlink="http://www.w3.org/1999/xlink" x="0px" y="0px"
	 viewBox="0 0 161 132" style="enable-background:new 0 0 161 132;" xml:space="preserve">
<style type="text/css">
	.st0{fill:#F9CBCA;stroke:#E05248;stroke-width:3;stroke-miterlimit:10;}
	.st1{fill:#FFB035;}
	.st2{fill:#FFF8F8;}
</style>
<g id="contact">
	<path class="st0" d="M135.36,104.81L29.13,130.08c-3.21,0.76-6.46-1.24-7.23-4.45L2.17,42.67c-0.76-3.21,1.24-6.46,4.45-7.23
		l106.22-25.27c3.21-0.76,6.46,1.24,7.23,4.45l19.74,82.96C140.57,100.79,138.57,104.04,135.36,104.81z"/>
	<path class="st1" d="M124.55,33.46c0,0-28.05-1.68-30.84,6.33s-0.66,30.34-12.09,30.34s-31.28,3.23-33.75,20.73
		c-1.55,10.98-18.53-9.42-25.1-2.85c-3.45,3.45-1.68,34.15-1.68,34.15s0.82,10.66,11.52,7.09c2.88-0.96,55.93-13.31,55.93-13.31
		s5.58-26.68,16.74-23.5c11.16,3.19,22.61-7.74,19.28-15.83c-3.33-8.09-6.66-21.73,0.59-22.89
		C132.38,52.59,124.55,33.46,124.55,33.46z"/>
	<g>
		<g id="krant_1_">
			<g>
				<path class="st2" d="M154,123.55H64.23c-3.3,0-6-2.7-6-6V54.26c0-3.3,2.7-6,6-6H154c3.3,0,6,2.7,6,6v63.28
					C160,120.85,157.3,123.55,154,123.55z"/>
				<g>
					<path class="st1" d="M154,122.05c-8.46,0-16.91,0-25.37,0c-14.98,0-29.96,0-44.94,0c-5.18,0-10.35,0-15.53,0
						c-1.18,0-2.36,0.01-3.55,0c-2.64-0.01-4.82-1.76-4.88-4.52c-0.25-10.69,0-21.42,0-32.12c0-10.37-0.25-20.77,0-31.14
						c0.07-2.85,2.36-4.5,5.02-4.5c1.29,0,2.57,0,3.86,0c5.31,0,10.61,0,15.92,0c15,0,30,0,45,0c5.88,0,11.77,0,17.65,0
						c1.71,0,3.41,0,5.12,0c0.91,0,1.9-0.08,2.78,0.14c2.62,0.65,3.41,2.98,3.41,5.34c0,1.81,0,3.63,0,5.44c0,6.66,0,13.33,0,19.99
						c0,12.07,0,24.13,0,36.2C158.5,119.59,156.96,121.96,154,122.05c-1.93,0.05-1.93,3.05,0,3c4.29-0.12,7.47-3.51,7.5-7.75
						c0.01-1.42,0-2.84,0-4.25c0-6.49,0-12.97,0-19.46c0-12.78,0-25.56,0-38.34c0-2.62-0.65-5.07-2.8-6.8
						c-1.68-1.35-3.61-1.68-5.67-1.68c-4.06,0-8.12,0-12.18,0c-14.98,0-29.95,0-44.93,0c-10.41,0-20.81-0.04-31.22,0
						c-3.01,0.01-5.83,1.39-7.2,4.19c-0.81,1.65-0.78,3.32-0.78,5.08c0,5.5,0,11.01,0,16.51c0,13.92,0,27.84,0,41.77
						c0,1.07-0.03,2.14,0,3.21c0.1,4.21,3.39,7.44,7.58,7.52c2.99,0.06,5.98,0,8.97,0c14.39,0,28.78,0,43.17,0
						c11.87,0,23.74,0,35.61,0c0.64,0,1.29,0,1.93,0C155.93,125.05,155.93,122.05,154,122.05z"/>
				</g>
			</g>
		</g>
		<g>
			<g>
				<path class="st1" d="M59.48,52.64c5.62,3.92,11.23,7.83,16.85,11.75c8.95,6.24,17.89,12.47,26.84,18.71
					c2.04,1.42,4.09,2.85,6.13,4.27c0.39,0.27,1.12,0.3,1.51,0c5.2-3.94,10.4-7.89,15.59-11.83c8.3-6.29,16.59-12.59,24.89-18.88
					c1.92-1.46,3.84-2.91,5.76-4.37c1.52-1.15,0.03-3.76-1.51-2.59c-5.2,3.94-10.4,7.89-15.59,11.83
					c-8.3,6.29-16.59,12.59-24.89,18.88c-1.92,1.46-3.84,2.91-5.76,4.37c0.5,0,1.01,0,1.51,0c-5.62-3.92-11.23-7.83-16.85-11.75
					c-8.95-6.24-17.89-12.47-26.84-18.71c-2.04-1.42-4.09-2.85-6.13-4.27C59.41,48.95,57.91,51.55,59.48,52.64L59.48,52.64z"/>
			</g>
		</g>
	</g>
	<g>
		<path class="st1" d="M38.41,73.43c-1.7-2.84-3.34-5.59-4.99-8.35C28.01,56.04,22.58,47,17.21,37.92
			c-3.05-5.16-4.02-10.75-2.96-16.65C15.52,14.23,19.16,8.66,25.2,4.9c7.75-4.83,15.95-5.28,24.17-1.27
			c7.03,3.44,11.39,9.18,13.05,16.83c1.34,6.15,0.41,12.03-2.8,17.45c-6.88,11.62-13.84,23.2-20.76,34.79
			C38.73,72.93,38.6,73.14,38.41,73.43z M49.07,25.91c-0.01-6.01-4.76-10.7-10.81-10.68c-5.8,0.02-10.51,4.84-10.5,10.71
			c0.01,5.9,4.73,10.67,10.64,10.66C44.52,36.59,49.14,31.63,49.07,25.91z"/>
		<path class="st2" d="M49.07,25.91c0.07,5.72-4.56,10.68-10.67,10.69c-5.91,0.01-10.63-4.76-10.64-10.66
			c-0.01-5.88,4.71-10.69,10.5-10.71C44.31,15.21,49.06,19.9,49.07,25.91z"/>
	</g>
</g>
</svg>
