<?xml version="1.0" encoding="utf-8"?>
<!-- Generator: Adobe Illustrator 25.0.1, SVG Export Plug-In . SVG Version: 6.00 Build 0)  -->
<svg version="1.1" id="Layer_1" xmlns="http://www.w3.org/2000/svg" xmlns:xlink="http://www.w3.org/1999/xlink" x="0px" y="0px"
	 viewBox="0 0 161 132" style="enable-background:new 0 0 161 132;" xml:space="preserve">
<style type="text/css">
	.st0{fill:#FFE2C0;stroke:#FFB035;stroke-width:3;stroke-miterlimit:10;}
	.st1{fill:#FFB035;}
	.st2{fill:#FFF8F8;}
</style>
<g id="contact">
	<path class="st0" d="M135.4,104.8L29.1,130.1c-3.2,0.8-6.5-1.2-7.2-4.4l-19.7-83c-0.8-3.2,1.2-6.5,4.4-7.2l106.2-25.3
		c3.2-0.8,6.5,1.2,7.2,4.4l19.7,83C140.6,100.8,138.6,104,135.4,104.8z"/>
	<path class="st1" d="M124.6,33.5c0,0-28.1-1.7-30.8,6.3s-0.7,30.3-12.1,30.3s-31.3,3.2-33.8,20.7c-1.5,11-18.5-9.4-25.1-2.8
		c-3.5,3.4-1.7,34.2-1.7,34.2s0.8,10.7,11.5,7.1c2.9-1,55.9-13.3,55.9-13.3s5.6-26.7,16.7-23.5c11.2,3.2,22.6-7.7,19.3-15.8
		s-6.7-21.7,0.6-22.9C132.4,52.6,124.6,33.5,124.6,33.5z"/>
	<g>
		<g id="krant_1_">
			<g>
				<path class="st2" d="M154,123.6H64.2c-3.3,0-6-2.7-6-6V54.3c0-3.3,2.7-6,6-6H154c3.3,0,6,2.7,6,6v63.3
					C160,120.8,157.3,123.6,154,123.6z"/>
				<g>
					<path class="st1" d="M154,122.1c-8.5,0-16.9,0-25.4,0c-15,0-30,0-44.9,0c-5.2,0-10.3,0-15.5,0c-1.2,0-2.4,0-3.6,0
						c-2.6,0-4.8-1.8-4.9-4.5c-0.2-10.7,0-21.4,0-32.1c0-10.4-0.2-20.8,0-31.1c0.1-2.8,2.4-4.5,5-4.5c1.3,0,2.6,0,3.9,0
						c5.3,0,10.6,0,15.9,0c15,0,30,0,45,0c5.9,0,11.8,0,17.6,0c1.7,0,3.4,0,5.1,0c0.9,0,1.9-0.1,2.8,0.1c2.6,0.7,3.4,3,3.4,5.3
						c0,1.8,0,3.6,0,5.4c0,6.7,0,13.3,0,20c0,12.1,0,24.1,0,36.2C158.5,119.6,157,122,154,122.1c-1.9,0.1-1.9,3.1,0,3
						c4.3-0.1,7.5-3.5,7.5-7.8c0-1.4,0-2.8,0-4.2c0-6.5,0-13,0-19.5c0-12.8,0-25.6,0-38.3c0-2.6-0.6-5.1-2.8-6.8
						c-1.7-1.3-3.6-1.7-5.7-1.7c-4.1,0-8.1,0-12.2,0c-15,0-29.9,0-44.9,0c-10.4,0-20.8,0-31.2,0c-3,0-5.8,1.4-7.2,4.2
						c-0.8,1.7-0.8,3.3-0.8,5.1c0,5.5,0,11,0,16.5c0,13.9,0,27.8,0,41.8c0,1.1,0,2.1,0,3.2c0.1,4.2,3.4,7.4,7.6,7.5c3,0.1,6,0,9,0
						c14.4,0,28.8,0,43.2,0c11.9,0,23.7,0,35.6,0c0.6,0,1.3,0,1.9,0C155.9,125.1,155.9,122.1,154,122.1z"/>
				</g>
			</g>
		</g>
		<g>
			<g>
				<path class="st1" d="M59.5,52.6c5.6,3.9,11.2,7.8,16.9,11.8c8.9,6.2,17.9,12.5,26.8,18.7c2,1.4,4.1,2.8,6.1,4.3
					c0.4,0.3,1.1,0.3,1.5,0c5.2-3.9,10.4-7.9,15.6-11.8c8.3-6.3,16.6-12.6,24.9-18.9c1.9-1.5,3.8-2.9,5.8-4.4c1.5-1.2,0-3.8-1.5-2.6
					c-5.2,3.9-10.4,7.9-15.6,11.8c-8.3,6.3-16.6,12.6-24.9,18.9c-1.9,1.5-3.8,2.9-5.8,4.4c0.5,0,1,0,1.5,0
					C105.2,80.9,99.6,76.9,94,73C85,66.8,76.1,60.6,67.1,54.3c-2-1.4-4.1-2.8-6.1-4.3C59.4,49,57.9,51.5,59.5,52.6L59.5,52.6z"/>
			</g>
		</g>
	</g>
	<g>
		<path class="st1" d="M38.4,73.4c-1.7-2.8-3.3-5.6-5-8.3C28,56,22.6,47,17.2,37.9c-3.1-5.2-4-10.8-3-16.6c1.3-7,4.9-12.6,11-16.4
			c7.8-4.8,16-5.3,24.2-1.3c7,3.4,11.4,9.2,13,16.8c1.3,6.1,0.4,12-2.8,17.5c-6.9,11.6-13.8,23.2-20.8,34.8
			C38.7,72.9,38.6,73.1,38.4,73.4z M49.1,25.9c0-6-4.8-10.7-10.8-10.7c-5.8,0-10.5,4.8-10.5,10.7c0,5.9,4.7,10.7,10.6,10.7
			C44.5,36.6,49.1,31.6,49.1,25.9z"/>
		<path class="st2" d="M49.1,25.9c0.1,5.7-4.6,10.7-10.7,10.7c-5.9,0-10.6-4.8-10.6-10.7c0-5.9,4.7-10.7,10.5-10.7
			C44.3,15.2,49.1,19.9,49.1,25.9z"/>
	</g>
</g>
</svg>
