<?xml version="1.0" encoding="utf-8"?>
<!-- Generator: Adobe Illustrator 25.0.1, SVG Export Plug-In . SVG Version: 6.00 Build 0)  -->
<svg version="1.1" id="Layer_1" xmlns="http://www.w3.org/2000/svg" xmlns:xlink="http://www.w3.org/1999/xlink" x="0px" y="0px"
	 viewBox="0 0 200 200" style="enable-background:new 0 0 200 200;" xml:space="preserve">
<style type="text/css">
	.st0{fill:#FFB035;}
	.st1{fill:#FFFFFF;}
</style>
<g>
	<polygon class="st0" points="196.84,74.93 185.07,91.05 92.23,37.04 20.15,115.38 3.16,101.46 88.01,8.46 	"/>
	
		<rect x="32.38" y="34.37" transform="matrix(0.9893 -0.1459 0.1459 0.9893 -7.1647 7.0104)" class="st0" width="23.64" height="35.95"/>
	<polygon class="st0" points="91.26,135.26 121.96,130.73 129.07,178.97 183.17,170.99 171.67,93.03 93.88,48.25 32.33,113.58 
		43.83,191.54 98.38,183.49 	"/>
	
		<rect x="84.97" y="85.21" transform="matrix(0.9893 -0.1459 0.1459 0.9893 -12.4571 14.391)" class="st1" width="13.79" height="13.79"/>
	
		<rect x="87.49" y="102.27" transform="matrix(0.9893 -0.1459 0.1459 0.9893 -14.9186 14.9406)" class="st1" width="13.79" height="13.79"/>
	
		<rect x="102.02" y="82.7" transform="matrix(0.9893 -0.1459 0.1459 0.9893 -11.9076 16.8525)" class="st1" width="13.79" height="13.79"/>
	
		<rect x="104.54" y="99.75" transform="matrix(0.9893 -0.1459 0.1459 0.9893 -14.369 17.4021)" class="st1" width="13.79" height="13.79"/>
</g>
</svg>
