<?xml version="1.0" encoding="utf-8"?>
<!-- Generator: Adobe Illustrator 25.0.1, SVG Export Plug-In . SVG Version: 6.00 Build 0)  -->
<svg version="1.1" id="Layer_1" xmlns="http://www.w3.org/2000/svg" xmlns:xlink="http://www.w3.org/1999/xlink" x="0px" y="0px"
	 viewBox="0 0 161 140" style="enable-background:new 0 0 161 140;" xml:space="preserve">
<style type="text/css">
	.st0{fill:#FFB035;}
	.st1{fill:#FFF5F5;}
</style>
<g id="kalender_logo">
	<g>
		<path class="st0" d="M156.4,110.4L31.2,140.1c-3.2,0.8-6.5-1.2-7.2-4.4L0.6,37.6c-0.8-3.2,1.2-6.5,4.4-7.2L130.2,0.6
			c3.2-0.8,6.5,1.2,7.2,4.4l23.4,98.1C161.6,106.4,159.6,109.6,156.4,110.4z"/>
		<g id="vierkantjes">
			<g>
				
					<rect x="39.3" y="29.8" transform="matrix(0.9728 -0.2315 0.2315 0.9728 -7.7125 12.2983)" class="st1" width="18.5" height="18.5"/>
				
					<rect x="21.9" y="60.5" transform="matrix(0.9728 -0.2315 0.2315 0.9728 -15.3089 9.104)" class="st1" width="18.5" height="18.5"/>
				
					<rect x="45.3" y="55" transform="matrix(0.9728 -0.2315 0.2315 0.9728 -13.383 14.3718)" class="st1" width="18.5" height="18.5"/>
				
					<rect x="62.7" y="24.2" transform="matrix(0.9728 -0.2315 0.2315 0.9728 -5.7874 17.5639)" class="st1" width="18.5" height="18.5"/>
				
					<rect x="86.1" y="18.6" transform="matrix(0.9728 -0.2315 0.2315 0.9728 -3.8615 22.8317)" class="st1" width="18.5" height="18.5"/>
				
					<rect x="68.7" y="49.4" transform="matrix(0.9728 -0.2315 0.2315 0.9728 -11.4601 19.6382)" class="st1" width="18.5" height="18.5"/>
				
					<rect x="92.1" y="43.8" transform="matrix(0.9728 -0.2315 0.2315 0.9728 -9.5351 24.9039)" class="st1" width="18.5" height="18.5"/>
				
					<rect x="109.5" y="13" transform="matrix(0.9728 -0.2315 0.2315 0.9728 -1.9364 28.0974)" class="st1" width="18.5" height="18.5"/>
				
					<rect x="115.5" y="38.3" transform="matrix(0.9728 -0.2315 0.2315 0.9728 -7.6092 30.1717)" class="st1" width="18.5" height="18.5"/>
				
					<rect x="27.9" y="85.7" transform="matrix(0.9728 -0.2315 0.2315 0.9728 -20.9816 11.1783)" class="st1" width="18.5" height="18.5"/>
				
					<rect x="51.3" y="80.2" transform="matrix(0.9728 -0.2315 0.2315 0.9728 -19.0566 16.4439)" class="st1" width="18.5" height="18.5"/>
				
					<rect x="33.9" y="110.9" transform="matrix(0.9728 -0.2315 0.2315 0.9728 -26.6522 13.2518)" class="st1" width="18.5" height="18.5"/>
				
					<rect x="57.3" y="105.4" transform="matrix(0.9728 -0.2315 0.2315 0.9728 -24.7271 18.5175)" class="st1" width="18.5" height="18.5"/>
				
					<rect x="74.7" y="74.6" transform="matrix(0.9728 -0.2315 0.2315 0.9728 -17.1307 21.7118)" class="st1" width="18.5" height="18.5"/>
				
					<rect x="98.1" y="69" transform="matrix(0.9728 -0.2315 0.2315 0.9728 -15.2056 26.9774)" class="st1" width="18.5" height="18.5"/>
				
					<rect x="80.7" y="99.8" transform="matrix(0.9728 -0.2315 0.2315 0.9728 -22.802 23.7831)" class="st1" width="18.5" height="18.5"/>
				
					<rect x="104.1" y="94.2" transform="matrix(0.9728 -0.2315 0.2315 0.9728 -20.8783 29.0517)" class="st1" width="18.5" height="18.5"/>
				
					<rect x="121.5" y="63.5" transform="matrix(0.9728 -0.2315 0.2315 0.9728 -13.2805 32.243)" class="st1" width="18.5" height="18.5"/>
			</g>
		</g>
	</g>
</g>
</svg>
