<?xml version="1.0" encoding="utf-8"?>
<!-- Generator: Adobe Illustrator 25.0.1, SVG Export Plug-In . SVG Version: 6.00 Build 0)  -->
<svg version="1.1" id="Layer_1" xmlns="http://www.w3.org/2000/svg" xmlns:xlink="http://www.w3.org/1999/xlink" x="0px" y="0px"
	 viewBox="0 0 161 141" style="enable-background:new 0 0 161 141;" xml:space="preserve">
<style type="text/css">
	.st0{fill:#FFB035;}
	.st1{fill:#FFEDDC;stroke:#FFB035;stroke-width:2;stroke-miterlimit:10;}
	.st2{font-family:'ArialMT';}
	.st3{font-size:27.7584px;}
	.st4{fill:none;stroke:#FFB035;stroke-width:3;stroke-miterlimit:10;}
</style>
<g id="krant">
	<path class="st0" d="M156.2,110.6L31.1,140.4c-3.2,0.8-6.5-1.2-7.2-4.4L0.5,37.8c-0.8-3.2,1.2-6.5,4.4-7.2L130.1,0.8
		c3.2-0.8,6.5,1.2,7.2,4.4l23.4,98.1C161.5,106.6,159.5,109.8,156.2,110.6z"/>
	<path class="st1" d="M135.7,127H7c-3.3,0-6-2.7-6-6V20.1c0-3.3,2.7-6,6-6h128.6c3.3,0,6,2.7,6,6V121C141.7,124.3,139,127,135.7,127
		z"/>
	<path id="foto_krant" class="st0" d="M56.1,65.9H20c-3.3,0-6-2.7-6-6v-25c0-3.3,2.7-6,6-6h36.1c3.3,0,6,2.7,6,6v25
		C62.1,63.2,59.4,65.9,56.1,65.9z"/>
	<g>
		<text transform="matrix(1 0 0 1 71.5632 54.6257)" class="st0 st2 st3">NWS</text>
	</g>
	<g id="lijntjes">
		<g>
			<line class="st4" x1="19.5" y1="84.4" x2="115.8" y2="84.4"/>
			<line class="st4" x1="19.5" y1="96.5" x2="115.8" y2="96.5"/>
			<line class="st4" x1="19.5" y1="109.4" x2="115.8" y2="109.4"/>
		</g>
	</g>
</g>
</svg>
