<?xml version="1.0" encoding="utf-8"?>
<!-- Generator: Adobe Illustrator 25.0.1, SVG Export Plug-In . SVG Version: 6.00 Build 0)  -->
<svg version="1.1" id="Layer_1" xmlns="http://www.w3.org/2000/svg" xmlns:xlink="http://www.w3.org/1999/xlink" x="0px" y="0px"
	 viewBox="0 0 174.1 150.6" style="enable-background:new 0 0 174.1 150.6;" xml:space="preserve">
<style type="text/css">
	.st0{fill:#333333;}
	.st1{fill:#FFFFFF;}
</style>
<g>
	<g>
		<path class="st0" d="M113.6,0H24.7C11,0,0,11,0,24.7v58.2c0,13.6,11,24.7,24.7,24.7h96.5"/>
	</g>
	<g>
		<path class="st0" d="M52.9,107.5h96.5c13.6,0,24.7-11,24.7-24.7V24.7c0-13.6-11-24.7-24.7-24.7L60.5,0"/>
	</g>
</g>
<g>
	<path class="st1" d="M58.5,58.7l-4.7-10.3h-0.6L55,58.7v23H39.7V22.2h13.2l16.6,23.7L73.9,56h0.6l-1.8-10.1V22.2H88v59.6H74.9
		L58.5,58.7z"/>
	<path class="st1" d="M134.4,81.8H94.3V22.2h16.2v45.1h24v14.5H134.4z"/>
</g>
</svg>
