<?xml version="1.0" encoding="utf-8"?>
<!-- Generator: Adobe Illustrator 25.0.1, SVG Export Plug-In . SVG Version: 6.00 Build 0)  -->
<svg version="1.1" id="Layer_1" xmlns="http://www.w3.org/2000/svg" xmlns:xlink="http://www.w3.org/1999/xlink" x="0px" y="0px"
	 viewBox="0 0 200 200" style="enable-background:new 0 0 200 200;" xml:space="preserve">
<style type="text/css">
	.st0{fill:#FFB035;}
	.st1{fill:#FFFFFF;}
</style>
<g>
	<path class="st0" d="M11.9,25.8v96.7c0,3,2.4,5.4,5.4,5.4h115.8c1.4,0,2.8,0.6,3.8,1.6l39.9,39.9c3.4,3.4,9.2,1,9.2-3.8V25.8
		c0-3-2.4-5.4-5.4-5.4H17.3C14.3,20.4,11.9,22.8,11.9,25.8z"/>
</g>
<g>
	<path class="st1" d="M70.4,78.9l-4.7-10.3h-0.6l1.8,10.3v23H51.6V42.4h13.2l16.6,23.7l4.5,10.1h0.6l-1.8-10.1V42.4H100V102H86.8
		L70.4,78.9z"/>
	<path class="st1" d="M146.3,102h-40.1V42.4h16.2v45.1h24V102z"/>
</g>
</svg>
