<?xml version="1.0" encoding="utf-8"?>
<!-- Generator: Adobe Illustrator 25.0.1, SVG Export Plug-In . SVG Version: 6.00 Build 0)  -->
<svg version="1.1" id="Layer_1" xmlns="http://www.w3.org/2000/svg" xmlns:xlink="http://www.w3.org/1999/xlink" x="0px" y="0px"
	 viewBox="0 0 200 200" style="enable-background:new 0 0 200 200;" xml:space="preserve">
<style type="text/css">
	.st0{fill:#FFFFFF;}
	.st1{fill:#FFB035;}
</style>
<g>
	<rect x="32.9" y="41.4" class="st0" width="132.1" height="86.5"/>
	<g>
		<g>
			<path class="st1" d="M165,41.4v86.5l-13.3-13.3c-5-5-11.6-7.7-18.7-7.7H32.9V41.4H165 M180.6,20.4H17.3c-3,0-5.4,2.4-5.4,5.4
				v96.7c0,3,2.4,5.4,5.4,5.4h115.8c1.4,0,2.8,0.6,3.8,1.6l39.9,39.9c1.1,1.1,2.5,1.6,3.8,1.6c2.8,0,5.4-2.2,5.4-5.4V25.8
				C186,22.8,183.6,20.4,180.6,20.4L180.6,20.4z"/>
		</g>
	</g>
</g>
</svg>
