<?xml version="1.0" encoding="utf-8"?>
<!-- Generator: Adobe Illustrator 25.1.0, SVG Export Plug-In . SVG Version: 6.00 Build 0)  -->
<svg version="1.1" id="Layer_1" xmlns="http://www.w3.org/2000/svg" xmlns:xlink="http://www.w3.org/1999/xlink" x="0px" y="0px"
	 viewBox="0 0 174.1 150.6" style="enable-background:new 0 0 174.1 150.6;" xml:space="preserve">
<style type="text/css">
	.st0{fill:#FFFFFF;}
	.st1{fill:#FFB035;}
</style>
<g>
	<rect x="21" y="21" class="st0" width="132.1" height="86.5"/>
	<g>
		<g>
			<path class="st1" d="M153.1,21v86.5l-13.3-13.3c-5-5-11.6-7.7-18.7-7.7H21V21H153.1 M168.7,0H5.4C2.4,0,0,2.4,0,5.4v96.7
				c0,3,2.4,5.4,5.4,5.4h115.8c1.4,0,2.8,0.6,3.8,1.6l39.9,39.9c1.1,1.1,2.5,1.6,3.8,1.6c2.8,0,5.4-2.2,5.4-5.4V5.4
				C174.1,2.4,171.7,0,168.7,0L168.7,0z"/>
		</g>
	</g>
</g>
</svg>
