<?xml version="1.0" encoding="utf-8"?>
<!-- Generator: Adobe Illustrator 25.0.1, SVG Export Plug-In . SVG Version: 6.00 Build 0)  -->
<svg version="1.1" id="Layer_1" xmlns="http://www.w3.org/2000/svg" xmlns:xlink="http://www.w3.org/1999/xlink" x="0px" y="0px"
	 viewBox="0 0 300 200" style="enable-background:new 0 0 300 200;" xml:space="preserve">
<style type="text/css">
	.st0{fill:#FFB136;}
	.st1{fill:#0077B7;}
	.st2{fill:#FF6057;}
	.st3{fill:#FFFFFF;}
</style>
<g id="Birdlogo">
	<polygon class="st0" points="106.3,156.9 106.3,200 106.5,200 131.2,157.2 155.9,200 156.1,200 156.1,156.9 	"/>
	<polygon class="st0" points="228.3,161.1 228.3,199.8 228.4,199.8 250.6,161.3 272.8,199.8 273,199.8 273,161.1 	"/>
	<path class="st1" d="M154.2,41.1l13.7-14.8c-8-12.1-21.7-20.1-37.2-20.1c-24.6,0-44.6,20-44.6,44.6c0,24.6,20,44.6,44.6,44.6
		c24.5,0,44.3-19.7,44.6-44.1L154.2,41.1z"/>
	<circle class="st1" cx="131.4" cy="123" r="42.5"/>
	<polygon class="st1" points="131.7,36.7 73.2,138 190.2,138 	"/>
	<polygon class="st0" points="158.9,65.8 201.3,57.8 201.2,57.6 154.6,41.3 192.1,9 192.1,8.9 149.7,16.9 	"/>
	<path class="st2" d="M250.9,35.8c-13.6,0-25.5,7.1-32.2,17.8l11.8,12.2L212.8,73c0,0.3,0,0.6,0,0.9c0,21,17.1,38.1,38.1,38.1
		c21,0,38.1-17.1,38.1-38.1C289,52.9,271.9,35.8,250.9,35.8z"/>
	<circle class="st2" cx="250.3" cy="135.7" r="36.4"/>
	<polygon class="st2" points="250,61.9 300,148.5 200,148.5 	"/>
	<polygon class="st0" points="226.7,86.8 190.5,80 190.6,79.8 230.5,65.8 198.4,38.3 198.4,38.2 234.6,45 	"/>
	<path class="st3" d="M120.3,26.1c6.7-2.3,13.7-0.3,17.1,4.4c0-1.2-0.2-2.4-0.6-3.5c-2.3-6.9-10.7-10.3-18.8-7.6
		s-12.7,10.5-10.4,17.3c0.4,1.2,1,2.2,1.7,3.1C109.2,34.1,113.5,28.3,120.3,26.1z"/>
	<path class="st3" d="M259.8,52.8c-5.7-1.9-11.7-0.2-14.6,3.8c0-1,0.2-2,0.5-3c2-5.9,9.2-8.8,16.1-6.5s10.9,9,8.9,14.8
		c-0.3,1-0.8,1.9-1.4,2.7C269.3,59.7,265.5,54.7,259.8,52.8z"/>
</g>
<polygon class="st0" points="54.2,170.7 54.2,199.9 54.1,199.9 37.3,170.9 20.5,199.9 20.4,199.9 20.4,170.7 "/>
<path class="st2" d="M37.1,76.1c10.3,0,19.3,5.4,24.3,13.4l-8.9,9.2l13.3,5.4c0,0.2,0,0.5,0,0.7c0,15.9-12.9,28.8-28.8,28.8
	c-15.9,0-28.8-12.9-28.8-28.8C8.3,89,21.2,76.1,37.1,76.1z"/>
<circle class="st2" cx="37.5" cy="151.5" r="27.5"/>
<polygon class="st2" points="37.8,95.8 0,161.2 75.5,161.2 "/>
<polygon class="st0" points="55.3,114.6 82.7,109.4 82.7,109.3 52.5,98.7 76.8,77.9 76.7,77.8 49.4,83 "/>
<path class="st3" d="M30.4,88.9c4.3-1.5,8.8-0.2,11.1,2.9c0-0.8-0.1-1.5-0.4-2.3c-1.5-4.4-6.9-6.6-12.1-4.9
	c-5.2,1.7-8.2,6.8-6.7,11.2c0.2,0.7,0.6,1.4,1.1,2C23.2,94.1,26,90.4,30.4,88.9z"/>
</svg>
