<?xml version="1.0" encoding="utf-8"?>
<!-- Generator: Adobe Illustrator 25.0.1, SVG Export Plug-In . SVG Version: 6.00 Build 0)  -->
<svg version="1.1" id="Layer_1" xmlns="http://www.w3.org/2000/svg" xmlns:xlink="http://www.w3.org/1999/xlink" x="0px" y="0px"
	 viewBox="0 0 1920 695.4" style="enable-background:new 0 0 1920 695.4;" xml:space="preserve">
<style type="text/css">
	.st0{fill:url(#SVGID_1_);}
	.st1{opacity:0.5;fill:#FFFFFF;enable-background:new    ;}
	.st2{fill:url(#SVGID_2_);}
	.st3{fill:#C4DFF2;}
	.st4{fill:none;}
	.st5{display:none;fill:#C4DFF2;}
	.st6{fill:#FFB136;}
	.st7{fill:#FF9700;}
	.st8{fill:#FFFFFF;}
	.st9{fill:#FFFFFF;stroke:#FFB136;stroke-width:1.3284;stroke-miterlimit:10;}
	.st10{fill:none;stroke:#FFB136;stroke-width:1.3284;stroke-miterlimit:10;}
	.st11{fill:#B3D6FF;stroke:#3E4860;stroke-width:1.3284;stroke-miterlimit:10;}
	.st12{fill:none;stroke:#FFFFFF;stroke-width:1.3284;stroke-miterlimit:9.9998;stroke-dasharray:2.7859,8.3577;}
	.st13{fill:#0077B7;}
	.st14{fill:#FF4343;}
	.st15{fill:#FF45DC;}
	.st16{fill:#FF6666;}
	.st17{fill:#FF7B7B;}
	.st18{fill:#72E3D8;}
	.st19{fill:#22BC7A;}
	.st20{fill:url(#SVGID_3_);}
	.st21{fill:url(#SVGID_4_);}
	.st22{fill:url(#SVGID_5_);}
	.st23{fill:url(#SVGID_6_);}
	.st24{fill:url(#SVGID_7_);}
	.st25{fill:#48A4FF;}
	.st26{fill:#D33C3C;}
	.st27{fill:#BA4200;}
	.st28{fill:#E29000;}
	.st29{fill:#E2A849;}
	.st30{fill:#AF6C00;}
</style>
<linearGradient id="SVGID_1_" gradientUnits="userSpaceOnUse" x1="958.2935" y1="-2.4213" x2="958.2935" y2="685.5823" gradientTransform="matrix(1 0 0 -1 0 685.5823)">
	<stop  offset="0" style="stop-color:#FFB136"/>
	<stop  offset="0.8324" style="stop-color:#FFFFFF"/>
</linearGradient>
<ellipse class="st0" cx="958.3" cy="344" rx="796.2" ry="344"/>
<path class="st1" d="M645.3,216.2c0-29.3-41.2-53.1-91.9-53.1c-8.8,0-17.2,0.7-25.3,2c-14.4-10.9-36-18.5-60.7-20.4
	c-16.7-9.8-39.8-15.8-65.5-15.8c-47.6,0-86.7,20.9-91.4,47.6c-31.9,8.7-54,27.5-54,49.2c0,30.1,42.2,54.5,94.3,54.5
	c19.5,0,37.6-3.4,52.6-9.3c17.2,13,44.4,21.4,74.9,21.4c31.8,0,59.9-9.1,77-23C605.2,268.7,645.3,245.2,645.3,216.2z"/>
<path class="st1" d="M1295.3,259.2c0-38.9-68.3-70.4-152.6-70.4c-14.6,0-28.6,1-42,2.7c-24-14.5-59.8-24.5-100.9-27.1
	c-27.7-13-66.2-21-108.7-21c-79,0-143.9,27.6-151.8,63.1c-53,11.6-89.6,36.4-89.6,65.3c0,39.9,70.1,72.2,156.6,72.2
	c32.4,0,62.4-4.5,87.4-12.3c28.6,17.2,73.6,28.3,124.3,28.3c52.8,0,99.5-12.1,127.8-30.5C1228.6,328.8,1295.3,297.6,1295.3,259.2z"
	/>
<path class="st1" d="M1564.6,266.7c0-29.3-41.2-53.1-91.9-53.1c-8.8,0-17.2,0.7-25.3,2c-14.4-10.9-36-18.5-60.7-20.4
	c-16.7-9.8-39.8-15.8-65.5-15.8c-47.6,0-86.7,20.9-91.4,47.6c-31.9,8.7-54,27.5-54,49.2c0,30.1,42.2,54.5,94.3,54.5
	c19.5,0,37.6-3.4,52.6-9.3c17.2,13,44.4,21.4,74.9,21.4c31.8,0,59.9-9.1,77-23C1524.4,319.2,1564.6,295.6,1564.6,266.7z"/>
<linearGradient id="SVGID_2_" gradientUnits="userSpaceOnUse" x1="63.9243" y1="202.8892" x2="1843.6312" y2="202.8892" gradientTransform="matrix(1 0 0 -1 0 685.5823)">
	<stop  offset="0.4413" style="stop-color:#22BC7A"/>
	<stop  offset="0.9162" style="stop-color:#FFFFFF"/>
</linearGradient>
<path class="st2" d="M1612.8,454.5v-21.3c6.7-2.7,11.7-13.7,11.7-26.9c0-15.2-6.7-27.6-14.9-27.6s-14.9,12.4-14.9,27.6
	c0,13.2,5,24.2,11.7,26.9v20.5c-22.2-2.7-45.7-5.3-70.4-7.8v-19.9c9.1-3.7,15.8-18.7,15.8-36.5c0-20.7-9.1-37.4-20.2-37.4
	s-20.2,16.8-20.2,37.4c0,17.9,6.8,32.8,15.8,36.5v19c-42.3-4.1-88-7.7-136.6-10.8v-26.6c8.2-3.4,14.3-16.8,14.3-32.9
	c0-18.6-8.2-33.7-18.2-33.7c-10.1,0-18.2,15.1-18.2,33.7c0,16.1,6.1,29.6,14.3,32.9v26.1c-32.9-2.1-67.1-3.9-102.4-5.5v-27.2
	c6.7-2.7,11.7-13.7,11.7-26.9c0-15.2-6.7-27.6-14.9-27.6c-8.2,0-14.9,12.4-14.9,27.6c0,13.2,5,24.2,11.7,26.9v26.9
	c-9.5-0.4-19.1-0.8-28.7-1.2v-21.5c5.7-2.4,10-11.7,10-23c0-13-5.7-23.6-12.7-23.6s-12.7,10.5-12.7,23.6c0,11.3,4.3,20.6,10,23v21.2
	c-10.9-0.4-22-0.8-33.1-1.2V400c6.7-2.7,11.7-13.7,11.7-26.9c0-15.2-6.7-27.6-14.9-27.6s-14.9,12.4-14.9,27.6
	c0,13.2,5,24.2,11.7,26.9v25.1c-25.2-0.8-50.9-1.5-77-2.1v-17.7c5.7-2.4,10-11.7,10-23c0-13-5.7-23.6-12.7-23.6
	s-12.7,10.5-12.7,23.6c0,11.3,4.3,20.6,10,23v17.6c-53-1.1-107.7-1.7-163.5-1.7c-491.5,0-889.9,45.5-889.9,101.6
	c0,56.1,398.4,101.6,889.9,101.6s889.9-45.5,889.9-101.6C1843.5,496.5,1756.2,472.6,1612.8,454.5z"/>
<g id="Karrenveld_2_">
	<g>
		
			<ellipse transform="matrix(4.018988e-03 -1 1 4.018988e-03 233.7073 1109.261)" class="st3" cx="673.7" cy="437.3" rx="5.3" ry="25.2"/>
		<polygon class="st3" points="350.8,463.8 655.1,441.2 655.2,420.9 350.9,440 		"/>
		
			<rect x="665.1" y="403.5" transform="matrix(4.018988e-03 -1 1 4.018988e-03 248.9964 1100.7438)" class="st3" width="23.9" height="43.8"/>
		<polygon class="st3" points="526.3,312.5 526.3,304.4 531.5,303.2 531.5,294.8 536.2,293.5 536.2,284.9 539.5,283.8 539.5,275.1 
			547.3,272.1 547.3,281.2 551,280 550.9,289.3 556.8,287.7 556.7,297.3 564,295.6 563.9,305.6 571.8,304.2 571.3,425 521.1,405.4 
			521.4,313.4 		"/>
		
			<ellipse transform="matrix(4.018988e-03 -1 1 4.018988e-03 437.2062 908.1795)" class="st3" cx="674.5" cy="234.6" rx="27.4" ry="25.2"/>
		
			<ellipse transform="matrix(4.018988e-03 -1 1 4.018988e-03 435.0826 910.2928)" class="st3" cx="674.5" cy="236.7" rx="4" ry="27.9"/>
		
			<ellipse transform="matrix(4.018988e-03 -1 1 4.018988e-03 437.7524 907.6547)" class="st3" cx="674.5" cy="234.1" rx="4" ry="27.9"/>
		
			<rect x="583.8" y="303.1" transform="matrix(4.018988e-03 -1 1 4.018988e-03 343.0689 1001.2065)" class="st3" width="180.7" height="50.5"/>
		<g>
			<polygon class="st3" points="350.9,441.3 571.4,427.2 571.8,317.8 351.5,301.9 			"/>
			<polygon class="st3" points="568.4,427.4 657.8,421.6 658.1,365.2 568.6,363.9 			"/>
			<polygon class="st3" points="570.4,363.8 656.7,365.5 628.9,338.8 570.5,335.9 			"/>
			<path class="st3" d="M612.3,345.3l14.3,0.3c4,0.1,6.1-4.8,3.2-7.6l-4.3-4.2c-1.1-1.1-2.7-1.5-4.2-1.1l-10.8,2.8
				c-3.1,0.8-4.3,4.6-2.3,7.1l0.8,1C609.8,344.7,611,345.3,612.3,345.3z"/>
			<polygon class="st3" points="351.4,304.5 571.9,320 541.5,285.4 318.4,264.5 			"/>
		</g>
		<g>
			<g id="wndow2_162_">
				<polygon class="st3" points="402.9,360.5 424.4,360.6 424.6,319.9 403,318.7 				"/>
				<line class="st4" x1="413.8" y1="360.6" x2="414" y2="319.7"/>
				<line class="st4" x1="424.5" y1="331.2" x2="403" y2="330.3"/>
			</g>
			<g id="wndow2_161_">
				<polygon class="st3" points="363.2,360.4 386.9,360.4 387.1,317.8 363.3,316.5 				"/>
				<line class="st4" x1="375.2" y1="360.4" x2="375.4" y2="317.6"/>
				<line class="st4" x1="387" y1="329.6" x2="363.3" y2="328.6"/>
			</g>
			<g id="wndow2_160_">
				<polygon class="st3" points="437.2,360.6 456.9,360.7 457.1,321.8 437.3,320.7 				"/>
				<line class="st4" x1="447.2" y1="360.7" x2="447.3" y2="321.6"/>
				<line class="st4" x1="457.1" y1="332.5" x2="437.3" y2="331.7"/>
			</g>
			<g id="wndow2_159_">
				<polygon class="st3" points="470.3,360.8 488.5,360.9 488.6,323.5 470.5,322.5 				"/>
				<line class="st4" x1="479.5" y1="360.8" x2="479.7" y2="323.4"/>
				<line class="st4" x1="488.6" y1="333.8" x2="470.4" y2="333.1"/>
			</g>
			<g id="wndow2_158_">
				<polygon class="st3" points="498.4,360.9 515.2,361 515.4,325 498.6,324.1 				"/>
				<line class="st4" x1="506.9" y1="360.9" x2="507.1" y2="324.9"/>
				<line class="st4" x1="515.3" y1="334.9" x2="498.5" y2="334.3"/>
			</g>
			<g id="wndow2_157_">
				<polygon class="st3" points="525.2,361 540.8,361.1 540.9,326.5 525.3,325.6 				"/>
				<line class="st4" x1="533.1" y1="361" x2="533.2" y2="326.3"/>
				<line class="st4" x1="540.8" y1="336" x2="525.3" y2="335.4"/>
			</g>
			<g id="wndow2_156_">
				<polygon class="st3" points="550.6,361.1 565.1,361.2 565.2,327.8 550.8,327 				"/>
				<line class="st4" x1="558" y1="361.1" x2="558.1" y2="327.7"/>
				<line class="st4" x1="565.2" y1="337" x2="550.8" y2="336.4"/>
			</g>
		</g>
		<g>
			<g id="wndow2_155_">
				<polygon class="st3" points="402.1,420.9 423,419.9 423.1,376.4 402.2,376.5 				"/>
				<line class="st4" x1="412.6" y1="420.4" x2="412.7" y2="376.8"/>
				<line class="st4" x1="423.1" y1="388.4" x2="402.1" y2="388.7"/>
			</g>
			<g id="wndow2_154_">
				<polygon class="st3" points="364.2,422.6 386.7,421.6 386.9,376.5 364.4,376.6 				"/>
				<line class="st4" x1="375.6" y1="422.1" x2="375.8" y2="377"/>
				<line class="st4" x1="386.8" y1="388.9" x2="364.4" y2="389.3"/>
			</g>
			<g id="wndow2_153_">
				<polygon class="st3" points="435.5,419.3 455.2,418.4 455.2,376.2 435.6,376.3 				"/>
				<line class="st4" x1="445.5" y1="418.9" x2="445.5" y2="376.7"/>
				<line class="st4" x1="455.2" y1="387.9" x2="435.6" y2="388.2"/>
			</g>
			<g id="wndow2_152_">
				<polygon class="st3" points="468.7,417.8 487.1,417 487,376.1 468.6,376.2 				"/>
				<line class="st4" x1="478" y1="417.4" x2="477.9" y2="376.5"/>
				<line class="st4" x1="487" y1="387.4" x2="468.6" y2="387.7"/>
			</g>
			<g id="wndow2_151_">
				<polygon class="st3" points="497.3,416.5 514.7,415.7 514.6,376 497.2,376.1 				"/>
				<line class="st4" x1="506.1" y1="416.1" x2="506" y2="376.4"/>
				<line class="st4" x1="514.6" y1="386.9" x2="497.2" y2="387.2"/>
			</g>
			<g id="wndow2_150_">
				<polygon class="st3" points="525.1,415.2 541.5,414.5 541.3,375.9 525,376 				"/>
				<line class="st4" x1="533.4" y1="414.8" x2="533.2" y2="376.3"/>
				<line class="st4" x1="541.4" y1="386.5" x2="525" y2="386.8"/>
			</g>
			<g id="wndow2_149_">
				<polygon class="st3" points="552.1,414 567.5,413.3 567.3,375.8 551.9,375.8 				"/>
				<line class="st4" x1="559.9" y1="413.6" x2="559.7" y2="376.1"/>
				<line class="st4" x1="567.4" y1="386.1" x2="551.9" y2="386.4"/>
			</g>
		</g>
		<g>
			<g id="wndow2_148_">
				<polygon class="st3" points="576.3,387.8 589.2,387.6 589.1,376.2 576.2,376.2 				"/>
				<line class="st4" x1="582.8" y1="387.7" x2="582.7" y2="376.3"/>
				<line class="st4" x1="589.1" y1="379.3" x2="576.2" y2="379.4"/>
			</g>
			<g id="wndow2_147_">
				<polygon class="st3" points="596.4,387.5 608.6,387.3 608.4,376.2 596.3,376.2 				"/>
				<line class="st4" x1="602.6" y1="387.4" x2="602.4" y2="376.3"/>
				<line class="st4" x1="608.5" y1="379.3" x2="596.3" y2="379.3"/>
			</g>
			<g id="wndow2_146_">
				<polygon class="st3" points="615.9,387.1 627.4,387 627.2,376.2 615.7,376.2 				"/>
				<line class="st4" x1="621.7" y1="387.1" x2="621.5" y2="376.3"/>
				<line class="st4" x1="627.3" y1="379.2" x2="615.8" y2="379.2"/>
			</g>
			<g id="wndow2_145_">
				<polygon class="st3" points="636.9,405 648.6,404.4 648.4,376.1 636.8,376.2 				"/>
				<line class="st4" x1="642.8" y1="404.7" x2="642.7" y2="376.4"/>
				<line class="st4" x1="648.5" y1="383.9" x2="636.8" y2="384.1"/>
			</g>
		</g>
		
			<ellipse transform="matrix(4.018988e-03 -1 1 4.018988e-03 252.3702 1090.821)" class="st3" cx="673.8" cy="418.7" rx="5.3" ry="25.2"/>
		<line class="st4" x1="658" y1="366.9" x2="657.8" y2="417.3"/>
		<line class="st4" x1="352.1" y1="311.2" x2="351.6" y2="426.1"/>
		<path class="st3" d="M676.3,295.8L676.3,295.8c4.4,0,8-3.6,8-7.9l0-10.6c0-4.4-3.6-8-7.9-8l0,0c-4.4,0-8,3.6-8,7.9l0,10.6
			C668.3,292.2,671.9,295.8,676.3,295.8z"/>
		<path class="st3" d="M676.1,339.7L676.1,339.7c4.4,0,8-3.6,8-7.9l0-10.6c0-4.4-3.6-8-7.9-8l0,0c-4.4,0-8,3.6-8,7.9l0,10.6
			C668.1,336.1,671.7,339.7,676.1,339.7z"/>
		<path class="st3" d="M675.9,383.5L675.9,383.5c4.4,0,8-3.6,8-7.9l0-10.6c0-4.4-3.6-8-7.9-8l0,0c-4.4,0-8,3.6-8,7.9l0,10.6
			C668,379.9,671.5,383.5,675.9,383.5z"/>
		
			<ellipse transform="matrix(4.018988e-03 -1 1 4.018988e-03 433.0901 912.2614)" class="st3" cx="674.5" cy="238.7" rx="6" ry="25.2"/>
		
			<rect x="646.6" y="234" transform="matrix(4.018988e-03 -1 1 4.018988e-03 410.07 882.2943)" class="st3" width="2.7" height="2.7"/>
		
			<rect x="699.8" y="234.2" transform="matrix(4.018988e-03 -1 1 4.018988e-03 462.7783 935.6401)" class="st3" width="2.7" height="2.7"/>
		
			<ellipse transform="matrix(4.018988e-03 -1 1 4.018988e-03 472.8506 872.9797)" class="st3" cx="674.7" cy="199.1" rx="2.2" ry="8"/>
		<polygon class="st3" points="674.7,183.6 682.6,198.8 666.7,198.8 		"/>
		
			<rect x="664" y="203.7" transform="matrix(4.018988e-03 -1 1 4.018988e-03 462.9549 874.848)" class="st3" width="13.3" height="2.7"/>
		
			<rect x="672" y="203.7" transform="matrix(4.018988e-03 -1 1 4.018988e-03 470.856 882.8446)" class="st3" width="13.3" height="2.7"/>
		<polygon class="st3" points="298.6,301.5 298.7,291.5 304.7,289.9 304.7,279.5 310.1,277.9 310.2,267.2 314,265.9 314,254.9 
			323.1,251.3 323.1,262.6 327.3,261.1 327.3,272.7 334.1,270.7 334,282.6 342.5,280.5 342.4,292.9 351.5,291.1 350.9,441.3 
			292.5,434.3 293,302.7 		"/>
		<polygon class="st3" points="461.9,277.4 462.5,277.2 462.5,268.2 470.3,265.1 470.3,274.5 474,273.3 473.9,282.8 479.7,281.2 
			479.7,291 487,289.3 486.9,299.5 494.7,298 494.7,314.6 		"/>
		<polygon class="st3" points="292.4,452.3 350.8,463.9 350.9,441.3 292.5,434.3 		"/>
		<g>
			<polygon class="st3" points="518.8,297.2 518.8,292.3 522.7,292.8 522.8,288.9 530.3,289.8 530.2,293.6 533.9,294 533.9,298.7 
				537.4,299 537.4,314.6 514.8,313.5 514.9,296.8 			"/>
			<polygon class="st3" points="521,312.9 531.8,313.4 531.9,299.4 521,298.4 			"/>
			<line class="st4" x1="526.5" y1="313.1" x2="526.5" y2="299"/>
		</g>
		<g>
			<polygon class="st3" points="445.1,290.9 445.1,285.9 449.1,286.3 449.1,282.3 456.9,283.3 456.9,287.2 460.7,287.6 460.7,292.4 
				464.4,292.8 464.3,309 440.9,307.9 440.9,290.5 			"/>
			<polygon class="st3" points="447.3,307.2 458.6,307.8 458.6,293.2 447.4,292.1 			"/>
			<line class="st4" x1="453" y1="307.5" x2="453.1" y2="292.8"/>
		</g>
		<g>
			<polygon class="st3" points="390,286.2 390,280.7 394.5,281.2 394.5,276.8 403.1,277.8 403.1,282.1 407.2,282.6 407.2,287.9 
				411.3,288.3 411.2,306.2 385.4,304.9 385.5,285.8 			"/>
			<polygon class="st3" points="392.5,304.1 404.9,304.8 404.9,288.7 392.5,287.6 			"/>
			<line class="st4" x1="398.8" y1="304.5" x2="398.8" y2="288.3"/>
		</g>
	</g>
</g>
<g id="Flat_Weststation_1_">
	<g>
		
			<rect x="857.4" y="104.6" transform="matrix(4.018988e-03 -1 1 4.018988e-03 748.3129 1022.041)" class="st3" width="59.6" height="61.6"/>
		
			<rect x="710" y="215.6" transform="matrix(4.018988e-03 -1 1 4.018988e-03 576.8612 1154.5603)" class="st3" width="316" height="144.1"/>
		
			<rect x="828.2" y="121" transform="matrix(4.018988e-03 -1 1 4.018988e-03 713.1979 987.1199)" class="st3" width="47.8" height="29"/>
		<polygon class="st3" points="990.3,421.1 939.4,446 940.3,214.4 991.1,214.6 		"/>
		
			<rect x="721.8" y="253.8" transform="matrix(4.018988e-03 -1 1 4.018988e-03 546.2981 1193.0997)" class="st3" width="300.6" height="137"/>
		<polygon class="st3" points="983.7,451.2 940,472.9 940.9,251.9 984.6,252.1 		"/>
		<polygon class="st3" points="850.9,395.9 793.8,400.1 795.1,89.1 852.1,89.3 		"/>
		<polygon class="st3" points="933,400.6 874.6,395.4 875.7,124.8 934.1,120 		"/>
		<polygon class="st3" points="994.4,383.4 932.8,400.6 933.9,120 995.4,137.8 		"/>
		<g id="windows_9_">
			<g id="upper_windows_9_">
				<g>
					<polygon class="st3" points="893.7,149.6 874.9,151.5 874.9,137.8 893.7,135.7 					"/>
					<polygon class="st3" points="893.6,177.4 874.8,178.8 874.8,165.1 893.6,163.5 					"/>
					<polygon class="st3" points="893.5,205.3 874.7,206.1 874.7,192.4 893.5,191.4 					"/>
					<polygon class="st3" points="893.3,233.1 874.6,233.4 874.6,219.7 893.4,219.2 					"/>
					<polygon class="st3" points="893.2,260.9 874.4,260.7 874.5,247.1 893.3,247 					"/>
					<polygon class="st3" points="893.1,288.8 874.3,288 874.4,274.4 893.2,274.8 					"/>
					<polygon class="st3" points="893,316.6 874.2,315.3 874.3,301.7 893.1,302.7 					"/>
					<polygon class="st3" points="892.9,344.4 874.1,342.7 874.2,329 892.9,330.5 					"/>
					<polygon class="st3" points="892.8,372.2 874,370 874.1,356.3 892.8,358.3 					"/>
				</g>
				<g>
					<polygon class="st3" points="835.3,200.9 851.9,200.8 851.9,191 835.3,190.8 					"/>
					<polygon class="st3" points="835.2,220.9 851.8,220.5 851.8,210.7 835.3,210.9 					"/>
					<polygon class="st3" points="835.1,241 851.7,240.2 851.8,230.4 835.2,230.9 					"/>
					<polygon class="st3" points="835.1,261 851.6,259.9 851.7,250 835.1,251 					"/>
					<polygon class="st3" points="835,281 851.6,279.5 851.6,269.7 835,271 					"/>
					<g>
						<polygon class="st3" points="834.9,300.2 851.3,298.6 851.3,288.7 834.9,290.3 						"/>
						<polygon class="st3" points="834.8,320.2 851.3,318.5 851.3,308.6 834.9,310.2 						"/>
						<polygon class="st3" points="834.7,340.2 851.2,338.6 851.3,328.6 834.8,330.2 						"/>
						<polygon class="st3" points="834.7,360.3 851.2,358.7 851.2,348.7 834.7,350.2 						"/>
						<polygon class="st3" points="834.6,380.5 851.2,379 851.2,368.9 834.6,370.4 						"/>
					</g>
				</g>
				<g>
					<polygon class="st3" points="811.9,118.5 798.4,118.5 798.4,108.4 811.9,108.4 					"/>
					<polygon class="st3" points="811.8,138.9 798.3,138.9 798.3,128.7 811.9,128.7 					"/>
					<polygon class="st3" points="811.7,159.2 798.2,159.2 798.2,149 811.8,149 					"/>
					
						<rect x="799.8" y="167.7" transform="matrix(3.057791e-03 -1 1 3.057791e-03 627.9875 978.8302)" class="st3" width="10.2" height="13.5"/>
					
						<rect x="799.7" y="188" transform="matrix(4.339383e-03 -1 1 4.339383e-03 606.5418 998.7529)" class="st3" width="10.2" height="13.5"/>
					
						<rect x="799.7" y="208.3" transform="matrix(5.620946e-03 -1 1 5.620946e-03 585.1127 1018.6349)" class="st3" width="10.2" height="13.5"/>
					<polygon class="st3" points="811.4,240.6 797.9,240.5 797.9,230.3 811.5,230.4 					"/>
					<polygon class="st3" points="811.3,260.9 797.8,260.8 797.8,250.7 811.4,250.8 					"/>
					<polygon class="st3" points="811.3,281.3 797.7,281.1 797.7,271 811.3,271.1 					"/>
				</g>
				<g>
					<polygon class="st3" points="811.2,301.7 797.6,301.7 797.7,291.5 811.2,291.5 					"/>
					<polygon class="st3" points="811.1,322 797.5,322 797.6,311.8 811.1,311.8 					"/>
					<polygon class="st3" points="811,342.4 797.5,342.3 797.5,332.2 811.1,332.2 					"/>
					
						<rect x="799.1" y="350.8" transform="matrix(3.057791e-03 -1 1 3.057791e-03 444.1144 1160.6625)" class="st3" width="10.2" height="13.5"/>
					
						<rect x="799" y="371.1" transform="matrix(4.339383e-03 -1 1 4.339383e-03 422.6843 1180.3647)" class="st3" width="10.2" height="13.5"/>
				</g>
				<g>
					
						<rect x="814.6" y="141.3" transform="matrix(4.018988e-03 -1 1 4.018988e-03 673.4323 966.6213)" class="st3" width="14.7" height="7.9"/>
					
						<rect x="814.5" y="170.7" transform="matrix(4.018988e-03 -1 1 4.018988e-03 643.9164 995.7841)" class="st3" width="14.7" height="7.9"/>
					
						<rect x="814.4" y="200.1" transform="matrix(4.018988e-03 -1 1 4.018988e-03 614.4007 1024.9469)" class="st3" width="14.7" height="7.9"/>
					
						<rect x="814.3" y="229.5" transform="matrix(4.018988e-03 -1 1 4.018988e-03 584.8848 1054.1096)" class="st3" width="14.7" height="7.9"/>
					
						<rect x="814.1" y="258.9" transform="matrix(4.018988e-03 -1 1 4.018988e-03 555.3823 1083.2592)" class="st3" width="14.7" height="7.9"/>
					
						<rect x="814" y="288.3" transform="matrix(4.018988e-03 -1 1 4.018988e-03 525.8666 1112.422)" class="st3" width="14.7" height="7.9"/>
					
						<rect x="813.9" y="317.7" transform="matrix(4.018988e-03 -1 1 4.018988e-03 496.3507 1141.5847)" class="st3" width="14.7" height="7.9"/>
					
						<rect x="813.8" y="347.1" transform="matrix(4.018988e-03 -1 1 4.018988e-03 466.835 1170.7476)" class="st3" width="14.7" height="7.9"/>
					
						<rect x="813.7" y="376.5" transform="matrix(4.018988e-03 -1 1 4.018988e-03 437.3192 1199.9104)" class="st3" width="14.7" height="7.9"/>
				</g>
				<g>
					<polygon class="st3" points="912.3,148.5 904.4,149.1 904.5,134.4 912.4,133.7 					"/>
					<polygon class="st3" points="892.5,126.9 881.5,127.3 881.5,117 892.6,116.6 					"/>
					<polygon class="st3" points="912.2,178 904.3,178.5 904.3,163.8 912.3,163.2 					"/>
					<polygon class="st3" points="912.1,207.6 904.2,207.9 904.2,193.2 912.1,192.8 					"/>
					<polygon class="st3" points="912,237.2 904.1,237.3 904.1,222.6 912,222.4 					"/>
					<polygon class="st3" points="911.8,266.7 903.9,266.7 904,252 911.9,251.9 					"/>
					<polygon class="st3" points="911.7,296.3 903.8,296.1 903.9,281.4 911.8,281.5 					"/>
					<polygon class="st3" points="911.6,325.9 903.7,325.5 903.8,310.8 911.7,311.1 					"/>
					<polygon class="st3" points="911.5,355.4 903.6,354.9 903.6,340.1 911.5,340.7 					"/>
					<polygon class="st3" points="911.4,385 903.5,384.3 903.5,369.5 911.4,370.2 					"/>
				</g>
				<g>
					<polygon class="st3" points="925.9,147.4 918,148 918,133.1 925.9,132.4 					"/>
					<polygon class="st3" points="925.7,177.2 917.8,177.7 917.9,162.8 925.8,162.3 					"/>
					<polygon class="st3" points="925.6,207.1 917.7,207.4 917.8,192.5 925.7,192.2 					"/>
					<polygon class="st3" points="925.5,237 917.6,237.1 917.7,222.2 925.6,222 					"/>
					<polygon class="st3" points="925.4,266.8 917.5,266.8 917.6,251.9 925.5,251.9 					"/>
					<polygon class="st3" points="925.3,296.7 917.4,296.5 917.4,281.6 925.3,281.8 					"/>
					<polygon class="st3" points="925.1,326.6 917.2,326.2 917.3,311.3 925.2,311.7 					"/>
					<polygon class="st3" points="925,356.5 917.1,355.9 917.2,341 925.1,341.5 					"/>
					<polygon class="st3" points="924.9,386.3 917,385.6 917.1,370.7 925,371.4 					"/>
					<g>
						<polygon class="st3" points="952,150.3 959.7,152 959.8,137.7 952,135.7 						"/>
						<polygon class="st3" points="951.9,179.3 959.6,180.6 959.7,166.3 951.9,164.8 						"/>
						<polygon class="st3" points="951.7,208.4 959.5,209.2 959.6,194.9 951.8,193.9 						"/>
						<polygon class="st3" points="951.6,237.5 959.4,237.9 959.4,223.6 951.7,222.9 						"/>
						<polygon class="st3" points="951.5,266.6 959.3,266.5 959.3,252.2 951.6,252 						"/>
						<polygon class="st3" points="951.4,295.6 959.1,295.1 959.2,280.8 951.4,281.1 						"/>
						<polygon class="st3" points="951.3,324.7 959,323.7 959.1,309.4 951.3,310.2 						"/>
						<polygon class="st3" points="951.1,353.8 958.9,352.3 959,338 951.2,339.2 						"/>
						<polygon class="st3" points="951,382.9 958.8,380.9 958.9,366.6 951.1,368.3 						"/>
						<polygon class="st3" points="938.3,147.1 946.3,148.9 946.4,134.2 938.3,132.1 						"/>
						<polygon class="st3" points="938.2,177 946.2,178.3 946.3,163.6 938.2,162 						"/>
						<polygon class="st3" points="938,206.9 946.1,207.8 946.1,193.1 938.1,191.9 						"/>
						<polygon class="st3" points="937.9,236.8 946,237.2 946,222.5 938,221.8 						"/>
						<polygon class="st3" points="937.8,266.7 945.8,266.6 945.9,251.9 937.9,251.7 						"/>
						<polygon class="st3" points="937.7,296.6 945.7,296 945.8,281.3 937.7,281.6 						"/>
						<polygon class="st3" points="937.6,326.5 945.6,325.4 945.7,310.7 937.6,311.5 						"/>
						<polygon class="st3" points="937.4,356.4 945.5,354.9 945.6,340.1 937.5,341.4 						"/>
						<polygon class="st3" points="937.3,386.3 945.4,384.3 945.4,369.6 937.4,371.3 						"/>
					</g>
					<g>
						<polygon class="st3" points="979.6,156.6 986.9,158.2 987,144.7 979.6,142.9 						"/>
						<polygon class="st3" points="979.5,184 986.8,185.2 986.9,171.7 979.5,170.3 						"/>
						<polygon class="st3" points="979.3,211.4 986.7,212.2 986.7,198.7 979.4,197.7 						"/>
						<polygon class="st3" points="979.2,238.8 986.6,239.2 986.6,225.7 979.3,225.1 						"/>
						<polygon class="st3" points="979.1,266.3 986.5,266.2 986.5,252.7 979.2,252.5 						"/>
						<polygon class="st3" points="979,293.7 986.4,293.2 986.4,279.7 979.1,280 						"/>
						<polygon class="st3" points="978.9,321.1 986.3,320.1 986.3,306.6 979,307.4 						"/>
						<polygon class="st3" points="978.8,348.5 986.1,347.1 986.2,333.6 978.8,334.8 						"/>
						<polygon class="st3" points="978.7,375.9 986,374.1 986.1,360.6 978.7,362.2 						"/>
						<polygon class="st3" points="966.6,153.6 974.2,155.3 974.3,141.4 966.7,139.5 						"/>
						<polygon class="st3" points="966.5,181.8 974.1,183.1 974.2,169.2 966.6,167.7 						"/>
						<polygon class="st3" points="966.4,210 974,210.8 974,196.9 966.4,195.9 						"/>
						<polygon class="st3" points="966.3,238.2 973.9,238.6 973.9,224.7 966.3,224.1 						"/>
						<polygon class="st3" points="966.2,266.4 973.8,266.3 973.8,252.4 966.2,252.3 						"/>
						<polygon class="st3" points="966,294.6 973.7,294 973.7,280.2 966.1,280.5 						"/>
						<polygon class="st3" points="965.9,322.8 973.6,321.8 973.6,307.9 966,308.7 						"/>
						<polygon class="st3" points="965.8,351 973.4,349.5 973.5,335.7 965.9,336.9 						"/>
						<polygon class="st3" points="965.7,379.2 973.3,377.3 973.4,363.4 965.8,365.1 						"/>
					</g>
				</g>
			</g>
			<g id="lower_windows_9_">
				
					<rect x="813.7" y="406.9" transform="matrix(4.018988e-03 -1 1 4.018988e-03 406.8507 1230.2412)" class="st3" width="14.7" height="7.9"/>
				
					<rect x="827.8" y="407" transform="matrix(4.018988e-03 -1 1 4.018988e-03 420.8678 1244.4244)" class="st3" width="14.7" height="7.9"/>
				
					<rect x="841.4" y="407" transform="matrix(4.018988e-03 -1 1 4.018988e-03 434.3073 1258.0361)" class="st3" width="14.7" height="7.9"/>
				
					<rect x="800.7" y="406.9" transform="matrix(4.018988e-03 -1 1 4.018988e-03 393.9624 1217.201)" class="st3" width="14.7" height="7.9"/>
				
					<rect x="868.8" y="407.1" transform="matrix(4.018988e-03 -1 1 4.018988e-03 461.58 1285.6376)" class="st3" width="14.7" height="7.9"/>
				
					<rect x="883" y="407.2" transform="matrix(4.018988e-03 -1 1 4.018988e-03 475.5842 1299.8077)" class="st3" width="14.7" height="7.9"/>
				
					<rect x="909.2" y="407.3" transform="matrix(4.018988e-03 -1 1 4.018988e-03 501.61 1326.1344)" class="st3" width="14.7" height="7.9"/>
				
					<rect x="896.5" y="407.2" transform="matrix(4.018988e-03 -1 1 4.018988e-03 489.0369 1313.4062)" class="st3" width="14.7" height="7.9"/>
				
					<rect x="855.9" y="407.1" transform="matrix(4.018988e-03 -1 1 4.018988e-03 448.7053 1272.5844)" class="st3" width="14.7" height="7.9"/>
				
					<rect x="813.6" y="428.6" transform="matrix(4.018988e-03 -1 1 4.018988e-03 385.0649 1251.7654)" class="st3" width="14.7" height="7.9"/>
				
					<rect x="827.7" y="428.7" transform="matrix(4.018988e-03 -1 1 4.018988e-03 399.0689 1265.9619)" class="st3" width="14.7" height="7.9"/>
				
					<rect x="841.3" y="428.7" transform="matrix(4.018988e-03 -1 1 4.018988e-03 412.5216 1279.5604)" class="st3" width="14.7" height="7.9"/>
				
					<rect x="800.6" y="428.6" transform="matrix(4.018988e-03 -1 1 4.018988e-03 372.1767 1238.7252)" class="st3" width="14.7" height="7.9"/>
				
					<rect x="868.8" y="428.8" transform="matrix(4.018988e-03 -1 1 4.018988e-03 439.7946 1307.1619)" class="st3" width="14.7" height="7.9"/>
				
					<rect x="882.9" y="428.9" transform="matrix(4.018988e-03 -1 1 4.018988e-03 453.7983 1321.3319)" class="st3" width="14.7" height="7.9"/>
				
					<rect x="909.1" y="429" transform="matrix(4.018988e-03 -1 1 4.018988e-03 479.8112 1347.6718)" class="st3" width="14.7" height="7.9"/>
				
					<rect x="896.4" y="429" transform="matrix(4.018988e-03 -1 1 4.018988e-03 467.2379 1334.9436)" class="st3" width="14.7" height="7.9"/>
				
					<rect x="855.8" y="428.8" transform="matrix(4.018988e-03 -1 1 4.018988e-03 426.9061 1294.1218)" class="st3" width="14.7" height="7.9"/>
				<g>
					<polygon class="st3" points="952.4,413 946.5,414.9 946.3,401.1 952.3,399.5 					"/>
					<polygon class="st3" points="962.5,409.7 956.9,411.5 956.8,398.2 962.4,396.7 					"/>
					<polygon class="st3" points="971.5,406.8 966.3,408.5 966.3,395.6 971.5,394.1 					"/>
					<polygon class="st3" points="942.5,416.1 936.2,418.2 936,404 942.4,402.2 					"/>
					<polygon class="st3" points="988.3,401.4 983.7,402.9 983.7,390.8 988.4,389.5 					"/>
					<polygon class="st3" points="980.6,403.9 975.7,405.5 975.7,393 980.6,391.6 					"/>
					<polygon class="st3" points="952.5,432.6 946.6,434.9 946.5,421.4 952.4,419.3 					"/>
					<polygon class="st3" points="962.5,428.8 957,430.9 956.9,417.8 962.5,415.9 					"/>
					<polygon class="st3" points="971.5,425.3 966.3,427.3 966.3,414.6 971.5,412.8 					"/>
					<polygon class="st3" points="942.7,436.4 936.4,438.8 936.3,424.9 942.6,422.7 					"/>
					<polygon class="st3" points="988.2,418.9 983.6,420.7 983.7,408.7 988.3,407.1 					"/>
					<polygon class="st3" points="980.6,421.8 975.7,423.7 975.7,411.4 980.6,409.7 					"/>
				</g>
			</g>
		</g>
		<polygon class="st3" points="816.3,126.2 793.7,126.1 793.7,122.3 814.9,122.4 		"/>
		<polygon class="st3" points="816.3,147 793.7,146.9 793.7,143.1 814.8,143.2 		"/>
		<polygon class="st3" points="816.2,166 793.6,165.9 793.6,162.1 814.8,162.1 		"/>
		<polygon class="st3" points="816.1,186.8 793.5,186.7 793.5,182.9 814.7,182.9 		"/>
		<polygon class="st3" points="816,206.7 793.4,206.6 793.4,202.8 814.6,202.8 		"/>
		<polygon class="st3" points="815.9,227.5 793.3,227.4 793.3,223.6 814.5,223.6 		"/>
		<polygon class="st3" points="815.9,246.5 793.3,246.4 793.3,242.6 814.4,242.6 		"/>
		<polygon class="st3" points="815.8,267.3 793.2,267.2 793.2,263.4 814.4,263.4 		"/>
		<polygon class="st3" points="815.7,289 793.1,288.9 793.1,285.1 814.3,285.2 		"/>
		<polygon class="st3" points="815.6,309.8 793,309.7 793,305.9 814.2,306 		"/>
		<polygon class="st3" points="815.5,328.8 792.9,328.7 792.9,324.9 814.1,325 		"/>
		<polygon class="st3" points="815.5,349.6 792.8,349.5 792.9,345.7 814,345.8 		"/>
		<polygon class="st3" points="815.4,369.5 792.8,369.4 792.8,365.6 813.9,365.6 		"/>
		<polygon class="st3" points="815.3,390.3 792.7,390.2 792.7,386.4 813.9,386.4 		"/>
		<polygon class="st5" points="986.7,352.6 978.7,353.7 980.5,349.8 988.5,348.6 		"/>
		<polygon class="st5" points="946,389.2 938.2,391.2 939.5,387.1 947.3,384.9 		"/>
		<polygon class="st5" points="987.8,191.8 979.7,190.2 982.7,186.2 990.7,187.6 		"/>
	</g>
</g>
<g id="Gemeentehuis_1_">
	<polygon class="st6" points="713.7,270.1 714.2,270.1 707.2,262.5 700.2,269.9 700.1,269.9 700,293 713.6,293 	"/>
	<path class="st7" d="M707,277.6c-22.7-0.1-41.2,17-41.3,38.2l82.3,0.3C748.1,295,729.8,277.7,707,277.6z"/>
	<path class="st6" d="M767.3,370.7c-4.3-1.4-11.1-2.6-19.4-3.3l0-1.9c2.2-1.1,3.5-2.3,3.5-3.6s-1.2-2.5-3.5-3.6L748,324
		c2.2-1.1,3.5-2.3,3.5-3.6c0-5.1-19.9-9.3-44.4-9.4c-24.6-0.1-44.5,4-44.5,9.1c0,1.3,1.2,2.5,3.5,3.6l-0.1,34.3
		c-2.2,1.1-3.5,2.3-3.5,3.6c0,1.3,1.2,2.5,3.5,3.6l0,3.6c-7.3,0.9-13.8,2.1-19,3.5c-27.4,7.5-99.5,29.8-99.5,29.8l-1.6,91l110,38.8
		c27.5,14.5,71.8,14.7,100.6,0.4l109.2-37.9l0.4-89.8C866.7,404.7,789.6,378.1,767.3,370.7z M673.1,355.6c-0.8,0.2-1.5,0.4-2.2,0.6
		l0.1-28.5l2.2,0L673.1,355.6z M680.1,354.2c-1,0.1-1.9,0.3-2.8,0.5l0.1-27.7c0.9,0.2,1.9,0.3,2.8,0.5L680.1,354.2z M699.4,352.6
		c-1.3,0-2.5,0.1-3.7,0.2l0.1-23.6c1.2,0.1,2.5,0.1,3.7,0.2L699.4,352.6z M718.6,352.9c-1.2-0.1-2.4-0.1-3.7-0.2l0.1-23.3
		c1.2,0,2.5-0.1,3.7-0.2L718.6,352.9z M738.5,355.4c-1.4-0.3-2.8-0.6-4.4-0.8l0.1-26.9c1.5-0.2,3-0.5,4.4-0.8L738.5,355.4z
		 M744.4,356.9c-0.7-0.2-1.4-0.5-2.2-0.7l0.1-28.3l2.2,0L744.4,356.9z"/>
	<path class="st7" d="M681.2,471l-0.2,56.7l-27.5-8l-0.1-51.8c0-0.6,0-1.2,0.1-1.8c0.7-7.9,6.2-14.2,13.1-14.4
		c7.9-0.2,14.7,7.6,14.7,17.4C681.2,469.8,681.2,471,681.2,471z"/>
	<path class="st7" d="M760.8,468.4l-0.7,51.8l-27.4,7.7l0.2-56.7c0,0,0-1.2,0-1.9c0-9.8,6.9-17.6,14.8-17.3
		c6.9,0.3,12.3,6.6,13,14.5C760.8,467.2,760.9,467.8,760.8,468.4z"/>
	<path class="st7" d="M722.4,465.5l-0.3,65.4c0,0,0,0.1,0,0.2c0,1-6.8,1.8-15.2,1.8c-8.4,0-15.2-0.9-15.2-1.9c0-0.1,0-0.2,0-0.2
		l0.3-65.4c0-0.1,0-0.2,0-0.3c0-6.5,6.9-11.7,15.3-11.7c8.4,0,15.2,5.3,15.2,11.8C722.4,465.3,722.4,465.5,722.4,465.5z"/>
	<polygon class="st8" points="668.5,413.2 658.5,414.4 658.4,444.3 668.4,444.3 	"/>
	<polygon class="st8" points="681.8,411.7 670.1,413.1 670,444.3 681.7,444.3 	"/>
	<polygon class="st8" points="670.1,410.7 681.8,409.3 681.9,393.5 670.2,395.5 	"/>
	<polygon class="st8" points="658.5,412 668.6,410.8 668.6,395.7 658.6,397.5 	"/>
	<polygon class="st8" points="631.4,417.4 624,418.3 623.9,444.1 631.3,444.2 	"/>
	<polygon class="st8" points="641.2,416.3 632.6,417.3 632.5,444.2 641.1,444.2 	"/>
	<polygon class="st8" points="632.6,415.3 641.2,414.2 641.2,400.7 632.6,402.2 	"/>
	<polygon class="st8" points="623.9,416.3 631.5,415.3 631.5,402.4 624,403.7 	"/>
	<polygon class="st8" points="603.3,420.6 597.6,421.3 597.5,444.1 603.3,444.1 	"/>
	<polygon class="st8" points="610.9,419.8 604.3,420.5 604.2,444.1 610.8,444.1 	"/>
	<polygon class="st8" points="604.3,418.7 610.9,417.9 610.9,406.1 604.3,407.3 	"/>
	<polygon class="st8" points="597.6,419.5 603.4,418.8 603.5,407.4 597.6,408.4 	"/>
	<polygon class="st8" points="584.6,422.7 579.8,423.3 579.8,444 584.5,444 	"/>
	<polygon class="st8" points="590.7,422 585.3,422.7 585.2,444 590.6,444 	"/>
	<polygon class="st8" points="585.3,421 590.7,420.4 590.8,409.7 585.4,410.7 	"/>
	<polygon class="st8" points="579.8,421.6 584.6,421.1 584.7,410.8 579.9,411.6 	"/>
	<polygon class="st8" points="567.7,424.8 563.8,425.3 563.8,444.1 567.7,444.1 	"/>
	<polygon class="st8" points="572.8,424.3 568.4,424.8 568.3,444.1 572.7,444.2 	"/>
	<polygon class="st8" points="568.4,423.3 572.8,422.7 572.8,413.1 568.4,413.9 	"/>
	<polygon class="st8" points="563.8,423.8 567.8,423.3 567.8,413.9 563.9,414.6 	"/>
	<polygon class="st8" points="631.5,473.6 624.1,472.6 624,498.5 631.4,500.4 	"/>
	<polygon class="st8" points="641.3,474.9 632.7,473.8 632.6,500.7 641.2,502.8 	"/>
	<polygon class="st8" points="632.7,471.7 641.4,472.8 641.4,459.3 632.8,458.7 	"/>
	<polygon class="st8" points="624.1,470.6 631.6,471.5 631.7,458.5 624.1,458 	"/>
	<polygon class="st8" points="603.4,469.9 597.7,469.2 597.6,492 603.3,493.4 	"/>
	<polygon class="st8" points="611,470.9 604.4,470 604.3,493.6 610.9,495.3 	"/>
	<polygon class="st8" points="604.4,468.2 611,469.1 611,457.2 604.4,456.8 	"/>
	<polygon class="st8" points="597.7,467.4 603.5,468.1 603.5,456.7 597.7,456.3 	"/>
	<polygon class="st8" points="584.6,467.4 579.9,466.8 579.8,487.6 584.5,488.7 	"/>
	<polygon class="st8" points="590.8,468.2 585.4,467.5 585.3,488.9 590.7,490.3 	"/>
	<polygon class="st8" points="585.4,465.9 590.8,466.6 590.8,455.9 585.4,455.5 	"/>
	<polygon class="st8" points="579.9,465.2 584.7,465.8 584.7,455.4 579.9,455.1 	"/>
	<polygon class="st8" points="567.8,465.4 563.9,464.9 563.8,483.8 567.7,484.7 	"/>
	<polygon class="st8" points="572.8,466.1 568.4,465.5 568.3,484.9 572.7,486 	"/>
	<polygon class="st8" points="568.4,464 572.8,464.6 572.9,454.9 568.4,454.6 	"/>
	<polygon class="st8" points="563.8,463.4 567.8,463.9 567.9,454.5 563.9,454.2 	"/>
	<polygon class="st8" points="745.8,414.3 757.2,415.5 757,444.9 745.7,445 	"/>
	<polygon class="st8" points="730.3,412.6 743.9,414.1 743.8,445.1 730.1,445.3 	"/>
	<polygon class="st8" points="743.9,411.7 730.3,410.1 730.3,394.3 744,396.7 	"/>
	<polygon class="st8" points="757.2,413.2 745.7,411.9 745.7,396.9 757.3,399 	"/>
	<polygon class="st8" points="787.2,418.8 795.1,419.6 795,444.2 787.1,444.4 	"/>
	<polygon class="st8" points="776.5,417.6 785.9,418.6 785.8,444.4 776.4,444.6 	"/>
	<polygon class="st8" points="785.9,416.7 776.5,415.6 776.6,402.5 785.9,404.2 	"/>
	<polygon class="st8" points="795.2,417.7 787.1,416.7 787.2,404.3 795.2,405.7 	"/>
	<polygon class="st8" points="816.7,421.9 822.6,422.6 822.5,443.8 816.6,443.9 	"/>
	<polygon class="st8" points="809,421.1 815.8,421.8 815.7,443.9 808.9,444 	"/>
	<polygon class="st8" points="815.8,420.2 809,419.4 809,408.3 815.8,409.5 	"/>
	<polygon class="st8" points="822.6,420.9 816.7,420.2 816.7,409.6 822.7,410.6 	"/>
	<polygon class="st8" points="835.7,424 840.4,424.5 840.4,443.5 835.7,443.6 	"/>
	<polygon class="st8" points="829.6,423.3 835,423.9 834.9,443.6 829.5,443.7 	"/>
	<polygon class="st8" points="835,422.4 829.6,421.8 829.6,411.9 835,412.9 	"/>
	<polygon class="st8" points="840.5,423 835.7,422.4 835.7,412.9 840.5,413.8 	"/>
	<polygon class="st8" points="852.3,425.9 856,426.3 856,443.4 852.2,443.5 	"/>
	<polygon class="st8" points="847.4,425.4 851.7,425.9 851.6,443.5 847.3,443.6 	"/>
	<polygon class="st8" points="851.7,424.5 847.4,424 847.4,415.2 851.7,416 	"/>
	<polygon class="st8" points="856.1,425 852.2,424.6 852.3,416.1 856.1,416.7 	"/>
	<polygon class="st8" points="786.6,472.6 794.6,471.4 794.5,496.1 786.5,498.3 	"/>
	<polygon class="st8" points="775.9,474.2 785.3,472.8 785.2,498.6 775.7,501.2 	"/>
	<polygon class="st8" points="785.3,470.8 775.9,472.2 775.9,459.1 785.3,458.3 	"/>
	<polygon class="st8" points="794.6,469.4 786.5,470.6 786.6,458.1 794.6,457.5 	"/>
	<polygon class="st8" points="816.2,468.1 822.1,467.2 822.1,488.4 816.2,490.1 	"/>
	<polygon class="st8" points="808.5,469.3 815.3,468.2 815.2,490.3 808.4,492.2 	"/>
	<polygon class="st8" points="815.3,466.5 808.5,467.5 808.5,456.4 815.3,455.8 	"/>
	<polygon class="st8" points="822.2,465.5 816.2,466.3 816.2,455.7 822.2,455.2 	"/>
	<polygon class="st8" points="835.3,465.2 840.1,464.4 840,483.5 835.3,484.8 	"/>
	<polygon class="st8" points="829.2,466.1 834.6,465.3 834.5,485 829.1,486.5 	"/>
	<polygon class="st8" points="834.6,463.8 829.2,464.6 829.2,454.7 834.6,454.2 	"/>
	<polygon class="st8" points="840.1,462.9 835.3,463.6 835.3,454.1 840.1,453.7 	"/>
	<polygon class="st8" points="851.9,462.8 855.7,462.2 855.7,479.3 851.9,480.3 	"/>
	<polygon class="st8" points="847,463.5 851.3,462.9 851.3,480.5 846.9,481.7 	"/>
	<polygon class="st8" points="851.3,461.5 847,462.2 847.1,453.4 851.4,453 	"/>
	<polygon class="st8" points="855.8,460.8 851.9,461.4 851.9,452.9 855.8,452.6 	"/>
	
		<rect x="690.7" y="394" transform="matrix(4.018988e-03 -1 1 4.018988e-03 295.1971 1097.7142)" class="st8" width="15.9" height="13.3"/>
	
		<rect x="682" y="421.3" transform="matrix(4.018988e-03 -1 1 4.018988e-03 267.8593 1124.7308)" class="st8" width="33.2" height="13.3"/>
	
		<rect x="706.6" y="394.1" transform="matrix(4.018988e-03 -1 1 4.018988e-03 311.0077 1113.7209)" class="st8" width="15.9" height="13.3"/>
	
		<rect x="697.9" y="421.3" transform="matrix(4.018988e-03 -1 1 4.018988e-03 283.6697 1140.7378)" class="st8" width="33.2" height="13.3"/>
</g>
<rect x="537.9" y="386.7" transform="matrix(0.958 -0.2867 0.2867 0.958 -86.3895 186.2421)" class="st7" width="109.8" height="2.8"/>
<rect x="537.7" y="386.6" transform="matrix(0.958 -0.2867 0.2867 0.958 -86.2054 186.1568)" class="st8" width="109.8" height="1.6"/>
<rect x="828.3" y="325.4" transform="matrix(0.323 -0.9464 0.9464 0.323 190.5761 1050.0317)" class="st7" width="1.9" height="132.8"/>
<rect x="828.8" y="324.9" transform="matrix(0.323 -0.9464 0.9464 0.323 191.1022 1049.864)" class="st8" width="1.1" height="132.8"/>
<g>
	<g id="kerk_2_">
		<rect x="865.1" y="190.7" class="st6" width="39.9" height="297.1"/>
		<rect x="870.4" y="183.6" class="st6" width="27.5" height="33.7"/>
		<rect x="905" y="343.3" class="st6" width="139.3" height="144.6"/>
		<rect x="1044.3" y="415.1" class="st6" width="63" height="72.7"/>
		<rect x="940.5" y="321.8" class="st6" width="63" height="55.1"/>
		<polygon class="st6" points="972.9,309.6 944.8,322.6 1001,322.6 		"/>
		<polygon class="st6" points="884.2,169.6 870.4,184.5 897.9,184.5 		"/>
		<rect x="954.7" y="333.3" class="st9" width="36.8" height="95.1"/>
		<rect x="929.9" y="356.6" class="st9" width="83.4" height="36.4"/>
		<line class="st10" x1="965.8" y1="332.6" x2="965.8" y2="428.4"/>
		<line class="st10" x1="954.7" y1="332.6" x2="954.7" y2="428.4"/>
		<line class="st10" x1="991.5" y1="332.6" x2="991.5" y2="428.4"/>
		<line class="st10" x1="1002.2" y1="355.7" x2="1002.2" y2="393.8"/>
		<line class="st10" x1="940.9" y1="355.7" x2="940.9" y2="393.4"/>
		<line class="st10" x1="980" y1="332.6" x2="980" y2="428.4"/>
		<line class="st10" x1="929.2" y1="356.1" x2="1013.9" y2="356.1"/>
		<line class="st10" x1="954.7" y1="344.6" x2="992" y2="344.6"/>
		<line class="st10" x1="929.9" y1="367.6" x2="1013.2" y2="367.6"/>
		<line class="st10" x1="929.9" y1="381" x2="1013.2" y2="381"/>
		<line class="st10" x1="929.2" y1="393.4" x2="1013.9" y2="393.4"/>
		<line class="st10" x1="954.7" y1="405.8" x2="992" y2="405.8"/>
		<line class="st10" x1="954.3" y1="417.3" x2="992" y2="417.3"/>
		<rect x="878.4" y="355.7" class="st8" width="11.6" height="37.3"/>
		<line class="st10" x1="875.2" y1="366.6" x2="894.5" y2="366.6"/>
		<line class="st10" x1="875.8" y1="379.4" x2="895.1" y2="379.4"/>
		<rect x="863.3" y="195.1" class="st6" width="43.5" height="35.5"/>
		<rect x="865.1" y="478.1" class="st7" width="242.2" height="9.8"/>
		<rect x="877.5" y="158.8" class="st7" width="13.4" height="1.8"/>
		<rect x="882.8" y="154.3" class="st7" width="2.7" height="16.9"/>
		<rect x="882.8" y="214.6" class="st8" width="14.2" height="1.8"/>
		
			<rect x="879.2" y="202.2" transform="matrix(0.8914 -0.4532 0.4532 0.8914 0.7171 421.6051)" class="st8" width="1.8" height="14.2"/>
		<rect x="946.7" y="417.3" class="st7" width="1.7" height="60.8"/>
		<rect x="897.9" y="455" class="st7" width="19.9" height="32.8"/>
		<rect x="1024.8" y="455" class="st7" width="19.9" height="32.8"/>
		<rect x="956.4" y="446.2" class="st7" width="33.9" height="41.7"/>
		<g>
			<path class="st11" d="M879.3,262.1"/>
			<path class="st11" d="M870,261.6"/>
		</g>
		<g>
			
				<ellipse transform="matrix(0.7508 -0.6605 0.6605 0.7508 79.4194 637.1864)" class="st12" cx="884.2" cy="213.3" rx="16" ry="16"/>
		</g>
	</g>
	<path class="st13" d="M905.6,194.7"/>
	<path class="st13" d="M865.7,194.7"/>
	<rect x="881.3" y="273.2" class="st8" width="7" height="67.5"/>
	<line class="st10" x1="878.9" y1="333.3" x2="890.6" y2="333.3"/>
	<line class="st10" x1="878.9" y1="326.5" x2="890.6" y2="326.5"/>
	<line class="st10" x1="878.9" y1="319.7" x2="890.6" y2="319.7"/>
	<line class="st10" x1="878.9" y1="312.9" x2="890.6" y2="312.9"/>
	<line class="st10" x1="878.9" y1="306.1" x2="890.6" y2="306.1"/>
	<line class="st10" x1="878.9" y1="299.3" x2="890.6" y2="299.3"/>
	<line class="st10" x1="878.9" y1="292.5" x2="890.6" y2="292.5"/>
	<line class="st10" x1="878.9" y1="285.7" x2="890.6" y2="285.7"/>
	<line class="st10" x1="878.9" y1="278.8" x2="890.6" y2="278.8"/>
	<polyline class="st8" points="877.2,238.1 877.2,269.1 871.7,268.5 871.8,239.9 877.2,238.1 	"/>
	<line class="st10" x1="870.4" y1="248.3" x2="879.6" y2="246.4"/>
	<line class="st10" x1="870.4" y1="243.9" x2="879.6" y2="241.4"/>
	<line class="st10" x1="870.4" y1="252.7" x2="879.6" y2="251.3"/>
	<line class="st10" x1="870.7" y1="256.8" x2="879.9" y2="256"/>
	<line class="st10" x1="870.7" y1="261.2" x2="879.9" y2="261.1"/>
	<line class="st10" x1="870.6" y1="265.6" x2="879.9" y2="266.1"/>
	<polyline class="st8" points="893.5,239 893.5,269.9 899,269.4 898.9,240.8 893.5,239 	"/>
	<line class="st10" x1="900.3" y1="249.2" x2="891.2" y2="247.3"/>
	<line class="st10" x1="900.3" y1="244.8" x2="891.2" y2="242.3"/>
	<line class="st10" x1="900.3" y1="253.6" x2="891.2" y2="252.2"/>
	<line class="st10" x1="900" y1="257.7" x2="890.8" y2="256.9"/>
	<line class="st10" x1="900.1" y1="262.1" x2="890.8" y2="262"/>
	<line class="st10" x1="900.1" y1="266.5" x2="890.8" y2="267"/>
</g>
<rect x="904.6" y="342.3" class="st7" width="36" height="1.6"/>
<polyline class="st8" points="940.6,343.1 940.6,342.2 904.6,342.2 904.6,343.1 "/>
<rect x="1002.9" y="342.3" class="st7" width="41.3" height="1.6"/>
<polyline class="st8" points="1044.2,343.1 1044.2,342.2 1002.9,342.2 1002.9,343.1 "/>
<rect x="1044.1" y="413.6" class="st7" width="62.5" height="2.4"/>
<polyline class="st8" points="1106.6,414.9 1106.6,413.5 1044.1,413.5 1044.1,414.9 "/>
<g>
	<polygon class="st7" points="320.5,303.3 245.6,309.3 242.9,307.3 319.7,301.6 	"/>
	<polygon class="st7" points="360,309.7 319.6,303.5 319.6,300.1 360,307.1 	"/>
	<g>
		<polygon class="st8" points="319.7,301.6 242.9,307.3 242.9,305.6 319.7,299 		"/>
		<polygon class="st8" points="360,308 319.6,301.8 319.6,299.2 361.8,305.4 		"/>
		<g>
			<polygon class="st6" points="398.1,491.6 158.7,471.5 159.1,366.8 398.6,348.6 			"/>
			
				<rect x="428" y="372.6" transform="matrix(4.018988e-03 -1 1 4.018988e-03 23.7488 918.0414)" class="st6" width="89.6" height="149"/>
			<polygon class="st6" points="320.1,385.3 245.5,379 245.8,308.4 320.5,302.6 			"/>
			<polygon class="st6" points="319.6,385.3 359.8,379.5 360,308.8 319.9,302.6 			"/>
			<polygon class="st6" points="397.8,431.3 413,425.3 413.3,354.7 398.1,348.6 			"/>
			<polygon class="st8" points="314.5,381.9 251.2,381.6 251.5,323.5 313.9,319 			"/>
			<polygon class="st8" points="392.4,402 165.9,404.5 166.3,370.3 392.6,355.1 			"/>
			
				<rect x="434.8" y="432.8" transform="matrix(4.018988e-03 -1 1 4.018988e-03 -6.1841 893.8066)" class="st8" width="21.5" height="34.4"/>
			
				<rect x="490" y="433" transform="matrix(4.018988e-03 -1 1 4.018988e-03 48.4842 949.1467)" class="st8" width="21.5" height="34.4"/>
			<polygon class="st7" points="227.4,477.1 163,471.6 163.2,416.6 227.7,416.8 			"/>
			<polygon class="st7" points="304,483.5 234.3,477.5 234.5,417.3 304.3,417.5 			"/>
			<polygon class="st7" points="387.3,490.7 310.2,484.1 310.5,417.6 387.6,417.9 			"/>
			<g>
				<path class="st7" d="M262.2,380c0.1-0.2,0.3-0.4,0.4-0.6c2-3.3,5.6-5.1,9.5-4.6c2.1,0.3,3.3,1.6,3.4,3.7c0,0.3,0.1,0.5,0.1,1
					c0.3-0.4,0.5-0.6,0.7-0.8c1.7-1.9,3.5-3.6,6.1-3.9c1.1-0.2,2.2-0.1,3.3,0.1c2.3,0.4,3.6,2.3,3.2,4.6c-0.4,2-1.3,3.9-1.9,5.8
					c-0.3,0.8-0.6,1.6-0.9,2.4c-0.3,0.8-0.3,1.6,0.4,2.2c0.7,0.7,1.7,0.7,2.6,0.4c1.3-0.4,1.6-1,1.5-2.4c-0.4-4.1,1.2-8.6,5.9-11
					c1.6-0.8,3.3-1.4,4.9-2.2c2-0.9,3.4-2.4,3.7-4.6c0.1-0.8,0-1.7-0.4-2.4c-0.7-1.3-2.2-1.4-3-0.2c-0.5,0.7-0.8,1.6-1.1,2.4
					c-0.4,1.2-0.8,2.4-1.8,3.3c-1.1,1-2.3,1.3-3.7,0.9c-1.2-0.4-2-1.2-2.1-2.6c-0.3-2.7,1.3-5.2,4-6.1c2.5-0.8,5-0.7,7.6,0.1
					c2.2,0.7,3.5,2.3,4.1,4.5c0.6,2.4,1,4.9,1.3,7.4c0.3,2.4,0.1,4.8,0.3,7.2c0.2,1.9,0.6,3.8,1,5.7c0.3,1.1,1,2.1,2,2.7
					c0.2,0.1,0.4,0.3,0.8,0.6c-0.5,0.1-0.7,0.3-1,0.3c-1.5,0-2.9-0.3-4.2-1c-1-0.6-1.6-1.4-2-2.4c0-0.1,0-0.3-0.1-0.4
					c-0.1-0.2-0.3-0.5-0.5-0.7c-0.2,0.2-0.5,0.3-0.6,0.5c-1,1.6-2.4,2.7-4.1,3.5c-3,1.3-5.9,1.4-8.6-0.9c-0.3-0.2-0.5-0.5-0.8-0.8
					c-0.2-0.3-0.4-0.5-0.7-0.9c-0.3,0.3-0.6,0.6-0.9,0.9c-1.5,1.3-3.1,2.2-5.1,2.5c-3.8,0.5-6.7-2.2-6.4-6.1
					c0.2-2.3,1.2-4.4,2.2-6.4c0.5-1.1,1.2-2.2,1.7-3.4c0.3-0.7,0.7-1.4,0-2c-0.7-0.6-1.5-0.2-2.1,0.3c-0.9,0.8-1.9,1.7-2.5,2.8
					c-1.7,2.9-3.2,5.9-4.8,8.9c-0.8,1.6-1.6,3.1-2.4,4.7c-0.3,0.6-0.7,0.8-1.3,0.8c-0.5,0-1-0.1-1.6-0.1c-1.1,0-1.3-0.4-0.8-1.4
					c0.5-1.1,1.1-2.2,1.6-3.3c1.4-2.9,2.7-5.8,4.1-8.8c0.3-0.7,0.5-1.4,0.6-2.2c0.1-1-0.6-1.4-1.5-1.2c-0.9,0.2-1.6,0.8-2,1.5
					c-1.1,1.8-2.2,3.5-3.2,5.4c-1.5,2.8-2.8,5.7-4.2,8.5c-0.1,0.2-0.2,0.5-0.3,0.7c-0.5,1.2-0.6,1.3-1.9,1.3c-1.5,0-2.9,0-4.4,0.1
					c-0.9,0-1.1-0.2-0.8-1c1.4-3.5,2.9-6.9,4.3-10.3c0.6-1.6,1.1-3.2,0.9-5c-0.1-1-0.6-1.8-1.6-2.2c-0.8-0.3-1.6-0.5-2.4-0.6
					c-0.4,0-1,0.3-1.3,0.7c-0.1,0.2,0.2,0.9,0.4,1.2c1.2,1.4,1.5,3,0.9,4.7c-0.5,1.5-1.8,2.3-3.2,2c-1.4-0.2-2.3-1.4-2.4-3
					c-0.2-4.1,3.8-7.2,7.7-6c1.7,0.5,2.8,2.1,2.9,4.1c0,0.3,0.1,0.7,0.1,1C262.1,380,262.2,380,262.2,380z M304.7,378.5
					c-0.1-0.2-0.2-0.7-0.4-1.1c-0.5,0.2-1,0.2-1.4,0.5c-1.5,1.4-3,2.8-4.3,4.4c-1.2,1.4-1.9,3.2-1.7,5.1c0.3,2.2,2.4,3.1,4.1,1.6
					c0.9-0.8,1.5-1.8,2.1-2.9C304.2,383.9,304.3,381.3,304.7,378.5z"/>
				<path class="st7" d="M280,359.1c-0.3,0.4-0.5,0.8-0.8,1.1c-2.2,3.1-4.4,6.1-6.7,9.2c-0.9,1.2-0.9,1.2-1.7-0.1
					c-1.4-2.4-2.9-4.7-4.3-7.1c-0.7-1.2-1.4-2.5-2-3.7c-0.1-0.3-0.3-0.5-0.5-0.7c-0.1,0-0.1,0-0.2,0.1c0,0.3,0,0.6,0,0.9
					c0,3.9,0,7.9,0.1,11.8c0,0.5-0.2,0.8-0.7,0.8c-2.1,0-4.2,0-6.3,0c-0.5,0-0.8-0.2-0.8-0.8c0-1.1-0.1-2.2-0.1-3.3
					c-0.2-9.9-0.3-19.8-0.5-29.7c0-0.6-0.3-1.4,0.4-1.6c0.4-0.1,1.1,0.4,1.5,0.8c4.7,4.9,9.3,9.8,14,14.7c0.5,0.5,0.9,1,1.4,1.5
					c0.4,0.4,0.8,0.5,1.2,0c2.8-3.4,5.6-6.7,8.4-10c1.7-2,3.4-4.1,5.1-6.2c0.2-0.2,0.5-0.4,0.8-0.6c0.1,0.3,0.2,0.6,0.2,0.9
					c0,6.2,0,12.3-0.1,18.5c0,4.5-0.2,9-0.3,13.5c0,0.5-0.1,1.1-0.1,1.6c0,0.5-0.2,0.7-0.7,0.7c-2.3,0-4.6,0-7-0.1
					c-0.1,0-0.4-0.4-0.4-0.5c0.1-2.7,0.2-5.4,0.3-8.1c0-1.2,0-2.3,0-3.5C280.2,359.2,280.1,359.2,280,359.1z"/>
				<path class="st7" d="M304.4,344.6c-0.5,2.5-1,5-1.5,7.5c-0.2,0.9-0.4,1.7-0.4,2.6c0,0.6,0.2,1.2,0.5,1.7
					c0.5,0.9,1.4,1.1,2.4,0.6c0.4-0.2,0.9-0.3,1.3-0.4c0,0.5,0.1,1-0.1,1.4c-0.5,2-2,3-3.8,3.6c-3,1-6.4,0.3-8.2-1.8
					c-1.4-1.6-1.6-3.5-1.5-5.4c0.1-1.9,0.5-3.8,0.8-5.7c0.3-1.8,0.7-3.6,0.9-5.4c0.1-0.8,0-1.6-0.2-2.4c-0.3-1.1-0.9-1.4-2-1.4
					c-0.3,0-0.6-0.1-0.9-0.2c0.1-0.3,0.2-0.7,0.4-0.9c2.6-2.1,6.4-2.6,9.1-0.9c1.7,1.1,2.4,2.9,2.8,4.8c0.2,0.8,0.2,1.6,0.2,2.3
					C304.2,344.6,304.3,344.6,304.4,344.6z"/>
			</g>
			<polygon class="st7" points="247,360.9 158.8,366.8 155.7,364.9 246.2,359.2 			"/>
			<polygon class="st8" points="246.2,359.2 155.7,364.9 155.7,363.1 246.2,356.6 			"/>
			<polygon class="st7" points="398.6,350.3 318.7,356.3 315.9,354.3 397.9,348.6 			"/>
			<polygon class="st8" points="397.9,348.6 315.9,354.3 315.9,352.6 397.9,346 			"/>
			<polygon class="st7" points="397.7,350.3 413.3,356.6 414.1,354.7 397.8,348.6 			"/>
			<polygon class="st8" points="397.9,348.6 414.1,354.7 414.1,353 397.9,346 			"/>
			
				<rect x="471.4" y="328.5" transform="matrix(4.018988e-03 -1 1 4.018988e-03 68.0568 874.2818)" class="st7" width="3.1" height="149"/>
			
				<rect x="472.1" y="327" transform="matrix(4.018988e-03 -1 1 4.018988e-03 69.5711 872.7733)" class="st8" width="1.7" height="149"/>
			<g>
				<polygon class="st7" points="258.4,320.7 251.5,321.2 251.5,315.7 258.4,315.2 				"/>
				<path class="st7" d="M258.4,315.2c0,1.9-1.6,3.6-3.5,3.7c-1.9,0.1-3.4-1.3-3.4-3.2c0-1.9,1.6-3.6,3.5-3.7
					C256.9,311.8,258.4,313.2,258.4,315.2z"/>
				<polygon class="st7" points="267,320.1 259.8,320.6 259.8,315 267,314.4 				"/>
				<path class="st7" d="M267,314.4c0,2-1.6,3.7-3.6,3.8c-2,0.1-3.5-1.3-3.5-3.2c0-1.9,1.6-3.6,3.6-3.8
					C265.4,311.1,267,312.5,267,314.4z"/>
				<polygon class="st7" points="275.8,319.5 268.4,320 268.4,314.3 275.8,313.7 				"/>
				<path class="st7" d="M275.8,313.7c0,2-1.7,3.7-3.7,3.9c-2,0.2-3.7-1.3-3.7-3.3c0-2,1.6-3.7,3.7-3.9
					C274.2,310.3,275.9,311.7,275.8,313.7z"/>
				<polygon class="st7" points="285,318.8 277.3,319.4 277.3,313.6 285,313 				"/>
				<path class="st7" d="M285,313c0,2-1.7,3.8-3.9,3.9c-2.1,0.2-3.8-1.3-3.8-3.3c0-2,1.7-3.8,3.8-3.9C283.3,309.5,285,310.9,285,313
					z"/>
				<polygon class="st7" points="294.4,318.1 286.5,318.7 286.5,312.8 294.5,312.2 				"/>
				<path class="st7" d="M294.5,312.2c0,2.1-1.8,3.9-4,4c-2.2,0.2-3.9-1.3-3.9-3.4c0-2,1.8-3.8,3.9-4
					C292.7,308.6,294.5,310.1,294.5,312.2z"/>
				<polygon class="st7" points="304.2,317.4 296,318 296.1,312 304.2,311.4 				"/>
				<path class="st7" d="M304.2,311.4c0,2.1-1.9,3.9-4.1,4.1c-2.2,0.2-4.1-1.4-4.1-3.4c0-2.1,1.8-3.9,4.1-4.1
					C302.4,307.7,304.3,309.3,304.2,311.4z"/>
				<polygon class="st7" points="314.4,316.7 305.9,317.3 305.9,311.2 314.4,310.5 				"/>
				<path class="st7" d="M314.4,310.5c0,2.1-1.9,4-4.3,4.2c-2.3,0.2-4.2-1.4-4.2-3.5c0-2.1,1.9-4,4.2-4.2
					C312.5,306.8,314.4,308.4,314.4,310.5z"/>
			</g>
		</g>
	</g>
</g>
<g>
	<g id="birds_15_">
		<polygon class="st6" points="552,134.7 529.8,135 529.8,135.1 552.1,147.8 530.2,161.2 530.2,161.3 552.5,161 		"/>
		<g>
			<path class="st14" d="M622.4,144.6l8.2-6.7c-3.4-6.8-10.2-11.8-18.5-12.7c-5.5-0.6-10.8,0.8-15.1,3.5l-24.7-22.8l-1.4,18.3
				c-1.8-0.3-3.6-0.4-5.5-0.1c-12,1.4-20.6,12.5-19.2,24.8c1.3,11.3,10.6,19.6,21.4,19.8l-1.5,19.9l31.2-21.1c2.9,1.8,6.2,3,9.8,3.4
				c12.9,1.4,24.5-7.6,26-20.2c0,0,0-0.1,0-0.1L622.4,144.6z"/>
			<polygon class="st6" points="623.5,157.3 646.2,155.7 646.2,155.6 622.6,144.5 644.2,130.2 644.2,130.1 621.5,131.7 			"/>
			<path class="st8" d="M605.5,134.7c3.7-0.8,7.2,0.7,8.7,3.3c0.1-0.6,0-1.2-0.1-1.8c-0.8-3.7-5-5.9-9.4-5c-4.4,0.9-7.3,4.6-6.5,8.3
				c0.1,0.6,0.4,1.2,0.7,1.7C599.2,138.1,601.9,135.4,605.5,134.7"/>
		</g>
	</g>
	<g id="birds_9_">
		<polygon class="st6" points="664.6,76.3 642.4,76.1 642.4,76.2 664.4,89.4 642.2,102.3 642.2,102.4 664.4,102.6 		"/>
		<g>
			<path class="st15" d="M734.7,87.8l8.4-6.5c-3.3-6.9-10-12-18.2-13.2c-5.5-0.8-10.8,0.5-15.2,3.1l-24.1-23.4l-1.8,18.3
				c-1.8-0.3-3.6-0.5-5.5-0.3c-12.1,1.1-20.9,12-19.8,24.4c1,11.3,10.1,19.8,20.9,20.3l-2,19.9l31.6-20.4c2.8,1.8,6.1,3.1,9.7,3.6
				c12.9,1.8,24.7-7,26.4-19.6c0,0,0-0.1,0-0.1L734.7,87.8z"/>
			<polygon class="st6" points="735.5,100.6 758.3,99.5 758.3,99.4 735,87.8 756.8,73.9 756.8,73.9 734.1,74.9 			"/>
			<path class="st8" d="M718.1,77.5c3.7-0.7,7.2,0.8,8.6,3.5c0.1-0.6,0.1-1.2-0.1-1.8c-0.7-3.7-4.9-6-9.3-5.2
				c-4.4,0.8-7.4,4.5-6.7,8.1c0.1,0.6,0.3,1.2,0.7,1.7C711.7,80.8,714.4,78.2,718.1,77.5"/>
		</g>
	</g>
	<g id="birds_8_">
		<polygon class="st6" points="441.9,129.9 426.9,133.3 426.9,133.4 443.8,138.7 430.9,150.9 431,151 445.9,147.6 		"/>
		<g>
			<path class="st16" d="M490.8,126.5l4.6-5.7c-3.3-4.1-8.6-6.5-14.3-5.9c-3.8,0.4-7.2,2.1-9.7,4.5l-19.9-11.8l1.7,12.6
				c-1.2,0.1-2.5,0.3-3.7,0.7c-7.9,2.7-12.1,11.4-9.4,19.5c2.5,7.4,10,11.7,17.3,10.3l1.8,13.7l18-18.7c2.2,0.8,4.6,1.1,7.1,0.9
				c8.9-0.9,15.5-8.7,14.6-17.4c0,0,0-0.1,0-0.1L490.8,126.5z"/>
			<polygon class="st6" points="493.3,134.9 508.4,130.5 508.4,130.5 490.9,126.4 503.4,113.6 503.4,113.6 488.3,117.9 			"/>
			<path class="st8" d="M477.9,122.2c2.4-1,4.9-0.6,6.4,1c0-0.4-0.1-0.8-0.3-1.2c-1.1-2.4-4.2-3.3-7.1-2c-2.8,1.2-4.3,4.2-3.2,6.5
				c0.2,0.4,0.4,0.7,0.7,1C474.2,125.4,475.6,123.2,477.9,122.2"/>
		</g>
	</g>
	<g id="birds_7_">
		<polygon class="st6" points="393.7,193.8 382.8,198.5 382.8,198.5 396.4,200.3 388.3,211.4 388.3,211.4 399.3,206.7 		"/>
		<g>
			<path class="st17" d="M430.5,184.3l2.7-5c-3.1-2.7-7.5-3.8-11.8-2.5c-2.9,0.8-5.2,2.6-6.8,4.8l-16.8-6.2l3.1,9.4
				c-0.9,0.2-1.9,0.6-2.8,1c-5.7,3.1-7.7,10.4-4.4,16.2c2.9,5.3,9.2,7.5,14.6,5.4l3.3,10.1l11.1-16.8c1.8,0.3,3.7,0.2,5.5-0.3
				c6.7-1.9,10.6-8.8,8.7-15.3c0,0,0,0,0-0.1L430.5,184.3z"/>
			<polygon class="st6" points="433.7,190.4 444.6,185 444.5,185 430.6,184.2 438.4,172.8 438.3,172.7 427.4,178.2 			"/>
			<path class="st8" d="M420.1,182.9c1.6-1.1,3.7-1.1,5-0.2c-0.1-0.3-0.2-0.6-0.4-0.9c-1.1-1.6-3.7-1.9-5.7-0.5
				c-2,1.3-2.7,3.8-1.5,5.4c0.2,0.3,0.4,0.5,0.7,0.7C417.8,185.9,418.5,184,420.1,182.9"/>
		</g>
	</g>
</g>
<g id="tree_10_">
	<ellipse class="st18" cx="642.2" cy="516.8" rx="28" ry="51.8"/>
	<path class="st18" d="M642.5,635.1h-0.6c-3.2,0-5.8-2.6-5.8-5.8v-84.8c0-3.2,2.6-5.8,5.8-5.8h0.6c3.2,0,5.8,2.6,5.8,5.8v84.8
		C648.3,632.5,645.7,635.1,642.5,635.1z"/>
</g>
<g id="tree_8_">
	<ellipse class="st19" cx="445.6" cy="414.8" rx="20.2" ry="37.4"/>
	<path class="st19" d="M446,500.3h-0.8c-2.2,0-4-1.8-4-4v-61.7c0-2.2,1.8-4,4-4h0.8c2.2,0,4,1.8,4,4v61.7
		C450,498.5,448.2,500.3,446,500.3z"/>
</g>
<g id="tree_7_">
	<ellipse class="st19" cx="948.8" cy="435.6" rx="17.8" ry="33"/>
	<path class="st19" d="M948.8,510.9L948.8,510.9c-2.1,0-3.9-1.8-3.9-3.9v-53.7c0-2.1,1.8-3.9,3.9-3.9l0,0c2.1,0,3.9,1.8,3.9,3.9V507
		C952.6,509.2,950.9,510.9,948.8,510.9z"/>
</g>
<g id="tree_6_">
	<ellipse class="st19" cx="906.4" cy="448.1" rx="14.3" ry="26.4"/>
	<path class="st19" d="M906.4,508.4L906.4,508.4c-1.7,0-3.1-1.4-3.1-3.1v-42.9c0-1.7,1.4-3.1,3.1-3.1l0,0c1.7,0,3.1,1.4,3.1,3.1
		v42.9C909.5,507,908.1,508.4,906.4,508.4z"/>
</g>
<g>
	
		<linearGradient id="SVGID_3_" gradientUnits="userSpaceOnUse" x1="982.3109" y1="265.025" x2="1000.5497" y2="265.025" gradientTransform="matrix(1 0 0 -1 0 685.5823)">
		<stop  offset="0.4078" style="stop-color:#72E3D8"/>
		<stop  offset="0.9665" style="stop-color:#FFFFFF"/>
	</linearGradient>
	<path class="st20" d="M982.3,420.5c6.1,0,12.2,0.1,18.2,0.1C994.5,420.6,988.4,420.5,982.3,420.5z"/>
	
		<linearGradient id="SVGID_4_" gradientUnits="userSpaceOnUse" x1="957.7886" y1="265.1113" x2="965.3605" y2="265.1113" gradientTransform="matrix(1 0 0 -1 0 685.5823)">
		<stop  offset="0.4078" style="stop-color:#72E3D8"/>
		<stop  offset="0.9665" style="stop-color:#FFFFFF"/>
	</linearGradient>
	<path class="st21" d="M960,420.5c-0.8,0-1.5,0-2.3,0c2.5,0,5,0,7.6,0C963.6,420.5,961.8,420.5,960,420.5z"/>
	
		<linearGradient id="SVGID_5_" gradientUnits="userSpaceOnUse" x1="1000.5497" y1="264.9055" x2="1023.5842" y2="264.9055" gradientTransform="matrix(1 0 0 -1 0 685.5823)">
		<stop  offset="0.4078" style="stop-color:#72E3D8"/>
		<stop  offset="0.9665" style="stop-color:#FFFFFF"/>
	</linearGradient>
	<path class="st22" d="M1000.5,420.6c7.7,0,15.4,0.1,23,0.2C1015.9,420.7,1008.3,420.7,1000.5,420.6z"/>
	
		<linearGradient id="SVGID_6_" gradientUnits="userSpaceOnUse" x1="965.3605" y1="265.0847" x2="982.3109" y2="265.0847" gradientTransform="matrix(1 0 0 -1 0 685.5823)">
		<stop  offset="0.4078" style="stop-color:#72E3D8"/>
		<stop  offset="0.9665" style="stop-color:#FFFFFF"/>
	</linearGradient>
	<path class="st23" d="M965.4,420.5c5.7,0,11.3,0,17,0C976.7,420.5,971,420.5,965.4,420.5z"/>
	
		<linearGradient id="SVGID_7_" gradientUnits="userSpaceOnUse" x1="0" y1="130.6045" x2="1920" y2="130.6045" gradientTransform="matrix(1 0 0 -1 0 685.5823)">
		<stop  offset="0.4078" style="stop-color:#72E3D8"/>
		<stop  offset="0.9665" style="stop-color:#FFFFFF"/>
	</linearGradient>
	<path class="st24" d="M1811.1,494.3c21.9,8.8,33.7,18.1,33.7,27.8c0,16.8-35.6,32.6-98.6,46.5v-32c10-4.1,17.4-20.6,17.4-40.3
		c0-22.8-10-41.3-22.3-41.3c-12.3,0-22.3,18.5-22.3,41.3c0,19.7,7.5,36.2,17.4,40.3v34.1c-21.2,4.4-45.2,8.7-71.8,12.7
		c0.1-0.3,0.1-0.7,0.1-1V519c12.8-5.3,22.3-26.4,22.3-51.6c0-29.2-12.8-52.9-28.6-52.9c-15.8,0-28.6,23.7-28.6,52.9
		c0,25.2,9.6,46.3,22.3,51.6v63.4c0,1,0.3,1.9,0.7,2.7c-27.2,3.9-56.9,7.6-88.8,11v-31.6c10-4.1,17.4-20.6,17.4-40.3
		c0-22.8-10-41.3-22.3-41.3c-12.3,0-22.3,18.5-22.3,41.3c0,19.7,7.5,36.2,17.4,40.3v32.7c-17.1,1.8-34.9,3.5-53.2,5.1v-47.4
		c11.8-4.8,20.6-24.2,20.6-47.5c0-26.9-11.8-48.6-26.3-48.6c-14.5,0-26.3,21.8-26.3,48.6c0,23.2,8.8,42.6,20.6,47.5v48.4
		c-15.1,1.3-30.6,2.6-46.5,3.7v-39.9c10-4.1,17.4-20.6,17.4-40.3c0-22.8-10-41.3-22.3-41.3c-12.3,0-22.3,18.5-22.3,41.3
		c0,19.7,7.5,36.2,17.4,40.3v40.6c-39.7,2.9-81.4,5.4-125,7.6v-37.7c11.9-4.9,20.8-24.5,20.8-48c0-27.2-11.9-49.2-26.6-49.2
		s-26.6,22-26.6,49.2c0,23.5,8.9,43.1,20.8,48v38.2c-33,1.6-67,2.9-101.9,4v-53.7c13.9-5.7,24.4-28.7,24.4-56.2
		c0-31.8-13.9-57.6-31.2-57.6S1157,478.2,1157,510c0,27.5,10.4,50.5,24.4,56.2v54.1c-72.3,2.2-148.2,3.3-226.5,3.3
		c-32.7,0-65-0.2-96.9-0.6V558c14.5-6,25.3-29.8,25.3-58.4c0-33.1-14.5-59.9-32.4-59.9s-32.4,26.8-32.4,59.9
		c0,28.6,10.8,52.5,25.3,58.4v64.9C404.8,616.7,65,573.9,65,522.1c0-6.8,5.8-13.4,16.8-19.8C29.3,519.3,0,538.1,0,557.9
		c0.1,75.9,429.9,137.5,960,137.5s960-61.6,960-137.5C1920,535,1880.7,513.3,1811.1,494.3z"/>
</g>
<path id="rivier" class="st25" d="M128.5,485.6c9-1.8,294.1,56.6,294.4,56.6c48.8,7.8,97.1,39.9,144.1,75.1
	c30.8,23.1,204.9,46.6,215.1,76.5c0.3,1-263.7-8.3-316.7-17.2s-38.7-72.4-120.2-89.2C263.7,570.6,64.7,516.1,74,508.1
	C93.7,491.3,117.5,487.7,128.5,485.6z"/>
<g id="tree_9_">
	<ellipse class="st18" cx="152.7" cy="466.9" rx="26.6" ry="49.2"/>
	<path class="st18" d="M152.7,579.2L152.7,579.2c-3.2,0-5.8-2.6-5.8-5.8v-80c0-3.2,2.6-5.8,5.8-5.8l0,0c3.2,0,5.8,2.6,5.8,5.8v80
		C158.5,576.6,155.9,579.2,152.7,579.2z"/>
</g>
<g id="tree_11_">
	<ellipse class="st18" cx="363.6" cy="517.8" rx="26.6" ry="49.2"/>
	<path class="st18" d="M363.6,630.1L363.6,630.1c-3.2,0-5.8-2.6-5.8-5.8v-80c0-3.2,2.6-5.8,5.8-5.8l0,0c3.2,0,5.8,2.6,5.8,5.8v80
		C369.4,627.5,366.8,630.1,363.6,630.1z"/>
</g>
<g id="birds_3_">
	<polygon class="st6" points="989.6,669.4 1018.4,691.3 1018.5,691.2 1002.4,652.9 1043.6,658 1043.7,658 1014.8,636.1 	"/>
	<g>
		<path class="st26" d="M1011,569.6l14.7-8.8c-3.7-11.8-13.1-21.5-25.8-24.9c-19.9-5.4-40.5,6.3-46,26.2c-5.4,19.9,6.3,40.5,26.2,46
			c19.9,5.4,40.5-6.3,46-26.2c0-0.1,0-0.1,0.1-0.2L1011,569.6z"/>
		<path class="st26" d="M954.5,635.5c0,19.7,16,35.7,35.7,35.7c19.7,0,35.7-16,35.7-35.7c0-19.7-16-35.7-35.7-35.7
			C970.5,599.7,954.5,615.7,954.5,635.5"/>
		<polygon class="st26" points="981.8,563.3 940.6,637.8 1038.2,627 		"/>
		<polygon class="st6" points="1009.5,590.3 1045.6,593.2 1045.6,593.1 1011.4,569.5 1048.9,551.7 1049,551.6 1012.9,548.7 		"/>
		<path class="st8" d="M987,549.6c5.9-0.3,11.1,2.8,12.9,7.4c0.3-1,0.4-1.9,0.3-3c-0.3-6.1-6.4-10.7-13.5-10.3s-12.6,5.7-12.3,11.7
			c0.1,1,0.3,2,0.7,2.9C976.3,553.6,981.1,549.9,987,549.6"/>
	</g>
</g>
<g id="birds_5_">
	<polygon class="st6" points="898.5,628.8 898.5,648.3 898.6,648.3 910,628.9 921.5,648.3 921.5,648.3 921.5,628.8 	"/>
	<g>
		<path class="st27" d="M920.6,576.6l6.5-6.7c-3.7-5.6-10.1-9.3-17.4-9.3c-11.4,0-20.6,9-20.6,20.2c0,11.1,9.2,20.2,20.6,20.2
			c11.4,0,20.6-9,20.6-20.2c0,0,0-0.1,0-0.1L920.6,576.6z"/>
		<path class="st27" d="M890.4,613.5c0,10.6,8.8,19.2,19.7,19.2s19.7-8.6,19.7-19.2s-8.8-19.2-19.7-19.2
			C899.2,594.2,890.4,602.9,890.4,613.5"/>
		<polygon class="st27" points="910.2,574.5 883.2,620.3 937.3,620.3 		"/>
		<polygon class="st6" points="922.8,587.6 942.4,584 942.4,583.9 920.8,576.5 938.2,561.9 938.2,561.9 918.6,565.5 		"/>
		<path class="st8" d="M904.9,569.6c3.1-1,6.3-0.1,7.9,2c0-0.5-0.1-1.1-0.3-1.6c-1.1-3.1-5-4.6-8.7-3.4c-3.7,1.2-5.9,4.7-4.8,7.9
			c0.2,0.5,0.4,1,0.8,1.4C899.8,573.2,901.8,570.6,904.9,569.6"/>
	</g>
</g>
<g id="birds_1_">
	<polygon class="st6" points="1103.8,638.1 1103.8,657.6 1103.7,657.6 1092.3,638.2 1080.8,657.6 1080.8,657.6 1080.8,638.1 	"/>
	<g>
		<path class="st27" d="M1081.7,585.9l-6.5-6.7c3.7-5.6,10.1-9.3,17.4-9.3c11.4,0,20.6,9,20.6,20.2s-9.2,20.2-20.6,20.2
			c-11.4,0-20.6-9-20.6-20.2c0,0,0-0.1,0-0.1L1081.7,585.9z"/>
		<path class="st27" d="M1111.9,622.8c0,10.6-8.8,19.2-19.7,19.2s-19.7-8.6-19.7-19.2c0-10.6,8.8-19.2,19.7-19.2
			C1103.1,603.5,1111.9,612.2,1111.9,622.8"/>
		<polygon class="st27" points="1092,583.8 1119.1,629.6 1065,629.6 		"/>
		<polygon class="st6" points="1079.4,596.9 1059.8,593.3 1059.8,593.2 1081.5,585.8 1064.1,571.2 1064.1,571.2 1083.7,574.8 		"/>
		<path class="st8" d="M1097.4,578.9c-3.1-1-6.3-0.1-7.9,2c0-0.5,0.1-1.1,0.3-1.6c1.1-3.1,5-4.6,8.7-3.4c3.7,1.2,5.9,4.7,4.8,7.9
			c-0.2,0.5-0.4,1-0.8,1.4C1102.5,582.5,1100.5,579.9,1097.4,578.9"/>
	</g>
</g>
<g id="gitaar">
	<ellipse class="st28" cx="997.7" cy="647.6" rx="25.2" ry="23.2"/>
	<ellipse class="st28" cx="1016.3" cy="634.4" rx="19.5" ry="17.9"/>
	<g>
		<g>
			<path class="st29" d="M999.7,649.1c7.4-4.5,14.7-9,22.1-13.5c11.6-7.1,23.3-14.3,34.9-21.4c2.7-1.6,5.4-3.3,8.1-5
				c4.4-2.7,0.4-9.6-4-6.9c-7.4,4.5-14.7,9-22.1,13.5c-11.6,7.1-23.3,14.3-34.9,21.4c-2.7,1.6-5.4,3.3-8.1,5
				C991.3,644.9,995.3,651.8,999.7,649.1L999.7,649.1z"/>
		</g>
	</g>
	<circle class="st30" cx="1000.4" cy="644.3" r="12"/>
</g>
</svg>
