<?xml version="1.0" encoding="utf-8"?>
<!-- Generator: Adobe Illustrator 25.0.1, SVG Export Plug-In . SVG Version: 6.00 Build 0)  -->
<svg version="1.1" id="Layer_1" xmlns="http://www.w3.org/2000/svg" xmlns:xlink="http://www.w3.org/1999/xlink" x="0px" y="0px"
	 viewBox="0 0 300 200" style="enable-background:new 0 0 300 200;" xml:space="preserve">
<style type="text/css">
	.st0{fill:#FFB136;}
	.st1{fill:#0077B7;}
	.st2{fill:#FF6057;}
	.st3{fill:#FFFFFF;}
</style>
<g id="Birdlogo">
	<polygon class="st0" points="68.7,156.6 68.7,199.7 68.9,199.7 93.6,156.8 118.3,199.7 118.5,199.7 118.5,156.6 	"/>
	<polygon class="st0" points="190.7,160.8 190.7,199.5 190.8,199.5 213,161 235.2,199.5 235.4,199.5 235.4,160.8 	"/>
	<path class="st1" d="M116.6,40.7l13.7-14.8c-8-12.1-21.7-20.1-37.2-20.1c-24.6,0-44.6,20-44.6,44.6C48.5,75,68.5,95,93.1,95
		c24.5,0,44.3-19.7,44.6-44.1L116.6,40.7z"/>
	<circle class="st1" cx="93.8" cy="122.7" r="42.5"/>
	<polygon class="st1" points="94.1,36.4 35.6,137.7 152.6,137.7 	"/>
	<polygon class="st0" points="121.3,65.4 163.6,57.5 163.6,57.3 116.9,40.9 154.5,8.7 154.4,8.6 112.1,16.5 	"/>
	<path class="st2" d="M213.3,35.5c-13.6,0-25.5,7.1-32.2,17.8l11.8,12.2l-17.6,7.2c0,0.3,0,0.6,0,0.9c0,21,17.1,38.1,38.1,38.1
		c21,0,38.1-17.1,38.1-38.1C251.4,52.6,234.3,35.5,213.3,35.5z"/>
	<circle class="st2" cx="212.7" cy="135.4" r="36.4"/>
	<polygon class="st2" points="212.4,61.6 262.4,148.2 162.4,148.2 	"/>
	<polygon class="st0" points="189.1,86.4 152.9,79.6 152.9,79.5 192.8,65.5 160.8,37.9 160.8,37.8 197,44.6 	"/>
	<path class="st3" d="M82.6,25.7c6.7-2.3,13.7-0.3,17.1,4.4c0-1.2-0.2-2.4-0.6-3.5c-2.3-6.9-10.7-10.3-18.8-7.6S67.7,29.5,70,36.4
		c0.4,1.2,1,2.2,1.7,3.1C71.6,33.7,75.9,28,82.6,25.7z"/>
	<path class="st3" d="M222.2,52.5c-5.7-1.9-11.7-0.2-14.6,3.8c0-1,0.2-2,0.5-3c2-5.9,9.2-8.8,16.1-6.5c6.9,2.3,10.9,9,8.9,14.8
		c-0.3,1-0.8,1.9-1.4,2.7C231.6,59.3,227.9,54.4,222.2,52.5z"/>
</g>
</svg>
